<?xml version="1.0" standalone="no"?>
<?xml-stylesheet href="wheel.css" type="text/css"?>
<!DOCTYPE svg PUBLIC "-//W3C//DTD SVG 1.1//EN"
"http://www.w3.org/Graphics/SVG/1.1/DTD/svg11.dtd">
<svg version="1.1" viewBox="0 0 380 380" xmlns="http://www.w3.org/2000/svg"><path class="success" d="&#10;M 190.0,10.0&#10;A180,180 0 0 1 193.141433159,10.0274148718&#10;L 191.570716579,100.013707436&#10;A90,90 0 0 0 190.0,100.0&#10;Z&#10;"><title>simplejson &#10003;</title></path><path class="success" d="&#10;M 193.141433159,10.0274148718&#10;A180,180 0 0 1 196.281909406,10.1096511366&#10;L 193.140954703,100.054825568&#10;A90,90 0 0 0 191.570716579,100.013707436&#10;Z&#10;"><title>setuptools &#10003;</title></path><path class="success" d="&#10;M 196.281909406,10.1096511366&#10;A180,180 0 0 1 199.420472124,10.2466837442&#10;L 194.710236062,100.123341872&#10;A90,90 0 0 0 193.140954703,100.054825568&#10;Z&#10;"><title>six &#10003;</title></path><path class="success" d="&#10;M 199.420472124,10.2466837442&#10;A180,180 0 0 1 202.556165274,10.4384709532&#10;L 196.278082637,100.219235477&#10;A90,90 0 0 0 194.710236062,100.123341872&#10;Z&#10;"><title>requests &#10003;</title></path><path class="success" d="&#10;M 202.556165274,10.4384709532&#10;A180,180 0 0 1 205.688033695,10.6849543435&#10;L 197.844016847,100.342477172&#10;A90,90 0 0 0 196.278082637,100.219235477&#10;Z&#10;"><title>pip &#10003;</title></path><path class="success" d="&#10;M 205.688033695,10.6849543435&#10;A180,180 0 0 1 208.815123388,10.9860588337&#10;L 199.407561694,100.493029417&#10;A90,90 0 0 0 197.844016847,100.342477172&#10;Z&#10;"><title>virtualenv &#10003;</title></path><path class="success" d="&#10;M 208.815123388,10.9860588337&#10;A180,180 0 0 1 211.936481813,11.3416927046&#10;L 200.968240906,100.670846352&#10;A90,90 0 0 0 199.407561694,100.493029417&#10;Z&#10;"><title>python-dateutil &#10003;</title></path><path class="success" d="&#10;M 211.936481813,11.3416927046&#10;A180,180 0 0 1 215.051158173,11.7517476265&#10;L 202.525579086,100.875873813&#10;A90,90 0 0 0 200.968240906,100.670846352&#10;Z&#10;"><title>boto &#10003;</title></path><path class="success" d="&#10;M 215.051158173,11.7517476265&#10;A180,180 0 0 1 218.158203707,12.2160986929&#10;L 204.079101854,101.108049346&#10;A90,90 0 0 0 202.525579086,100.875873813&#10;Z&#10;"><title>pbr &#10003;</title></path><path class="success" d="&#10;M 218.158203707,12.2160986929&#10;A180,180 0 0 1 221.25667198,12.7346044578&#10;L 205.62833599,101.367302229&#10;A90,90 0 0 0 204.079101854,101.108049346&#10;Z&#10;"><title>pyasn1 &#10003;</title></path><path class="success" d="&#10;M 221.25667198,12.7346044578&#10;A180,180 0 0 1 224.345619168,13.3071069794&#10;L 207.172809584,101.65355349&#10;A90,90 0 0 0 205.62833599,101.367302229&#10;Z&#10;"><title>distribute &#10003;</title></path><path class="success" d="&#10;M 224.345619168,13.3071069794&#10;A180,180 0 0 1 227.424104347,13.9334318679&#10;L 208.712052174,101.966715934&#10;A90,90 0 0 0 207.172809584,101.65355349&#10;Z&#10;"><title>certifi &#10003;</title></path><path class="success" d="&#10;M 227.424104347,13.9334318679&#10;A180,180 0 0 1 230.491189782,14.6133883387&#10;L 210.245594891,102.306694169&#10;A90,90 0 0 0 208.712052174,101.966715934&#10;Z&#10;"><title>docutils &#10003;</title></path><path class="success" d="&#10;M 230.491189782,14.6133883387&#10;A180,180 0 0 1 233.545941208,15.3467692703&#10;L 211.772970604,102.673384635&#10;A90,90 0 0 0 210.245594891,102.306694169&#10;Z&#10;"><title>pytz &#10003;</title></path><path class="success" d="&#10;M 233.545941208,15.3467692703&#10;A180,180 0 0 1 236.587428118,16.133351268&#10;L 213.293714059,103.066675634&#10;A90,90 0 0 0 211.772970604,102.673384635&#10;Z&#10;"><title>PyYAML &#10003;</title></path><path class="success" d="&#10;M 236.587428118,16.133351268&#10;A180,180 0 0 1 239.614724047,16.9728947311&#10;L 214.807362024,103.486447366&#10;A90,90 0 0 0 213.293714059,103.066675634&#10;Z&#10;"><title>rsa &#10003;</title></path><path class="success" d="&#10;M 239.614724047,16.9728947311&#10;A180,180 0 0 1 242.62690685,17.8651439267&#10;L 216.313453425,103.932571963&#10;A90,90 0 0 0 214.807362024,103.486447366&#10;Z&#10;"><title>botocore &#10003;</title></path><path class="success" d="&#10;M 242.62690685,17.8651439267&#10;A180,180 0 0 1 245.623058987,18.8098270669&#10;L 217.811529494,104.404913533&#10;A90,90 0 0 0 216.313453425,103.932571963&#10;Z&#10;"><title>wincertstore &#10003;</title></path><path class="success" d="&#10;M 245.623058987,18.8098270669&#10;A180,180 0 0 1 248.602267802,19.8066563921&#10;L 219.301133901,104.903328196&#10;A90,90 0 0 0 217.811529494,104.404913533&#10;Z&#10;"><title>Jinja2 &#10003;</title></path><path class="success" d="&#10;M 248.602267802,19.8066563921&#10;A180,180 0 0 1 251.563625799,20.8553282585&#10;L 220.781812899,105.427664129&#10;A90,90 0 0 0 219.301133901,104.903328196&#10;Z&#10;"><title>nose &#10003;</title></path><path class="success" d="&#10;M 251.563625799,20.8553282585&#10;A180,180 0 0 1 254.506230918,21.9555232305&#10;L 222.253115459,105.977761615&#10;A90,90 0 0 0 220.781812899,105.427664129&#10;Z&#10;"><title>jmespath &#10003;</title></path><path class="success" d="&#10;M 254.506230918,21.9555232305&#10;A180,180 0 0 1 257.429186815,23.106906178&#10;L 223.714593407,106.553453089&#10;A90,90 0 0 0 222.253115459,105.977761615&#10;Z&#10;"><title>awscli &#10003;</title></path><path class="success" d="&#10;M 257.429186815,23.106906178&#10;A180,180 0 0 1 260.331603128,24.3091263786&#10;L 225.165801564,107.154563189&#10;A90,90 0 0 0 223.714593407,106.553453089&#10;Z&#10;"><title>colorama &#10003;</title></path><path class="success" d="&#10;M 260.331603128,24.3091263786&#10;A180,180 0 0 1 263.212595754,25.5618176243&#10;L 226.606297877,107.780908812&#10;A90,90 0 0 0 225.165801564,107.154563189&#10;Z&#10;"><title>MarkupSafe &#10003;</title></path><path class="success" d="&#10;M 263.212595754,25.5618176243&#10;A180,180 0 0 1 266.071287113,26.8645983334&#10;L 228.035643557,108.432299167&#10;A90,90 0 0 0 226.606297877,107.780908812&#10;Z&#10;"><title>lxml &#10003;</title></path><path class="success" d="&#10;M 266.071287113,26.8645983334&#10;A180,180 0 0 1 268.906806422,28.2170716661&#10;L 229.453403211,109.108535833&#10;A90,90 0 0 0 228.035643557,108.432299167&#10;Z&#10;"><title>paramiko &#10003;</title></path><path class="success" d="&#10;M 268.906806422,28.2170716661&#10;A180,180 0 0 1 271.718289953,29.6188256461&#10;L 230.859144977,109.809412823&#10;A90,90 0 0 0 229.453403211,109.108535833&#10;Z&#10;"><title>cffi &#10003;</title></path><path class="success" d="&#10;M 271.718289953,29.6188256461&#10;A180,180 0 0 1 274.504881301,31.0694332854&#10;L 232.252440651,110.534716643&#10;A90,90 0 0 0 230.859144977,109.809412823&#10;Z&#10;"><title>pycrypto &#10003;</title></path><path class="success" d="&#10;M 274.504881301,31.0694332854&#10;A180,180 0 0 1 277.265731644,32.5684527149&#10;L 233.632865822,111.284226357&#10;A90,90 0 0 0 232.252440651,110.534716643&#10;Z&#10;"><title>argparse &#10003;</title></path><path class="success" d="&#10;M 277.265731644,32.5684527149&#10;A180,180 0 0 1 280.0,34.1154273188&#10;L 235.0,112.057713659&#10;A90,90 0 0 0 233.632865822,111.284226357&#10;Z&#10;"><title>selenium &#10003;</title></path><path class="success" d="&#10;M 280.0,34.1154273188&#10;A180,180 0 0 1 282.706853484,35.7098858736&#10;L 236.353426742,112.854942937&#10;A90,90 0 0 0 235.0,112.057713659&#10;Z&#10;"><title>coverage &#10003;</title></path><path class="success" d="&#10;M 282.706853484,35.7098858736&#10;A180,180 0 0 1 285.385467562,37.3513426918&#10;L 237.692733781,113.675671346&#10;A90,90 0 0 0 236.353426742,112.854942937&#10;Z&#10;"><title>pycparser &#10003;</title></path><path class="success" d="&#10;M 285.385467562,37.3513426918&#10;A180,180 0 0 1 288.035026303,39.0392977698&#10;L 239.017513151,114.519648885&#10;A90,90 0 0 0 237.692733781,113.675671346&#10;Z&#10;"><title>ecdsa &#10003;</title></path><path class="success" d="&#10;M 288.035026303,39.0392977698&#10;A180,180 0 0 1 290.654722625,40.7732369401&#10;L 240.327361312,115.38661847&#10;A90,90 0 0 0 239.017513151,114.519648885&#10;Z&#10;"><title>Django &#10003;</title></path><path class="success" d="&#10;M 290.654722625,40.7732369401&#10;A180,180 0 0 1 293.243758543,42.552632028&#10;L 241.621879272,116.276316014&#10;A90,90 0 0 0 240.327361312,115.38661847&#10;Z&#10;"><title>mock &#10003;</title></path><path class="success" d="&#10;M 293.243758543,42.552632028&#10;A180,180 0 0 1 295.801345413,44.3769410125&#10;L 242.900672706,117.188470506&#10;A90,90 0 0 0 241.621879272,116.276316014&#10;Z&#10;"><title>pika &#10003;</title></path><path class="success" d="&#10;M 295.801345413,44.3769410125&#10;A180,180 0 0 1 298.326704167,46.2456081915&#10;L 244.163352084,118.122804096&#10;A90,90 0 0 0 242.900672706,117.188470506&#10;Z&#10;"><title>psycopg2 &#10003;</title></path><path class="success" d="&#10;M 298.326704167,46.2456081915&#10;A180,180 0 0 1 300.819065559,48.1580643508&#10;L 245.409532779,119.079032175&#10;A90,90 0 0 0 244.163352084,118.122804096&#10;Z&#10;"><title>httplib2 &#10003;</title></path><path class="success" d="&#10;M 300.819065559,48.1580643508&#10;A180,180 0 0 1 303.277670389,50.1137269377&#10;L 246.638835194,120.056863469&#10;A90,90 0 0 0 245.409532779,119.079032175&#10;Z&#10;"><title>pep8 &#10003;</title></path><path class="success" d="&#10;M 303.277670389,50.1137269377&#10;A180,180 0 0 1 305.701769744,52.1120002386&#10;L 247.850884872,121.056000119&#10;A90,90 0 0 0 246.638835194,120.056863469&#10;Z&#10;"><title>Pygments &#10003;</title></path><path class="success" d="&#10;M 305.701769744,52.1120002386&#10;A180,180 0 0 1 308.090625218,54.1522755599&#10;L 249.045312609,122.07613778&#10;A90,90 0 0 0 247.850884872,121.056000119&#10;Z&#10;"><title>redis &#10003;</title></path><path class="success" d="&#10;M 308.090625218,54.1522755599&#10;A180,180 0 0 1 310.443509145,56.2339314141&#10;L 250.221754572,123.116965707&#10;A90,90 0 0 0 249.045312609,122.07613778&#10;Z&#10;"><title>wheel &#10003;</title></path><path class="success" d="&#10;M 310.443509145,56.2339314141&#10;A180,180 0 0 1 312.759704811,58.3563337085&#10;L 251.379852406,124.178166854&#10;A90,90 0 0 0 250.221754572,123.116965707&#10;Z&#10;"><title>Werkzeug &#10003;</title></path><path class="success" d="&#10;M 312.759704811,58.3563337085&#10;A180,180 0 0 1 315.038506683,60.518835939&#10;L 252.519253341,125.25941797&#10;A90,90 0 0 0 251.379852406,124.178166854&#10;Z&#10;"><title>SQLAlchemy &#10003;</title></path><path class="success" d="&#10;M 315.038506683,60.518835939&#10;A180,180 0 0 1 317.279220614,62.7207793864&#10;L 253.639610307,126.360389693&#10;A90,90 0 0 0 252.519253341,125.25941797&#10;Z&#10;"><title>pymongo &#10003;</title></path><path class="success" d="&#10;M 317.279220614,62.7207793864&#10;A180,180 0 0 1 319.481164061,64.9614933174&#10;L 254.74058203,127.480746659&#10;A90,90 0 0 0 253.639610307,126.360389693&#10;Z&#10;"><title>enum34 &#10003;</title></path><path class="success" d="&#10;M 319.481164061,64.9614933174&#10;A180,180 0 0 1 321.643666291,67.2402951888&#10;L 255.821833146,128.620147594&#10;A90,90 0 0 0 254.74058203,127.480746659&#10;Z&#10;"><title>psutil &#10003;</title></path><path class="success" d="&#10;M 321.643666291,67.2402951888&#10;A180,180 0 0 1 323.766068586,69.5564908554&#10;L 256.883034293,129.778245428&#10;A90,90 0 0 0 255.821833146,128.620147594&#10;Z&#10;"><title>futures &#10003;</title></path><path class="success" d="&#10;M 323.766068586,69.5564908554&#10;A180,180 0 0 1 325.84772444,71.9093747817&#10;L 257.92386222,130.954687391&#10;A90,90 0 0 0 256.883034293,129.778245428&#10;Z&#10;"><title>Pillow &#10003;</title></path><path class="success" d="&#10;M 325.84772444,71.9093747817&#10;A180,180 0 0 1 327.887999761,74.2982302564&#10;L 258.943999881,132.149115128&#10;A90,90 0 0 0 257.92386222,130.954687391&#10;Z&#10;"><title>Flask &#10003;</title></path><path class="default" d="&#10;M 327.887999761,74.2982302564&#10;A180,180 0 0 1 329.886273062,76.722329611&#10;L 259.943136531,133.361164806&#10;A90,90 0 0 0 258.943999881,132.149115128&#10;Z&#10;"><title>supervisor &#10007;</title></path><path class="success" d="&#10;M 329.886273062,76.722329611&#10;A180,180 0 0 1 331.841935649,79.1809344414&#10;L 260.920967825,134.590467221&#10;A90,90 0 0 0 259.943136531,133.361164806&#10;Z&#10;"><title>cryptography &#10003;</title></path><path class="success" d="&#10;M 331.841935649,79.1809344414&#10;A180,180 0 0 1 333.754391809,81.6732958326&#10;L 261.877195904,135.836647916&#10;A90,90 0 0 0 260.920967825,134.590467221&#10;Z&#10;"><title>bcdoc &#10003;</title></path><path class="success" d="&#10;M 333.754391809,81.6732958326&#10;A180,180 0 0 1 335.623058987,84.1986545874&#10;L 262.811529494,137.099327294&#10;A90,90 0 0 0 261.877195904,135.836647916&#10;Z&#10;"><title>greenlet &#10003;</title></path><path class="success" d="&#10;M 335.623058987,84.1986545874&#10;A180,180 0 0 1 337.447367972,86.7562414568&#10;L 263.723683986,138.378120728&#10;A90,90 0 0 0 262.811529494,137.099327294&#10;Z&#10;"><title>Babel &#10003;</title></path><path class="success" d="&#10;M 337.447367972,86.7562414568&#10;A180,180 0 0 1 339.22676306,89.3452773753&#10;L 264.61338153,139.672638688&#10;A90,90 0 0 0 263.723683986,138.378120728&#10;Z&#10;"><title>pyOpenSSL &#10003;</title></path><path class="success" d="&#10;M 339.22676306,89.3452773753&#10;A180,180 0 0 1 340.96070223,91.9649736973&#10;L 265.480351115,140.982486849&#10;A90,90 0 0 0 264.61338153,139.672638688&#10;Z&#10;"><title>meld3 &#10003;</title></path><path class="success" d="&#10;M 340.96070223,91.9649736973&#10;A180,180 0 0 1 342.648657308,94.614532438&#10;L 266.324328654,142.307266219&#10;A90,90 0 0 0 265.480351115,140.982486849&#10;Z&#10;"><title>py &#10003;</title></path><path class="success" d="&#10;M 342.648657308,94.614532438&#10;A180,180 0 0 1 344.290114126,97.2931465162&#10;L 267.145057063,143.646573258&#10;A90,90 0 0 0 266.324328654,142.307266219&#10;Z&#10;"><title>numpy &#10003;</title></path><path class="success" d="&#10;M 344.290114126,97.2931465162&#10;A180,180 0 0 1 345.884572681,100.0&#10;L 267.942286341,145.0&#10;A90,90 0 0 0 267.145057063,143.646573258&#10;Z&#10;"><title>MySQL-python &#10003;</title></path><path class="success" d="&#10;M 345.884572681,100.0&#10;A180,180 0 0 1 347.431547285,102.734268356&#10;L 268.715773643,146.367134178&#10;A90,90 0 0 0 267.942286341,145.0&#10;Z&#10;"><title>zc.buildout &#10003;</title></path><path class="success" d="&#10;M 347.431547285,102.734268356&#10;A180,180 0 0 1 348.930566715,105.495118699&#10;L 269.465283357,147.747559349&#10;A90,90 0 0 0 268.715773643,146.367134178&#10;Z&#10;"><title>kombu &#10003;</title></path><path class="success" d="&#10;M 348.930566715,105.495118699&#10;A180,180 0 0 1 350.381174354,108.281710047&#10;L 270.190587177,149.140855023&#10;A90,90 0 0 0 269.465283357,147.747559349&#10;Z&#10;"><title>Paste &#10003;</title></path><path class="default" d="&#10;M 350.381174354,108.281710047&#10;A180,180 0 0 1 351.782928334,111.093193578&#10;L 270.891464167,150.546596789&#10;A90,90 0 0 0 270.190587177,149.140855023&#10;Z&#10;"><title>carbon &#10007;</title></path><path class="success" d="&#10;M 351.782928334,111.093193578&#10;A180,180 0 0 1 353.135401667,113.928712887&#10;L 271.567700833,151.964356443&#10;A90,90 0 0 0 270.891464167,150.546596789&#10;Z&#10;"><title>Sphinx &#10003;</title></path><path class="success" d="&#10;M 353.135401667,113.928712887&#10;A180,180 0 0 1 354.438182376,116.787404246&#10;L 272.219091188,153.393702123&#10;A90,90 0 0 0 271.567700833,151.964356443&#10;Z&#10;"><title>anyjson &#10003;</title></path><path class="success" d="&#10;M 354.438182376,116.787404246&#10;A180,180 0 0 1 355.690873621,119.668396872&#10;L 272.845436811,154.834198436&#10;A90,90 0 0 0 272.219091188,153.393702123&#10;Z&#10;"><title>docopt &#10003;</title></path><path class="success" d="&#10;M 355.690873621,119.668396872&#10;A180,180 0 0 1 356.893093822,122.570813185&#10;L 273.446546911,156.285406593&#10;A90,90 0 0 0 272.845436811,154.834198436&#10;Z&#10;"><title>tornado &#10003;</title></path><path class="success" d="&#10;M 356.893093822,122.570813185&#10;A180,180 0 0 1 358.044476769,125.493769082&#10;L 274.022238385,157.746884541&#10;A90,90 0 0 0 273.446546911,156.285406593&#10;Z&#10;"><title>pyflakes &#10003;</title></path><path class="success" d="&#10;M 358.044476769,125.493769082&#10;A180,180 0 0 1 359.144671741,128.436374201&#10;L 274.572335871,159.218187101&#10;A90,90 0 0 0 274.022238385,157.746884541&#10;Z&#10;"><title>zope.interface &#10003;</title></path><path class="success" d="&#10;M 359.144671741,128.436374201&#10;A180,180 0 0 1 360.193343608,131.397732198&#10;L 275.096671804,160.698866099&#10;A90,90 0 0 0 274.572335871,159.218187101&#10;Z&#10;"><title>ipaddress &#10003;</title></path><path class="success" d="&#10;M 360.193343608,131.397732198&#10;A180,180 0 0 1 361.190172933,134.376941013&#10;L 275.595086467,162.188470506&#10;A90,90 0 0 0 275.096671804,160.698866099&#10;Z&#10;"><title>urllib3 &#10003;</title></path><path class="success" d="&#10;M 361.190172933,134.376941013&#10;A180,180 0 0 1 362.134856073,137.37309315&#10;L 276.067428037,163.686546575&#10;A90,90 0 0 0 275.595086467,162.188470506&#10;Z&#10;"><title>itsdangerous &#10003;</title></path><path class="success" d="&#10;M 362.134856073,137.37309315&#10;A180,180 0 0 1 363.027105269,140.385275953&#10;L 276.513552634,165.192637976&#10;A90,90 0 0 0 276.067428037,163.686546575&#10;Z&#10;"><title>jsonschema &#10003;</title></path><path class="success" d="&#10;M 363.027105269,140.385275953&#10;A180,180 0 0 1 363.866648732,143.412571882&#10;L 276.933324366,166.706285941&#10;A90,90 0 0 0 276.513552634,165.192637976&#10;Z&#10;"><title>beautifulsoup4 &#10003;</title></path><path class="success" d="&#10;M 363.866648732,143.412571882&#10;A180,180 0 0 1 364.65323073,146.454058792&#10;L 277.326615365,168.227029396&#10;A90,90 0 0 0 276.933324366,166.706285941&#10;Z&#10;"><title>PasteDeploy &#10003;</title></path><path class="success" d="&#10;M 364.65323073,146.454058792&#10;A180,180 0 0 1 365.386611661,149.508810218&#10;L 277.693305831,169.754405109&#10;A90,90 0 0 0 277.326615365,168.227029396&#10;Z&#10;"><title>decorator &#10003;</title></path><path class="success" d="&#10;M 365.386611661,149.508810218&#10;A180,180 0 0 1 366.066568132,152.575895653&#10;L 278.033284066,171.287947826&#10;A90,90 0 0 0 277.693305831,169.754405109&#10;Z&#10;"><title>ssl &#10003;</title></path><path class="success" d="&#10;M 366.066568132,152.575895653&#10;A180,180 0 0 1 366.692893021,155.654380832&#10;L 278.34644651,172.827190416&#10;A90,90 0 0 0 278.033284066,171.287947826&#10;Z&#10;"><title>pyparsing &#10003;</title></path><path class="success" d="&#10;M 366.692893021,155.654380832&#10;A180,180 0 0 1 367.265395542,158.74332802&#10;L 278.632697771,174.37166401&#10;A90,90 0 0 0 278.34644651,172.827190416&#10;Z&#10;"><title>Mako &#10003;</title></path><path class="default" d="&#10;M 367.265395542,158.74332802&#10;A180,180 0 0 1 367.783901307,161.841796293&#10;L 278.891950654,175.920898146&#10;A90,90 0 0 0 278.632697771,174.37166401&#10;Z&#10;"><title>graphite-web &#10007;</title></path><path class="success" d="&#10;M 367.783901307,161.841796293&#10;A180,180 0 0 1 368.248252373,164.948841827&#10;L 279.124126187,177.474420914&#10;A90,90 0 0 0 278.891950654,175.920898146&#10;Z&#10;"><title>amqp &#10003;</title></path><path class="success" d="&#10;M 368.248252373,164.948841827&#10;A180,180 0 0 1 368.658307295,168.063518187&#10;L 279.329153648,179.031759094&#10;A90,90 0 0 0 279.124126187,177.474420914&#10;Z&#10;"><title>idna &#10003;</title></path><path class="success" d="&#10;M 368.658307295,168.063518187&#10;A180,180 0 0 1 369.013941166,171.184876612&#10;L 279.506970583,180.592438306&#10;A90,90 0 0 0 279.329153648,179.031759094&#10;Z&#10;"><title>flake8 &#10003;</title></path><path class="success" d="&#10;M 369.013941166,171.184876612&#10;A180,180 0 0 1 369.315045657,174.311966305&#10;L 279.657522828,182.155983153&#10;A90,90 0 0 0 279.506970583,180.592438306&#10;Z&#10;"><title>unittest2 &#10003;</title></path><path class="success" d="&#10;M 369.315045657,174.311966305&#10;A180,180 0 0 1 369.561529047,177.443834726&#10;L 279.780764523,183.721917363&#10;A90,90 0 0 0 279.657522828,182.155983153&#10;Z&#10;"><title>mccabe &#10003;</title></path><path class="success" d="&#10;M 369.561529047,177.443834726&#10;A180,180 0 0 1 369.753316256,180.579527876&#10;L 279.876658128,185.289763938&#10;A90,90 0 0 0 279.780764523,183.721917363&#10;Z&#10;"><title>ordereddict &#10003;</title></path><path class="success" d="&#10;M 369.753316256,180.579527876&#10;A180,180 0 0 1 369.890348863,183.718090594&#10;L 279.945174432,186.859045297&#10;A90,90 0 0 0 279.876658128,185.289763938&#10;Z&#10;"><title>Fabric &#10003;</title></path><path class="success" d="&#10;M 369.890348863,183.718090594&#10;A180,180 0 0 1 369.972585128,186.858566841&#10;L 279.986292564,188.429283421&#10;A90,90 0 0 0 279.945174432,186.859045297&#10;Z&#10;"><title>celery &#10003;</title></path><path class="success" d="&#10;M 369.972585128,186.858566841&#10;A180,180 0 0 1 370.0,190.0&#10;L 280.0,190.0&#10;A90,90 0 0 0 279.986292564,188.429283421&#10;Z&#10;"><title>pytest &#10003;</title></path><path class="success" d="&#10;M 370.0,190.0&#10;A180,180 0 0 1 369.972585128,193.141433159&#10;L 279.986292564,191.570716579&#10;A90,90 0 0 0 280.0,190.0&#10;Z&#10;"><title>ipython &#10003;</title></path><path class="success" d="&#10;M 369.972585128,193.141433159&#10;A180,180 0 0 1 369.890348863,196.281909406&#10;L 279.945174432,193.140954703&#10;A90,90 0 0 0 279.986292564,191.570716579&#10;Z&#10;"><title>stevedore &#10003;</title></path><path class="success" d="&#10;M 369.890348863,196.281909406&#10;A180,180 0 0 1 369.753316256,199.420472124&#10;L 279.876658128,194.710236062&#10;A90,90 0 0 0 279.945174432,193.140954703&#10;Z&#10;"><title>gunicorn &#10003;</title></path><path class="success" d="&#10;M 369.753316256,199.420472124&#10;A180,180 0 0 1 369.561529047,202.556165274&#10;L 279.780764523,196.278082637&#10;A90,90 0 0 0 279.876658128,194.710236062&#10;Z&#10;"><title>backports.ssl_match_hostname &#10003;</title></path><path class="success" d="&#10;M 369.561529047,202.556165274&#10;A180,180 0 0 1 369.315045657,205.688033695&#10;L 279.657522828,197.844016847&#10;A90,90 0 0 0 279.780764523,196.278082637&#10;Z&#10;"><title>iso8601 &#10003;</title></path><path class="success" d="&#10;M 369.315045657,205.688033695&#10;A180,180 0 0 1 369.013941166,208.815123388&#10;L 279.506970583,199.407561694&#10;A90,90 0 0 0 279.657522828,197.844016847&#10;Z&#10;"><title>setuptools-git &#10003;</title></path><path class="success" d="&#10;M 369.013941166,208.815123388&#10;A180,180 0 0 1 368.658307295,211.936481813&#10;L 279.329153648,200.968240906&#10;A90,90 0 0 0 279.506970583,199.407561694&#10;Z&#10;"><title>gevent &#10003;</title></path><path class="success" d="&#10;M 368.658307295,211.936481813&#10;A180,180 0 0 1 368.248252373,215.051158173&#10;L 279.124126187,202.525579086&#10;A90,90 0 0 0 279.329153648,200.968240906&#10;Z&#10;"><title>PrettyTable &#10003;</title></path><path class="success" d="&#10;M 368.248252373,215.051158173&#10;A180,180 0 0 1 367.783901307,218.158203707&#10;L 278.891950654,204.079101854&#10;A90,90 0 0 0 279.124126187,202.525579086&#10;Z&#10;"><title>WebOb &#10003;</title></path><path class="success" d="&#10;M 367.783901307,218.158203707&#10;A180,180 0 0 1 367.265395542,221.25667198&#10;L 278.632697771,205.62833599&#10;A90,90 0 0 0 278.891950654,204.079101854&#10;Z&#10;"><title>billiard &#10003;</title></path><path class="success" d="&#10;M 367.265395542,221.25667198&#10;A180,180 0 0 1 366.692893021,224.345619168&#10;L 278.34644651,207.172809584&#10;A90,90 0 0 0 278.632697771,205.62833599&#10;Z&#10;"><title>netaddr &#10003;</title></path><path class="success" d="&#10;M 366.692893021,224.345619168&#10;A180,180 0 0 1 366.066568132,227.424104347&#10;L 278.033284066,208.712052174&#10;A90,90 0 0 0 278.34644651,207.172809584&#10;Z&#10;"><title>msgpack-python &#10003;</title></path><path class="success" d="&#10;M 366.066568132,227.424104347&#10;A180,180 0 0 1 365.386611661,230.491189782&#10;L 277.693305831,210.245594891&#10;A90,90 0 0 0 278.033284066,208.712052174&#10;Z&#10;"><title>pylint &#10003;</title></path><path class="success" d="&#10;M 365.386611661,230.491189782&#10;A180,180 0 0 1 364.65323073,233.545941208&#10;L 277.326615365,211.772970604&#10;A90,90 0 0 0 277.693305831,210.245594891&#10;Z&#10;"><title>Twisted &#10003;</title></path><path class="success" d="&#10;M 364.65323073,233.545941208&#10;A180,180 0 0 1 363.866648732,236.587428118&#10;L 276.933324366,213.293714059&#10;A90,90 0 0 0 277.326615365,211.772970604&#10;Z&#10;"><title>blessings &#10003;</title></path><path class="success" d="&#10;M 363.866648732,236.587428118&#10;A180,180 0 0 1 363.027105269,239.614724047&#10;L 276.513552634,214.807362024&#10;A90,90 0 0 0 276.933324366,213.293714059&#10;Z&#10;"><title>oslo.config &#10003;</title></path><path class="success" d="&#10;M 363.027105269,239.614724047&#10;A180,180 0 0 1 362.134856073,242.62690685&#10;L 276.067428037,216.313453425&#10;A90,90 0 0 0 276.513552634,214.807362024&#10;Z&#10;"><title>South &#10003;</title></path><path class="success" d="&#10;M 362.134856073,242.62690685&#10;A180,180 0 0 1 361.190172933,245.623058987&#10;L 275.595086467,217.811529494&#10;A90,90 0 0 0 276.067428037,216.313453425&#10;Z&#10;"><title>logilab-common &#10003;</title></path><path class="success" d="&#10;M 361.190172933,245.623058987&#10;A180,180 0 0 1 360.193343608,248.602267802&#10;L 275.096671804,219.301133901&#10;A90,90 0 0 0 275.595086467,217.811529494&#10;Z&#10;"><title>ujson &#10003;</title></path><path class="success" d="&#10;M 360.193343608,248.602267802&#10;A180,180 0 0 1 359.144671741,251.563625799&#10;L 274.572335871,220.781812899&#10;A90,90 0 0 0 275.096671804,219.301133901&#10;Z&#10;"><title>oauth2client &#10003;</title></path><path class="success" d="&#10;M 359.144671741,251.563625799&#10;A180,180 0 0 1 358.044476769,254.506230918&#10;L 274.022238385,222.253115459&#10;A90,90 0 0 0 274.572335871,220.781812899&#10;Z&#10;"><title>pyasn1-modules &#10003;</title></path><path class="success" d="&#10;M 358.044476769,254.506230918&#10;A180,180 0 0 1 356.893093822,257.429186815&#10;L 273.446546911,223.714593407&#10;A90,90 0 0 0 274.022238385,222.253115459&#10;Z&#10;"><title>html5lib &#10003;</title></path><path class="success" d="&#10;M 356.893093822,257.429186815&#10;A180,180 0 0 1 355.690873621,260.331603128&#10;L 272.845436811,225.165801564&#10;A90,90 0 0 0 273.446546911,223.714593407&#10;Z&#10;"><title>oauthlib &#10003;</title></path><path class="success" d="&#10;M 355.690873621,260.331603128&#10;A180,180 0 0 1 354.438182376,263.212595754&#10;L 272.219091188,226.606297877&#10;A90,90 0 0 0 272.845436811,225.165801564&#10;Z&#10;"><title>Markdown &#10003;</title></path><path class="success" d="&#10;M 354.438182376,263.212595754&#10;A180,180 0 0 1 353.135401667,266.071287113&#10;L 271.567700833,228.035643557&#10;A90,90 0 0 0 272.219091188,226.606297877&#10;Z&#10;"><title>google-api-python-client &#10003;</title></path><path class="success" d="&#10;M 353.135401667,266.071287113&#10;A180,180 0 0 1 351.782928334,268.906806422&#10;L 270.891464167,229.453403211&#10;A90,90 0 0 0 271.567700833,228.035643557&#10;Z&#10;"><title>tox &#10003;</title></path><path class="success" d="&#10;M 351.782928334,268.906806422&#10;A180,180 0 0 1 350.381174354,271.718289953&#10;L 270.190587177,230.859144977&#10;A90,90 0 0 0 270.891464167,229.453403211&#10;Z&#10;"><title>funcsigs &#10003;</title></path><path class="success" d="&#10;M 350.381174354,271.718289953&#10;A180,180 0 0 1 348.930566715,274.504881301&#10;L 269.465283357,232.252440651&#10;A90,90 0 0 0 270.190587177,230.859144977&#10;Z&#10;"><title>traceback2 &#10003;</title></path><path class="success" d="&#10;M 348.930566715,274.504881301&#10;A180,180 0 0 1 347.431547285,277.265731644&#10;L 268.715773643,233.632865822&#10;A90,90 0 0 0 269.465283357,232.252440651&#10;Z&#10;"><title>astroid &#10003;</title></path><path class="success" d="&#10;M 347.431547285,277.265731644&#10;A180,180 0 0 1 345.884572681,280.0&#10;L 267.942286341,235.0&#10;A90,90 0 0 0 268.715773643,233.632865822&#10;Z&#10;"><title>lockfile &#10003;</title></path><path class="success" d="&#10;M 345.884572681,280.0&#10;A180,180 0 0 1 344.290114126,282.706853484&#10;L 267.145057063,236.353426742&#10;A90,90 0 0 0 267.942286341,235.0&#10;Z&#10;"><title>linecache2 &#10003;</title></path><path class="success" d="&#10;M 344.290114126,282.706853484&#10;A180,180 0 0 1 342.648657308,285.385467562&#10;L 266.324328654,237.692733781&#10;A90,90 0 0 0 267.145057063,236.353426742&#10;Z&#10;"><title>Cython &#10003;</title></path><path class="success" d="&#10;M 342.648657308,285.385467562&#10;A180,180 0 0 1 340.96070223,288.035026303&#10;L 265.480351115,239.017513151&#10;A90,90 0 0 0 266.324328654,237.692733781&#10;Z&#10;"><title>raven &#10003;</title></path><path class="success" d="&#10;M 340.96070223,288.035026303&#10;A180,180 0 0 1 339.22676306,290.654722625&#10;L 264.61338153,240.327361312&#10;A90,90 0 0 0 265.480351115,239.017513151&#10;Z&#10;"><title>awscli-cwlogs &#10003;</title></path><path class="success" d="&#10;M 339.22676306,290.654722625&#10;A180,180 0 0 1 337.447367972,293.243758543&#10;L 263.723683986,241.621879272&#10;A90,90 0 0 0 264.61338153,240.327361312&#10;Z&#10;"><title>pandas &#10003;</title></path><path class="success" d="&#10;M 337.447367972,293.243758543&#10;A180,180 0 0 1 335.623058987,295.801345413&#10;L 262.811529494,242.900672706&#10;A90,90 0 0 0 263.723683986,241.621879272&#10;Z&#10;"><title>python-keystoneclient &#10003;</title></path><path class="success" d="&#10;M 335.623058987,295.801345413&#10;A180,180 0 0 1 333.754391809,298.326704167&#10;L 261.877195904,244.163352084&#10;A90,90 0 0 0 262.811529494,242.900672706&#10;Z&#10;"><title>websocket-client &#10003;</title></path><path class="success" d="&#10;M 333.754391809,298.326704167&#10;A180,180 0 0 1 331.841935649,300.819065559&#10;L 260.920967825,245.409532779&#10;A90,90 0 0 0 261.877195904,244.163352084&#10;Z&#10;"><title>python-memcached &#10003;</title></path><path class="success" d="&#10;M 331.841935649,300.819065559&#10;A180,180 0 0 1 329.886273062,303.277670389&#10;L 259.943136531,246.638835194&#10;A90,90 0 0 0 260.920967825,245.409532779&#10;Z&#10;"><title>pycurl &#10003;</title></path><path class="success" d="&#10;M 329.886273062,303.277670389&#10;A180,180 0 0 1 327.887999761,305.701769744&#10;L 258.943999881,247.850884872&#10;A90,90 0 0 0 259.943136531,246.638835194&#10;Z&#10;"><title>netifaces &#10003;</title></path><path class="success" d="&#10;M 327.887999761,305.701769744&#10;A180,180 0 0 1 325.84772444,308.090625218&#10;L 257.92386222,249.045312609&#10;A90,90 0 0 0 258.943999881,247.850884872&#10;Z&#10;"><title>vcversioner &#10003;</title></path><path class="success" d="&#10;M 325.84772444,308.090625218&#10;A180,180 0 0 1 323.766068586,310.443509145&#10;L 256.883034293,250.221754572&#10;A90,90 0 0 0 257.92386222,249.045312609&#10;Z&#10;"><title>click &#10003;</title></path><path class="success" d="&#10;M 323.766068586,310.443509145&#10;A180,180 0 0 1 321.643666291,312.759704811&#10;L 255.821833146,251.379852406&#10;A90,90 0 0 0 256.883034293,250.221754572&#10;Z&#10;"><title>setuptools_scm &#10003;</title></path><path class="success" d="&#10;M 321.643666291,312.759704811&#10;A180,180 0 0 1 319.481164061,315.038506683&#10;L 254.74058203,252.519253341&#10;A90,90 0 0 0 255.821833146,251.379852406&#10;Z&#10;"><title>djangorestframework &#10003;</title></path><path class="success" d="&#10;M 319.481164061,315.038506683&#10;A180,180 0 0 1 317.279220614,317.279220614&#10;L 253.639610307,253.639610307&#10;A90,90 0 0 0 254.74058203,252.519253341&#10;Z&#10;"><title>oslo.utils &#10003;</title></path><path class="success" d="&#10;M 317.279220614,317.279220614&#10;A180,180 0 0 1 315.038506683,319.481164061&#10;L 252.519253341,254.74058203&#10;A90,90 0 0 0 253.639610307,253.639610307&#10;Z&#10;"><title>oslo.i18n &#10003;</title></path><path class="success" d="&#10;M 315.038506683,319.481164061&#10;A180,180 0 0 1 312.759704811,321.643666291&#10;L 251.379852406,255.821833146&#10;A90,90 0 0 0 252.519253341,254.74058203&#10;Z&#10;"><title>scikit-learn &#10003;</title></path><path class="success" d="&#10;M 312.759704811,321.643666291&#10;A180,180 0 0 1 310.443509145,323.766068586&#10;L 250.221754572,256.883034293&#10;A90,90 0 0 0 251.379852406,255.821833146&#10;Z&#10;"><title>python-daemon &#10003;</title></path><path class="success" d="&#10;M 310.443509145,323.766068586&#10;A180,180 0 0 1 308.090625218,325.84772444&#10;L 249.045312609,257.92386222&#10;A90,90 0 0 0 250.221754572,256.883034293&#10;Z&#10;"><title>python-mimeparse &#10003;</title></path><path class="success" d="&#10;M 308.090625218,325.84772444&#10;A180,180 0 0 1 305.701769744,327.887999761&#10;L 247.850884872,258.943999881&#10;A90,90 0 0 0 249.045312609,257.92386222&#10;Z&#10;"><title>ndg-httpsclient &#10003;</title></path><path class="success" d="&#10;M 305.701769744,327.887999761&#10;A180,180 0 0 1 303.277670389,329.886273062&#10;L 246.638835194,259.943136531&#10;A90,90 0 0 0 247.850884872,258.943999881&#10;Z&#10;"><title>oslo.serialization &#10003;</title></path><path class="success" d="&#10;M 303.277670389,329.886273062&#10;A180,180 0 0 1 300.819065559,331.841935649&#10;L 245.409532779,260.920967825&#10;A90,90 0 0 0 246.638835194,259.943136531&#10;Z&#10;"><title>suds &#10003;</title></path><path class="success" d="&#10;M 300.819065559,331.841935649&#10;A180,180 0 0 1 298.326704167,333.754391809&#10;L 244.163352084,261.877195904&#10;A90,90 0 0 0 245.409532779,260.920967825&#10;Z&#10;"><title>isodate &#10003;</title></path><path class="success" d="&#10;M 298.326704167,333.754391809&#10;A180,180 0 0 1 295.801345413,335.623058987&#10;L 242.900672706,262.811529494&#10;A90,90 0 0 0 244.163352084,261.877195904&#10;Z&#10;"><title>pyzmq &#10003;</title></path><path class="success" d="&#10;M 295.801345413,335.623058987&#10;A180,180 0 0 1 293.243758543,337.447367972&#10;L 241.621879272,263.723683986&#10;A90,90 0 0 0 242.900672706,262.811529494&#10;Z&#10;"><title>python-novaclient &#10003;</title></path><path class="success" d="&#10;M 293.243758543,337.447367972&#10;A180,180 0 0 1 290.654722625,339.22676306&#10;L 240.327361312,264.61338153&#10;A90,90 0 0 0 241.621879272,263.723683986&#10;Z&#10;"><title>sqlparse &#10003;</title></path><path class="success" d="&#10;M 290.654722625,339.22676306&#10;A180,180 0 0 1 288.035026303,340.96070223&#10;L 239.017513151,265.480351115&#10;A90,90 0 0 0 240.327361312,264.61338153&#10;Z&#10;"><title>scipy &#10003;</title></path><path class="success" d="&#10;M 288.035026303,340.96070223&#10;A180,180 0 0 1 285.385467562,342.648657308&#10;L 237.692733781,266.324328654&#10;A90,90 0 0 0 239.017513151,265.480351115&#10;Z&#10;"><title>statsd &#10003;</title></path><path class="success" d="&#10;M 285.385467562,342.648657308&#10;A180,180 0 0 1 282.706853484,344.290114126&#10;L 236.353426742,267.145057063&#10;A90,90 0 0 0 237.692733781,266.324328654&#10;Z&#10;"><title>functools32 &#10003;</title></path><path class="success" d="&#10;M 282.706853484,344.290114126&#10;A180,180 0 0 1 280.0,345.884572681&#10;L 235.0,267.942286341&#10;A90,90 0 0 0 236.353426742,267.145057063&#10;Z&#10;"><title>ply &#10003;</title></path><path class="success" d="&#10;M 280.0,345.884572681&#10;A180,180 0 0 1 277.265731644,347.431547285&#10;L 233.632865822,268.715773643&#10;A90,90 0 0 0 235.0,267.942286341&#10;Z&#10;"><title>elasticsearch &#10003;</title></path><path class="success" d="&#10;M 277.265731644,347.431547285&#10;A180,180 0 0 1 274.504881301,348.930566715&#10;L 232.252440651,269.465283357&#10;A90,90 0 0 0 233.632865822,268.715773643&#10;Z&#10;"><title>python-gflags &#10003;</title></path><path class="success" d="&#10;M 274.504881301,348.930566715&#10;A180,180 0 0 1 271.718289953,350.381174354&#10;L 230.859144977,270.190587177&#10;A90,90 0 0 0 232.252440651,269.465283357&#10;Z&#10;"><title>repoze.lru &#10003;</title></path><path class="success" d="&#10;M 271.718289953,350.381174354&#10;A180,180 0 0 1 268.906806422,351.782928334&#10;L 229.453403211,270.891464167&#10;A90,90 0 0 0 230.859144977,270.190587177&#10;Z&#10;"><title>testtools &#10003;</title></path><path class="success" d="&#10;M 268.906806422,351.782928334&#10;A180,180 0 0 1 266.071287113,353.135401667&#10;L 228.035643557,271.567700833&#10;A90,90 0 0 0 229.453403211,270.891464167&#10;Z&#10;"><title>cmd2 &#10003;</title></path><path class="success" d="&#10;M 266.071287113,353.135401667&#10;A180,180 0 0 1 263.212595754,354.438182376&#10;L 226.606297877,272.219091188&#10;A90,90 0 0 0 228.035643557,271.567700833&#10;Z&#10;"><title>wrapt &#10003;</title></path><path class="success" d="&#10;M 263.212595754,354.438182376&#10;A180,180 0 0 1 260.331603128,355.690873621&#10;L 225.165801564,272.845436811&#10;A90,90 0 0 0 226.606297877,272.219091188&#10;Z&#10;"><title>uritemplate &#10003;</title></path><path class="default" d="&#10;M 260.331603128,355.690873621&#10;A180,180 0 0 1 257.429186815,356.893093822&#10;L 223.714593407,273.446546911&#10;A90,90 0 0 0 225.165801564,272.845436811&#10;Z&#10;"><title>thrift &#10007;</title></path><path class="success" d="&#10;M 257.429186815,356.893093822&#10;A180,180 0 0 1 254.506230918,358.044476769&#10;L 222.253115459,274.022238385&#10;A90,90 0 0 0 223.714593407,273.446546911&#10;Z&#10;"><title>PyMySQL &#10003;</title></path><path class="success" d="&#10;M 254.506230918,358.044476769&#10;A180,180 0 0 1 251.563625799,359.144671741&#10;L 220.781812899,274.572335871&#10;A90,90 0 0 0 222.253115459,274.022238385&#10;Z&#10;"><title>alembic &#10003;</title></path><path class="success" d="&#10;M 251.563625799,359.144671741&#10;A180,180 0 0 1 248.602267802,360.193343608&#10;L 219.301133901,275.096671804&#10;A90,90 0 0 0 220.781812899,274.572335871&#10;Z&#10;"><title>coveralls &#10003;</title></path><path class="success" d="&#10;M 248.602267802,360.193343608&#10;A180,180 0 0 1 245.623058987,361.190172933&#10;L 217.811529494,275.595086467&#10;A90,90 0 0 0 219.301133901,275.096671804&#10;Z&#10;"><title>configobj &#10003;</title></path><path class="success" d="&#10;M 245.623058987,361.190172933&#10;A180,180 0 0 1 242.62690685,362.134856073&#10;L 216.313453425,276.067428037&#10;A90,90 0 0 0 217.811529494,275.595086467&#10;Z&#10;"><title>cliff &#10003;</title></path><path class="success" d="&#10;M 242.62690685,362.134856073&#10;A180,180 0 0 1 239.614724047,363.027105269&#10;L 214.807362024,276.513552634&#10;A90,90 0 0 0 216.313453425,276.067428037&#10;Z&#10;"><title>protobuf &#10003;</title></path><path class="success" d="&#10;M 239.614724047,363.027105269&#10;A180,180 0 0 1 236.587428118,363.866648732&#10;L 213.293714059,276.933324366&#10;A90,90 0 0 0 214.807362024,276.513552634&#10;Z&#10;"><title>requests-oauthlib &#10003;</title></path><path class="success" d="&#10;M 236.587428118,363.866648732&#10;A180,180 0 0 1 233.545941208,364.65323073&#10;L 211.772970604,277.326615365&#10;A90,90 0 0 0 213.293714059,276.933324366&#10;Z&#10;"><title>extras &#10003;</title></path><path class="success" d="&#10;M 233.545941208,364.65323073&#10;A180,180 0 0 1 230.491189782,365.386611661&#10;L 210.245594891,277.693305831&#10;A90,90 0 0 0 211.772970604,277.326615365&#10;Z&#10;"><title>pytest-cov &#10003;</title></path><path class="success" d="&#10;M 230.491189782,365.386611661&#10;A180,180 0 0 1 227.424104347,366.066568132&#10;L 208.712052174,278.033284066&#10;A90,90 0 0 0 210.245594891,277.693305831&#10;Z&#10;"><title>passlib &#10003;</title></path><path class="success" d="&#10;M 227.424104347,366.066568132&#10;A180,180 0 0 1 224.345619168,366.692893021&#10;L 207.172809584,278.34644651&#10;A90,90 0 0 0 208.712052174,278.033284066&#10;Z&#10;"><title>docker-py &#10003;</title></path><path class="success" d="&#10;M 224.345619168,366.692893021&#10;A180,180 0 0 1 221.25667198,367.265395542&#10;L 205.62833599,278.632697771&#10;A90,90 0 0 0 207.172809584,278.34644651&#10;Z&#10;"><title>pexpect &#10003;</title></path><path class="success" d="&#10;M 221.25667198,367.265395542&#10;A180,180 0 0 1 218.158203707,367.783901307&#10;L 204.079101854,278.891950654&#10;A90,90 0 0 0 205.62833599,278.632697771&#10;Z&#10;"><title>sphinx_rtd_theme &#10003;</title></path><path class="success" d="&#10;M 218.158203707,367.783901307&#10;A180,180 0 0 1 215.051158173,368.248252373&#10;L 202.525579086,279.124126187&#10;A90,90 0 0 0 204.079101854,278.891950654&#10;Z&#10;"><title>BeautifulSoup &#10003;</title></path><path class="success" d="&#10;M 215.051158173,368.248252373&#10;A180,180 0 0 1 211.936481813,368.658307295&#10;L 200.968240906,279.329153648&#10;A90,90 0 0 0 202.525579086,279.124126187&#10;Z&#10;"><title>Unidecode &#10003;</title></path><path class="success" d="&#10;M 211.936481813,368.658307295&#10;A180,180 0 0 1 208.815123388,369.013941166&#10;L 199.407561694,279.506970583&#10;A90,90 0 0 0 200.968240906,279.329153648&#10;Z&#10;"><title>django-debug-toolbar &#10003;</title></path><path class="success" d="&#10;M 208.815123388,369.013941166&#10;A180,180 0 0 1 205.688033695,369.315045657&#10;L 197.844016847,279.657522828&#10;A90,90 0 0 0 199.407561694,279.506970583&#10;Z&#10;"><title>s3transfer &#10003;</title></path><path class="success" d="&#10;M 205.688033695,369.315045657&#10;A180,180 0 0 1 202.556165274,369.561529047&#10;L 196.278082637,279.780764523&#10;A90,90 0 0 0 197.844016847,279.657522828&#10;Z&#10;"><title>newrelic &#10003;</title></path><path class="success" d="&#10;M 202.556165274,369.561529047&#10;A180,180 0 0 1 199.420472124,369.753316256&#10;L 194.710236062,279.876658128&#10;A90,90 0 0 0 196.278082637,279.780764523&#10;Z&#10;"><title>oauth2 &#10003;</title></path><path class="success" d="&#10;M 199.420472124,369.753316256&#10;A180,180 0 0 1 196.281909406,369.890348863&#10;L 193.140954703,279.945174432&#10;A90,90 0 0 0 194.710236062,279.876658128&#10;Z&#10;"><title>python-swiftclient &#10003;</title></path><path class="success" d="&#10;M 196.281909406,369.890348863&#10;A180,180 0 0 1 193.141433159,369.972585128&#10;L 191.570716579,279.986292564&#10;A90,90 0 0 0 193.140954703,279.945174432&#10;Z&#10;"><title>eventlet &#10003;</title></path><path class="success" d="&#10;M 193.141433159,369.972585128&#10;A180,180 0 0 1 190.0,370.0&#10;L 190.0,280.0&#10;A90,90 0 0 0 191.570716579,279.986292564&#10;Z&#10;"><title>matplotlib &#10003;</title></path><path class="success" d="&#10;M 190.0,370.0&#10;A180,180 0 0 1 186.858566841,369.972585128&#10;L 188.429283421,279.986292564&#10;A90,90 0 0 0 190.0,280.0&#10;Z&#10;"><title>retrying &#10003;</title></path><path class="success" d="&#10;M 186.858566841,369.972585128&#10;A180,180 0 0 1 183.718090594,369.890348863&#10;L 186.859045297,279.945174432&#10;A90,90 0 0 0 188.429283421,279.986292564&#10;Z&#10;"><title>django-extensions &#10003;</title></path><path class="success" d="&#10;M 183.718090594,369.890348863&#10;A180,180 0 0 1 180.579527876,369.753316256&#10;L 185.289763938,279.876658128&#10;A90,90 0 0 0 186.859045297,279.945174432&#10;Z&#10;"><title>fixtures &#10003;</title></path><path class="success" d="&#10;M 180.579527876,369.753316256&#10;A180,180 0 0 1 177.443834726,369.561529047&#10;L 183.721917363,279.780764523&#10;A90,90 0 0 0 185.289763938,279.876658128&#10;Z&#10;"><title>WebTest &#10003;</title></path><path class="success" d="&#10;M 177.443834726,369.561529047&#10;A180,180 0 0 1 174.311966305,369.315045657&#10;L 182.155983153,279.657522828&#10;A90,90 0 0 0 183.721917363,279.780764523&#10;Z&#10;"><title>networkx &#10003;</title></path><path class="success" d="&#10;M 174.311966305,369.315045657&#10;A180,180 0 0 1 171.184876612,369.013941166&#10;L 180.592438306,279.506970583&#10;A90,90 0 0 0 182.155983153,279.657522828&#10;Z&#10;"><title>pytest-runner &#10003;</title></path><path class="success" d="&#10;M 171.184876612,369.013941166&#10;A180,180 0 0 1 168.063518187,368.658307295&#10;L 179.031759094,279.329153648&#10;A90,90 0 0 0 180.592438306,279.506970583&#10;Z&#10;"><title>boto3 &#10003;</title></path><path class="success" d="&#10;M 168.063518187,368.658307295&#10;A180,180 0 0 1 164.948841827,368.248252373&#10;L 177.474420914,279.124126187&#10;A90,90 0 0 0 179.031759094,279.329153648&#10;Z&#10;"><title>waitress &#10003;</title></path><path class="success" d="&#10;M 164.948841827,368.248252373&#10;A180,180 0 0 1 161.841796293,367.783901307&#10;L 175.920898146,278.891950654&#10;A90,90 0 0 0 177.474420914,279.124126187&#10;Z&#10;"><title>snowballstemmer &#10003;</title></path><path class="success" d="&#10;M 161.841796293,367.783901307&#10;A180,180 0 0 1 158.74332802,367.265395542&#10;L 174.37166401,278.632697771&#10;A90,90 0 0 0 175.920898146,278.891950654&#10;Z&#10;"><title>cov-core &#10003;</title></path><path class="success" d="&#10;M 158.74332802,367.265395542&#10;A180,180 0 0 1 155.654380832,366.692893021&#10;L 172.827190416,278.34644651&#10;A90,90 0 0 0 174.37166401,278.632697771&#10;Z&#10;"><title>pystache &#10003;</title></path><path class="success" d="&#10;M 155.654380832,366.692893021&#10;A180,180 0 0 1 152.575895653,366.066568132&#10;L 171.287947826,278.033284066&#10;A90,90 0 0 0 172.827190416,278.34644651&#10;Z&#10;"><title>alabaster &#10003;</title></path><path class="success" d="&#10;M 152.575895653,366.066568132&#10;A180,180 0 0 1 149.508810218,365.386611661&#10;L 169.754405109,277.693305831&#10;A90,90 0 0 0 171.287947826,278.033284066&#10;Z&#10;"><title>python-subunit &#10003;</title></path><path class="success" d="&#10;M 149.508810218,365.386611661&#10;A180,180 0 0 1 146.454058792,364.65323073&#10;L 168.227029396,277.326615365&#10;A90,90 0 0 0 169.754405109,277.693305831&#10;Z&#10;"><title>pycups &#10003;</title></path><path class="default" d="&#10;M 146.454058792,364.65323073&#10;A180,180 0 0 1 143.412571882,363.866648732&#10;L 166.706285941,276.933324366&#10;A90,90 0 0 0 168.227029396,277.326615365&#10;Z&#10;"><title>ansible &#10007;</title></path><path class="success" d="&#10;M 143.412571882,363.866648732&#10;A180,180 0 0 1 140.385275953,363.027105269&#10;L 165.192637976,276.513552634&#10;A90,90 0 0 0 166.706285941,276.933324366&#10;Z&#10;"><title>chardet &#10003;</title></path><path class="success" d="&#10;M 140.385275953,363.027105269&#10;A180,180 0 0 1 137.37309315,362.134856073&#10;L 163.686546575,276.067428037&#10;A90,90 0 0 0 165.192637976,276.513552634&#10;Z&#10;"><title>xlrd &#10003;</title></path><path class="success" d="&#10;M 137.37309315,362.134856073&#10;A180,180 0 0 1 134.376941013,361.190172933&#10;L 162.188470506,275.595086467&#10;A90,90 0 0 0 163.686546575,276.067428037&#10;Z&#10;"><title>apache-libcloud &#10003;</title></path><path class="success" d="&#10;M 134.376941013,361.190172933&#10;A180,180 0 0 1 131.397732198,360.193343608&#10;L 160.698866099,275.096671804&#10;A90,90 0 0 0 162.188470506,275.595086467&#10;Z&#10;"><title>blinker &#10003;</title></path><path class="success" d="&#10;M 131.397732198,360.193343608&#10;A180,180 0 0 1 128.436374201,359.144671741&#10;L 159.218187101,274.572335871&#10;A90,90 0 0 0 160.698866099,275.096671804&#10;Z&#10;"><title>django_compressor &#10003;</title></path><path class="success" d="&#10;M 128.436374201,359.144671741&#10;A180,180 0 0 1 125.493769082,358.044476769&#10;L 157.746884541,274.022238385&#10;A90,90 0 0 0 159.218187101,274.572335871&#10;Z&#10;"><title>django-celery &#10003;</title></path><path class="default" d="&#10;M 125.493769082,358.044476769&#10;A180,180 0 0 1 122.570813185,356.893093822&#10;L 156.285406593,273.446546911&#10;A90,90 0 0 0 157.746884541,274.022238385&#10;Z&#10;"><title>google-apputils &#10007;</title></path><path class="success" d="&#10;M 122.570813185,356.893093822&#10;A180,180 0 0 1 119.668396872,355.690873621&#10;L 154.834198436,272.845436811&#10;A90,90 0 0 0 156.285406593,273.446546911&#10;Z&#10;"><title>sqlalchemy-migrate &#10003;</title></path><path class="success" d="&#10;M 119.668396872,355.690873621&#10;A180,180 0 0 1 116.787404246,354.438182376&#10;L 153.393702123,272.219091188&#10;A90,90 0 0 0 154.834198436,272.845436811&#10;Z&#10;"><title>debtcollector &#10003;</title></path><path class="success" d="&#10;M 116.787404246,354.438182376&#10;A180,180 0 0 1 113.928712887,353.135401667&#10;L 151.964356443,271.567700833&#10;A90,90 0 0 0 153.393702123,272.219091188&#10;Z&#10;"><title>testrepository &#10003;</title></path><path class="success" d="&#10;M 113.928712887,353.135401667&#10;A180,180 0 0 1 111.093193578,351.782928334&#10;L 150.546596789,270.891464167&#10;A90,90 0 0 0 151.964356443,271.567700833&#10;Z&#10;"><title>versiontools &#10003;</title></path><path class="success" d="&#10;M 111.093193578,351.782928334&#10;A180,180 0 0 1 108.281710047,350.381174354&#10;L 149.140855023,270.190587177&#10;A90,90 0 0 0 150.546596789,270.891464167&#10;Z&#10;"><title>jsonpointer &#10003;</title></path><path class="success" d="&#10;M 108.281710047,350.381174354&#10;A180,180 0 0 1 105.495118699,348.930566715&#10;L 147.747559349,269.465283357&#10;A90,90 0 0 0 149.140855023,270.190587177&#10;Z&#10;"><title>python-cinderclient &#10003;</title></path><path class="success" d="&#10;M 105.495118699,348.930566715&#10;A180,180 0 0 1 102.734268356,347.431547285&#10;L 146.367134178,268.715773643&#10;A90,90 0 0 0 147.747559349,269.465283357&#10;Z&#10;"><title>simplegeneric &#10003;</title></path><path class="default" d="&#10;M 102.734268356,347.431547285&#10;A180,180 0 0 1 100.0,345.884572681&#10;L 145.0,267.942286341&#10;A90,90 0 0 0 146.367134178,268.715773643&#10;Z&#10;"><title>aspen &#10007;</title></path><path class="success" d="&#10;M 100.0,345.884572681&#10;A180,180 0 0 1 97.2931465162,344.290114126&#10;L 143.646573258,267.145057063&#10;A90,90 0 0 0 145.0,267.942286341&#10;Z&#10;"><title>PasteScript &#10003;</title></path><path class="success" d="&#10;M 97.2931465162,344.290114126&#10;A180,180 0 0 1 94.614532438,342.648657308&#10;L 142.307266219,266.324328654&#10;A90,90 0 0 0 143.646573258,267.145057063&#10;Z&#10;"><title>trisdb-py &#10003;</title></path><path class="success" d="&#10;M 94.614532438,342.648657308&#10;A180,180 0 0 1 91.9649736973,340.96070223&#10;L 140.982486849,265.480351115&#10;A90,90 0 0 0 142.307266219,266.324328654&#10;Z&#10;"><title>jsonpatch &#10003;</title></path><path class="success" d="&#10;M 91.9649736973,340.96070223&#10;A180,180 0 0 1 89.3452773753,339.22676306&#10;L 139.672638688,264.61338153&#10;A90,90 0 0 0 140.982486849,265.480351115&#10;Z&#10;"><title>uWSGI &#10003;</title></path><path class="success" d="&#10;M 89.3452773753,339.22676306&#10;A180,180 0 0 1 86.7562414568,337.447367972&#10;L 138.378120728,263.723683986&#10;A90,90 0 0 0 139.672638688,264.61338153&#10;Z&#10;"><title>cssselect &#10003;</title></path><path class="success" d="&#10;M 86.7562414568,337.447367972&#10;A180,180 0 0 1 84.1986545874,335.623058987&#10;L 137.099327294,262.811529494&#10;A90,90 0 0 0 138.378120728,263.723683986&#10;Z&#10;"><title>warlock &#10003;</title></path><path class="success" d="&#10;M 84.1986545874,335.623058987&#10;A180,180 0 0 1 81.6732958326,333.754391809&#10;L 135.836647916,261.877195904&#10;A90,90 0 0 0 137.099327294,262.811529494&#10;Z&#10;"><title>Tempita &#10003;</title></path><path class="success" d="&#10;M 81.6732958326,333.754391809&#10;A180,180 0 0 1 79.1809344414,331.841935649&#10;L 134.590467221,260.920967825&#10;A90,90 0 0 0 135.836647916,261.877195904&#10;Z&#10;"><title>xmltodict &#10003;</title></path><path class="success" d="&#10;M 79.1809344414,331.841935649&#10;A180,180 0 0 1 76.722329611,329.886273062&#10;L 133.361164806,259.943136531&#10;A90,90 0 0 0 134.590467221,260.920967825&#10;Z&#10;"><title>user-agents &#10003;</title></path><path class="success" d="&#10;M 76.722329611,329.886273062&#10;A180,180 0 0 1 74.2982302564,327.887999761&#10;L 132.149115128,258.943999881&#10;A90,90 0 0 0 133.361164806,259.943136531&#10;Z&#10;"><title>testscenarios &#10003;</title></path><path class="success" d="&#10;M 74.2982302564,327.887999761&#10;A180,180 0 0 1 71.9093747817,325.84772444&#10;L 130.954687391,257.92386222&#10;A90,90 0 0 0 132.149115128,258.943999881&#10;Z&#10;"><title>breadsticks &#10003;</title></path><path class="success" d="&#10;M 71.9093747817,325.84772444&#10;A180,180 0 0 1 69.5564908554,323.766068586&#10;L 129.778245428,256.883034293&#10;A90,90 0 0 0 130.954687391,257.92386222&#10;Z&#10;"><title>path.py &#10003;</title></path><path class="success" d="&#10;M 69.5564908554,323.766068586&#10;A180,180 0 0 1 67.2402951888,321.643666291&#10;L 128.620147594,255.821833146&#10;A90,90 0 0 0 129.778245428,256.883034293&#10;Z&#10;"><title>python-glanceclient &#10003;</title></path><path class="success" d="&#10;M 67.2402951888,321.643666291&#10;A180,180 0 0 1 64.9614933174,319.481164061&#10;L 127.480746659,254.74058203&#10;A90,90 0 0 0 128.620147594,255.821833146&#10;Z&#10;"><title>django-nose &#10003;</title></path><path class="success" d="&#10;M 64.9614933174,319.481164061&#10;A180,180 0 0 1 62.7207793864,317.279220614&#10;L 126.360389693,253.639610307&#10;A90,90 0 0 0 127.480746659,254.74058203&#10;Z&#10;"><title>Routes &#10003;</title></path><path class="default" d="&#10;M 62.7207793864,317.279220614&#10;A180,180 0 0 1 60.518835939,315.038506683&#10;L 125.25941797,252.519253341&#10;A90,90 0 0 0 126.360389693,253.639610307&#10;Z&#10;"><title>newrelic_plugin_agent &#10007;</title></path><path class="success" d="&#10;M 60.518835939,315.038506683&#10;A180,180 0 0 1 58.3563337085,312.759704811&#10;L 124.178166854,251.379852406&#10;A90,90 0 0 0 125.25941797,252.519253341&#10;Z&#10;"><title>pygeoip &#10003;</title></path><path class="default" d="&#10;M 58.3563337085,312.759704811&#10;A180,180 0 0 1 56.2339314141,310.443509145&#10;L 123.116965707,250.221754572&#10;A90,90 0 0 0 124.178166854,251.379852406&#10;Z&#10;"><title>python-cjson &#10007;</title></path><path class="success" d="&#10;M 56.2339314141,310.443509145&#10;A180,180 0 0 1 54.1522755599,308.090625218&#10;L 122.07613778,249.045312609&#10;A90,90 0 0 0 123.116965707,250.221754572&#10;Z&#10;"><title>dnspython &#10003;</title></path><path class="success" d="&#10;M 54.1522755599,308.090625218&#10;A180,180 0 0 1 52.1120002386,305.701769744&#10;L 121.056000119,247.850884872&#10;A90,90 0 0 0 122.07613778,249.045312609&#10;Z&#10;"><title>singledispatch &#10003;</title></path><path class="success" d="&#10;M 52.1120002386,305.701769744&#10;A180,180 0 0 1 50.1137269377,303.277670389&#10;L 120.056863469,246.638835194&#10;A90,90 0 0 0 121.056000119,247.850884872&#10;Z&#10;"><title>youtube_dl &#10003;</title></path><path class="success" d="&#10;M 50.1137269377,303.277670389&#10;A180,180 0 0 1 48.1580643508,300.819065559&#10;L 119.079032175,245.409532779&#10;A90,90 0 0 0 120.056863469,246.638835194&#10;Z&#10;"><title>pluggy &#10003;</title></path><path class="success" d="&#10;M 48.1580643508,300.819065559&#10;A180,180 0 0 1 46.2456081915,298.326704167&#10;L 118.122804096,244.163352084&#10;A90,90 0 0 0 119.079032175,245.409532779&#10;Z&#10;"><title>python-neutronclient &#10003;</title></path><path class="success" d="&#10;M 46.2456081915,298.326704167&#10;A180,180 0 0 1 44.3769410125,295.801345413&#10;L 117.188470506,242.900672706&#10;A90,90 0 0 0 118.122804096,244.163352084&#10;Z&#10;"><title>unicodecsv &#10003;</title></path><path class="success" d="&#10;M 44.3769410125,295.801345413&#10;A180,180 0 0 1 42.552632028,293.243758543&#10;L 116.276316014,241.621879272&#10;A90,90 0 0 0 117.188470506,242.900672706&#10;Z&#10;"><title>WTForms &#10003;</title></path><path class="success" d="&#10;M 42.552632028,293.243758543&#10;A180,180 0 0 1 40.7732369401,290.654722625&#10;L 115.38661847,240.327361312&#10;A90,90 0 0 0 116.276316014,241.621879272&#10;Z&#10;"><title>ua-parser &#10003;</title></path><path class="success" d="&#10;M 40.7732369401,290.654722625&#10;A180,180 0 0 1 39.0392977698,288.035026303&#10;L 114.519648885,239.017513151&#10;A90,90 0 0 0 115.38661847,240.327361312&#10;Z&#10;"><title>oslo.concurrency &#10003;</title></path><path class="success" d="&#10;M 39.0392977698,288.035026303&#10;A180,180 0 0 1 37.3513426918,285.385467562&#10;L 113.675671346,237.692733781&#10;A90,90 0 0 0 114.519648885,239.017513151&#10;Z&#10;"><title>demjson &#10003;</title></path><path class="success" d="&#10;M 37.3513426918,285.385467562&#10;A180,180 0 0 1 35.7098858736,282.706853484&#10;L 112.854942937,236.353426742&#10;A90,90 0 0 0 113.675671346,237.692733781&#10;Z&#10;"><title>hacking &#10003;</title></path><path class="success" d="&#10;M 35.7098858736,282.706853484&#10;A180,180 0 0 1 34.1154273188,280.0&#10;L 112.057713659,235.0&#10;A90,90 0 0 0 112.854942937,236.353426742&#10;Z&#10;"><title>oslo.context &#10003;</title></path><path class="success" d="&#10;M 34.1154273188,280.0&#10;A180,180 0 0 1 32.5684527149,277.265731644&#10;L 111.284226357,233.632865822&#10;A90,90 0 0 0 112.057713659,235.0&#10;Z&#10;"><title>mrjob &#10003;</title></path><path class="success" d="&#10;M 32.5684527149,277.265731644&#10;A180,180 0 0 1 31.0694332854,274.504881301&#10;L 110.534716643,232.252440651&#10;A90,90 0 0 0 111.284226357,233.632865822&#10;Z&#10;"><title>sh &#10003;</title></path><path class="success" d="&#10;M 31.0694332854,274.504881301&#10;A180,180 0 0 1 29.6188256461,271.718289953&#10;L 109.809412823,230.859144977&#10;A90,90 0 0 0 110.534716643,232.252440651&#10;Z&#10;"><title>unittest-xml-reporting &#10003;</title></path><path class="default" d="&#10;M 29.6188256461,271.718289953&#10;A180,180 0 0 1 28.2170716661,268.906806422&#10;L 109.108535833,229.453403211&#10;A90,90 0 0 0 109.809412823,230.859144977&#10;Z&#10;"><title>python-openid &#10007;</title></path><path class="success" d="&#10;M 28.2170716661,268.906806422&#10;A180,180 0 0 1 26.8645983334,266.071287113&#10;L 108.432299167,228.035643557&#10;A90,90 0 0 0 109.108535833,229.453403211&#10;Z&#10;"><title>GitPython &#10003;</title></path><path class="success" d="&#10;M 26.8645983334,266.071287113&#10;A180,180 0 0 1 25.5618176243,263.212595754&#10;L 107.780908812,226.606297877&#10;A90,90 0 0 0 108.432299167,228.035643557&#10;Z&#10;"><title>leaf &#10003;</title></path><path class="success" d="&#10;M 25.5618176243,263.212595754&#10;A180,180 0 0 1 24.3091263786,260.331603128&#10;L 107.154563189,225.165801564&#10;A90,90 0 0 0 107.780908812,226.606297877&#10;Z&#10;"><title>ipaddr &#10003;</title></path><path class="success" d="&#10;M 24.3091263786,260.331603128&#10;A180,180 0 0 1 23.106906178,257.429186815&#10;L 106.553453089,223.714593407&#10;A90,90 0 0 0 107.154563189,225.165801564&#10;Z&#10;"><title>oslo.log &#10003;</title></path><path class="success" d="&#10;M 23.106906178,257.429186815&#10;A180,180 0 0 1 21.9555232305,254.506230918&#10;L 105.977761615,222.253115459&#10;A90,90 0 0 0 106.553453089,223.714593407&#10;Z&#10;"><title>d2to1 &#10003;</title></path><path class="success" d="&#10;M 21.9555232305,254.506230918&#10;A180,180 0 0 1 20.8553282585,251.563625799&#10;L 105.427664129,220.781812899&#10;A90,90 0 0 0 105.977761615,222.253115459&#10;Z&#10;"><title>python-magic &#10003;</title></path><path class="success" d="&#10;M 20.8553282585,251.563625799&#10;A180,180 0 0 1 19.8066563921,248.602267802&#10;L 104.903328196,219.301133901&#10;A90,90 0 0 0 105.427664129,220.781812899&#10;Z&#10;"><title>amqplib &#10003;</title></path><path class="success" d="&#10;M 19.8066563921,248.602267802&#10;A180,180 0 0 1 18.8098270669,245.623058987&#10;L 104.404913533,217.811529494&#10;A90,90 0 0 0 104.903328196,219.301133901&#10;Z&#10;"><title>helper &#10003;</title></path><path class="success" d="&#10;M 18.8098270669,245.623058987&#10;A180,180 0 0 1 17.8651439267,242.62690685&#10;L 103.932571963,216.313453425&#10;A90,90 0 0 0 104.404913533,217.811529494&#10;Z&#10;"><title>zc.recipe.egg &#10003;</title></path><path class="success" d="&#10;M 17.8651439267,242.62690685&#10;A180,180 0 0 1 16.9728947311,239.614724047&#10;L 103.486447366,214.807362024&#10;A90,90 0 0 0 103.932571963,216.313453425&#10;Z&#10;"><title>kazoo &#10003;</title></path><path class="success" d="&#10;M 16.9728947311,239.614724047&#10;A180,180 0 0 1 16.133351268,236.587428118&#10;L 103.066675634,213.293714059&#10;A90,90 0 0 0 103.486447366,214.807362024&#10;Z&#10;"><title>monotonic &#10003;</title></path><path class="default" d="&#10;M 16.133351268,236.587428118&#10;A180,180 0 0 1 15.3467692703,233.545941208&#10;L 102.673384635,211.772970604&#10;A90,90 0 0 0 103.066675634,213.293714059&#10;Z&#10;"><title>M2Crypto &#10007;</title></path><path class="success" d="&#10;M 15.3467692703,233.545941208&#10;A180,180 0 0 1 14.6133883387,230.491189782&#10;L 102.306694169,210.245594891&#10;A90,90 0 0 0 102.673384635,211.772970604&#10;Z&#10;"><title>hgtools &#10003;</title></path><path class="success" d="&#10;M 14.6133883387,230.491189782&#10;A180,180 0 0 1 13.9334318679,227.424104347&#10;L 101.966715934,208.712052174&#10;A90,90 0 0 0 102.306694169,210.245594891&#10;Z&#10;"><title>rdflib &#10003;</title></path><path class="success" d="&#10;M 13.9334318679,227.424104347&#10;A180,180 0 0 1 13.3071069794,224.345619168&#10;L 101.65355349,207.172809584&#10;A90,90 0 0 0 101.966715934,208.712052174&#10;Z&#10;"><title>SPARQLWrapper &#10003;</title></path><path class="success" d="&#10;M 13.3071069794,224.345619168&#10;A180,180 0 0 1 12.7346044578,221.25667198&#10;L 101.367302229,205.62833599&#10;A90,90 0 0 0 101.65355349,207.172809584&#10;Z&#10;"><title>reportlab &#10003;</title></path><path class="success" d="&#10;M 12.7346044578,221.25667198&#10;A180,180 0 0 1 12.2160986929,218.158203707&#10;L 101.108049346,204.079101854&#10;A90,90 0 0 0 101.367302229,205.62833599&#10;Z&#10;"><title>Flask-SQLAlchemy &#10003;</title></path><path class="success" d="&#10;M 12.2160986929,218.158203707&#10;A180,180 0 0 1 11.7517476265,215.051158173&#10;L 100.875873813,202.525579086&#10;A90,90 0 0 0 101.108049346,204.079101854&#10;Z&#10;"><title>trollius &#10003;</title></path><path class="success" d="&#10;M 11.7517476265,215.051158173&#10;A180,180 0 0 1 11.3416927046,211.936481813&#10;L 100.670846352,200.968240906&#10;A90,90 0 0 0 100.875873813,202.525579086&#10;Z&#10;"><title>termcolor &#10003;</title></path><path class="success" d="&#10;M 11.3416927046,211.936481813&#10;A180,180 0 0 1 10.9860588337,208.815123388&#10;L 100.493029417,199.407561694&#10;A90,90 0 0 0 100.670846352,200.968240906&#10;Z&#10;"><title>feedparser &#10003;</title></path><path class="success" d="&#10;M 10.9860588337,208.815123388&#10;A180,180 0 0 1 10.6849543435,205.688033695&#10;L 100.342477172,197.844016847&#10;A90,90 0 0 0 100.493029417,199.407561694&#10;Z&#10;"><title>httpretty &#10003;</title></path><path class="success" d="&#10;M 10.6849543435,205.688033695&#10;A180,180 0 0 1 10.4384709532,202.556165274&#10;L 100.219235477,196.278082637&#10;A90,90 0 0 0 100.342477172,197.844016847&#10;Z&#10;"><title>argh &#10003;</title></path><path class="success" d="&#10;M 10.4384709532,202.556165274&#10;A180,180 0 0 1 10.2466837442,199.420472124&#10;L 100.123341872,194.710236062&#10;A90,90 0 0 0 100.219235477,196.278082637&#10;Z&#10;"><title>cssutils &#10003;</title></path><path class="success" d="&#10;M 10.2466837442,199.420472124&#10;A180,180 0 0 1 10.1096511366,196.281909406&#10;L 100.054825568,193.140954703&#10;A90,90 0 0 0 100.123341872,194.710236062&#10;Z&#10;"><title>qds_sdk &#10003;</title></path><path class="default" d="&#10;M 10.1096511366,196.281909406&#10;A180,180 0 0 1 10.0274148718,193.141433159&#10;L 100.013707436,191.570716579&#10;A90,90 0 0 0 100.054825568,193.140954703&#10;Z&#10;"><title>python-ldap &#10007;</title></path><path class="success" d="&#10;M 10.0274148718,193.141433159&#10;A180,180 0 0 1 10.0,190.0&#10;L 100.0,190.0&#10;A90,90 0 0 0 100.013707436,191.570716579&#10;Z&#10;"><title>PyJWT &#10003;</title></path><path class="success" d="&#10;M 10.0,190.0&#10;A180,180 0 0 1 10.0274148718,186.858566841&#10;L 100.013707436,188.429283421&#10;A90,90 0 0 0 100.0,190.0&#10;Z&#10;"><title>nosexcover &#10003;</title></path><path class="success" d="&#10;M 10.0274148718,186.858566841&#10;A180,180 0 0 1 10.1096511366,183.718090594&#10;L 100.054825568,186.859045297&#10;A90,90 0 0 0 100.013707436,188.429283421&#10;Z&#10;"><title>nltk &#10003;</title></path><path class="success" d="&#10;M 10.1096511366,183.718090594&#10;A180,180 0 0 1 10.2466837442,180.579527876&#10;L 100.123341872,185.289763938&#10;A90,90 0 0 0 100.054825568,186.859045297&#10;Z&#10;"><title>iptools &#10003;</title></path><path class="success" d="&#10;M 10.2466837442,180.579527876&#10;A180,180 0 0 1 10.4384709532,177.443834726&#10;L 100.219235477,183.721917363&#10;A90,90 0 0 0 100.123341872,185.289763938&#10;Z&#10;"><title>xlwt &#10003;</title></path><path class="success" d="&#10;M 10.4384709532,177.443834726&#10;A180,180 0 0 1 10.6849543435,174.311966305&#10;L 100.342477172,182.155983153&#10;A90,90 0 0 0 100.219235477,183.721917363&#10;Z&#10;"><title>execnet &#10003;</title></path><path class="success" d="&#10;M 10.6849543435,174.311966305&#10;A180,180 0 0 1 10.9860588337,171.184876612&#10;L 100.493029417,180.592438306&#10;A90,90 0 0 0 100.342477172,182.155983153&#10;Z&#10;"><title>django-appconf &#10003;</title></path><path class="success" d="&#10;M 10.9860588337,171.184876612&#10;A180,180 0 0 1 11.3416927046,168.063518187&#10;L 100.670846352,179.031759094&#10;A90,90 0 0 0 100.493029417,180.592438306&#10;Z&#10;"><title>gitdb &#10003;</title></path><path class="success" d="&#10;M 11.3416927046,168.063518187&#10;A180,180 0 0 1 11.7517476265,164.948841827&#10;L 100.875873813,177.474420914&#10;A90,90 0 0 0 100.670846352,179.031759094&#10;Z&#10;"><title>smmap &#10003;</title></path><path class="success" d="&#10;M 11.7517476265,164.948841827&#10;A180,180 0 0 1 12.2160986929,161.841796293&#10;L 101.108049346,175.920898146&#10;A90,90 0 0 0 100.875873813,177.474420914&#10;Z&#10;"><title>factory_boy &#10003;</title></path><path class="success" d="&#10;M 12.2160986929,161.841796293&#10;A180,180 0 0 1 12.7346044578,158.74332802&#10;L 101.367302229,174.37166401&#10;A90,90 0 0 0 101.108049346,175.920898146&#10;Z&#10;"><title>Whoosh &#10003;</title></path><path class="success" d="&#10;M 12.7346044578,158.74332802&#10;A180,180 0 0 1 13.3071069794,155.654380832&#10;L 101.65355349,172.827190416&#10;A90,90 0 0 0 101.367302229,174.37166401&#10;Z&#10;"><title>SQLObject &#10003;</title></path><path class="success" d="&#10;M 13.3071069794,155.654380832&#10;A180,180 0 0 1 13.9334318679,152.575895653&#10;L 101.966715934,171.287947826&#10;A90,90 0 0 0 101.65355349,172.827190416&#10;Z&#10;"><title>ptyprocess &#10003;</title></path><path class="success" d="&#10;M 13.9334318679,152.575895653&#10;A180,180 0 0 1 14.6133883387,149.508810218&#10;L 102.306694169,169.754405109&#10;A90,90 0 0 0 101.966715934,171.287947826&#10;Z&#10;"><title>bottle &#10003;</title></path><path class="success" d="&#10;M 14.6133883387,149.508810218&#10;A180,180 0 0 1 15.3467692703,146.454058792&#10;L 102.673384635,168.227029396&#10;A90,90 0 0 0 102.306694169,169.754405109&#10;Z&#10;"><title>traitlets &#10003;</title></path><path class="success" d="&#10;M 15.3467692703,146.454058792&#10;A180,180 0 0 1 16.133351268,143.412571882&#10;L 103.066675634,166.706285941&#10;A90,90 0 0 0 102.673384635,168.227029396&#10;Z&#10;"><title>hiredis &#10003;</title></path><path class="success" d="&#10;M 16.133351268,143.412571882&#10;A180,180 0 0 1 16.9728947311,140.385275953&#10;L 103.486447366,165.192637976&#10;A90,90 0 0 0 103.066675634,166.706285941&#10;Z&#10;"><title>importlib &#10003;</title></path><path class="success" d="&#10;M 16.9728947311,140.385275953&#10;A180,180 0 0 1 17.8651439267,137.37309315&#10;L 103.932571963,163.686546575&#10;A90,90 0 0 0 103.486447366,165.192637976&#10;Z&#10;"><title>keyring &#10003;</title></path><path class="success" d="&#10;M 17.8651439267,137.37309315&#10;A180,180 0 0 1 18.8098270669,134.376941013&#10;L 104.404913533,162.188470506&#10;A90,90 0 0 0 103.932571963,163.686546575&#10;Z&#10;"><title>dogpile.cache &#10003;</title></path><path class="success" d="&#10;M 18.8098270669,134.376941013&#10;A180,180 0 0 1 19.8066563921,131.397732198&#10;L 104.903328196,160.698866099&#10;A90,90 0 0 0 104.404913533,162.188470506&#10;Z&#10;"><title>Flask-WTF &#10003;</title></path><path class="success" d="&#10;M 19.8066563921,131.397732198&#10;A180,180 0 0 1 20.8553282585,128.436374201&#10;L 105.427664129,159.218187101&#10;A90,90 0 0 0 104.903328196,160.698866099&#10;Z&#10;"><title>pickleshare &#10003;</title></path><path class="success" d="&#10;M 20.8553282585,128.436374201&#10;A180,180 0 0 1 21.9555232305,125.493769082&#10;L 105.977761615,157.746884541&#10;A90,90 0 0 0 105.427664129,159.218187101&#10;Z&#10;"><title>FlexGet &#10003;</title></path><path class="success" d="&#10;M 21.9555232305,125.493769082&#10;A180,180 0 0 1 23.106906178,122.570813185&#10;L 106.553453089,156.285406593&#10;A90,90 0 0 0 105.977761615,157.746884541&#10;Z&#10;"><title>oslo.messaging &#10003;</title></path><path class="success" d="&#10;M 23.106906178,122.570813185&#10;A180,180 0 0 1 24.3091263786,119.668396872&#10;L 107.154563189,154.834198436&#10;A90,90 0 0 0 106.553453089,156.285406593&#10;Z&#10;"><title>django-mptt &#10003;</title></path><path class="success" d="&#10;M 24.3091263786,119.668396872&#10;A180,180 0 0 1 25.5618176243,116.787404246&#10;L 107.780908812,153.393702123&#10;A90,90 0 0 0 107.154563189,154.834198436&#10;Z&#10;"><title>dj-database-url &#10003;</title></path><path class="success" d="&#10;M 25.5618176243,116.787404246&#10;A180,180 0 0 1 26.8645983334,113.928712887&#10;L 108.432299167,151.964356443&#10;A90,90 0 0 0 107.780908812,153.393702123&#10;Z&#10;"><title>django-filter &#10003;</title></path><path class="success" d="&#10;M 26.8645983334,113.928712887&#10;A180,180 0 0 1 28.2170716661,111.093193578&#10;L 109.108535833,150.546596789&#10;A90,90 0 0 0 108.432299167,151.964356443&#10;Z&#10;"><title>ipython_genutils &#10003;</title></path><path class="success" d="&#10;M 28.2170716661,111.093193578&#10;A180,180 0 0 1 29.6188256461,108.281710047&#10;L 109.809412823,149.140855023&#10;A90,90 0 0 0 109.108535833,150.546596789&#10;Z&#10;"><title>glob2 &#10003;</title></path><path class="success" d="&#10;M 29.6188256461,108.281710047&#10;A180,180 0 0 1 31.0694332854,105.495118699&#10;L 110.534716643,147.747559349&#10;A90,90 0 0 0 109.809412823,149.140855023&#10;Z&#10;"><title>pyserial &#10003;</title></path><path class="success" d="&#10;M 31.0694332854,105.495118699&#10;A180,180 0 0 1 32.5684527149,102.734268356&#10;L 111.284226357,146.367134178&#10;A90,90 0 0 0 110.534716643,147.747559349&#10;Z&#10;"><title>django-storages &#10003;</title></path><path class="success" d="&#10;M 32.5684527149,102.734268356&#10;A180,180 0 0 1 34.1154273188,100.0&#10;L 112.057713659,145.0&#10;A90,90 0 0 0 111.284226357,146.367134178&#10;Z&#10;"><title>cx_Oracle &#10003;</title></path><path class="success" d="&#10;M 34.1154273188,100.0&#10;A180,180 0 0 1 35.7098858736,97.2931465162&#10;L 112.854942937,143.646573258&#10;A90,90 0 0 0 112.057713659,145.0&#10;Z&#10;"><title>Beaker &#10003;</title></path><path class="default" d="&#10;M 35.7098858736,97.2931465162&#10;A180,180 0 0 1 37.3513426918,94.614532438&#10;L 113.675671346,142.307266219&#10;A90,90 0 0 0 112.854942937,143.646573258&#10;Z&#10;"><title>diamond &#10007;</title></path><path class="success" d="&#10;M 37.3513426918,94.614532438&#10;A180,180 0 0 1 39.0392977698,91.9649736973&#10;L 114.519648885,140.982486849&#10;A90,90 0 0 0 113.675671346,142.307266219&#10;Z&#10;"><title>virtualenvwrapper &#10003;</title></path><path class="success" d="&#10;M 39.0392977698,91.9649736973&#10;A180,180 0 0 1 40.7732369401,89.3452773753&#10;L 115.38661847,139.672638688&#10;A90,90 0 0 0 114.519648885,140.982486849&#10;Z&#10;"><title>pyramid &#10003;</title></path><path class="success" d="&#10;M 40.7732369401,89.3452773753&#10;A180,180 0 0 1 42.552632028,86.7562414568&#10;L 116.276316014,138.378120728&#10;A90,90 0 0 0 115.38661847,139.672638688&#10;Z&#10;"><title>regex &#10003;</title></path><path class="default" d="&#10;M 42.552632028,86.7562414568&#10;A180,180 0 0 1 44.3769410125,84.1986545874&#10;L 117.188470506,137.099327294&#10;A90,90 0 0 0 116.276316014,138.378120728&#10;Z&#10;"><title>INITools &#10007;</title></path><path class="success" d="&#10;M 44.3769410125,84.1986545874&#10;A180,180 0 0 1 46.2456081915,81.6732958326&#10;L 118.122804096,135.836647916&#10;A90,90 0 0 0 117.188470506,137.099327294&#10;Z&#10;"><title>xattr &#10003;</title></path><path class="success" d="&#10;M 46.2456081915,81.6732958326&#10;A180,180 0 0 1 48.1580643508,79.1809344414&#10;L 119.079032175,134.590467221&#10;A90,90 0 0 0 118.122804096,135.836647916&#10;Z&#10;"><title>Flask-Script &#10003;</title></path><path class="success" d="&#10;M 48.1580643508,79.1809344414&#10;A180,180 0 0 1 50.1137269377,76.722329611&#10;L 120.056863469,133.361164806&#10;A90,90 0 0 0 119.079032175,134.590467221&#10;Z&#10;"><title>pyodbc &#10003;</title></path><path class="success" d="&#10;M 50.1137269377,76.722329611&#10;A180,180 0 0 1 52.1120002386,74.2982302564&#10;L 121.056000119,132.149115128&#10;A90,90 0 0 0 120.056863469,133.361164806&#10;Z&#10;"><title>oslo.db &#10003;</title></path><path class="success" d="&#10;M 52.1120002386,74.2982302564&#10;A180,180 0 0 1 54.1522755599,71.9093747817&#10;L 122.07613778,130.954687391&#10;A90,90 0 0 0 121.056000119,132.149115128&#10;Z&#10;"><title>ipdb &#10003;</title></path><path class="success" d="&#10;M 54.1522755599,71.9093747817&#10;A180,180 0 0 1 56.2339314141,69.5564908554&#10;L 123.116965707,129.778245428&#10;A90,90 0 0 0 122.07613778,130.954687391&#10;Z&#10;"><title>appdirs &#10003;</title></path><path class="success" d="&#10;M 56.2339314141,69.5564908554&#10;A180,180 0 0 1 58.3563337085,67.2402951888&#10;L 124.178166854,128.620147594&#10;A90,90 0 0 0 123.116965707,129.778245428&#10;Z&#10;"><title>Shapely &#10003;</title></path><path class="success" d="&#10;M 58.3563337085,67.2402951888&#10;A180,180 0 0 1 60.518835939,64.9614933174&#10;L 125.25941797,127.480746659&#10;A90,90 0 0 0 124.178166854,128.620147594&#10;Z&#10;"><title>python-heatclient &#10003;</title></path><path class="success" d="&#10;M 60.518835939,64.9614933174&#10;A180,180 0 0 1 62.7207793864,62.7207793864&#10;L 126.360389693,126.360389693&#10;A90,90 0 0 0 125.25941797,127.480746659&#10;Z&#10;"><title>watchdog &#10003;</title></path><path class="success" d="&#10;M 62.7207793864,62.7207793864&#10;A180,180 0 0 1 64.9614933174,60.518835939&#10;L 127.480746659,125.25941797&#10;A90,90 0 0 0 126.360389693,126.360389693&#10;Z&#10;"><title>pycadf &#10003;</title></path><path class="success" d="&#10;M 64.9614933174,60.518835939&#10;A180,180 0 0 1 67.2402951888,58.3563337085&#10;L 128.620147594,124.178166854&#10;A90,90 0 0 0 127.480746659,125.25941797&#10;Z&#10;"><title>contextlib2 &#10003;</title></path><path class="success" d="&#10;M 67.2402951888,58.3563337085&#10;A180,180 0 0 1 69.5564908554,56.2339314141&#10;L 129.778245428,123.116965707&#10;A90,90 0 0 0 128.620147594,124.178166854&#10;Z&#10;"><title>ll-xist &#10003;</title></path><path class="default" d="&#10;M 69.5564908554,56.2339314141&#10;A180,180 0 0 1 71.9093747817,54.1522755599&#10;L 130.954687391,122.07613778&#10;A90,90 0 0 0 129.778245428,123.116965707&#10;Z&#10;"><title>python-cdb &#10007;</title></path><path class="success" d="&#10;M 71.9093747817,54.1522755599&#10;A180,180 0 0 1 74.2982302564,52.1120002386&#10;L 132.149115128,121.056000119&#10;A90,90 0 0 0 130.954687391,122.07613778&#10;Z&#10;"><title>tempest-lib &#10003;</title></path><path class="success" d="&#10;M 74.2982302564,52.1120002386&#10;A180,180 0 0 1 76.722329611,50.1137269377&#10;L 133.361164806,120.056863469&#10;A90,90 0 0 0 132.149115128,121.056000119&#10;Z&#10;"><title>leaderboard &#10003;</title></path><path class="success" d="&#10;M 76.722329611,50.1137269377&#10;A180,180 0 0 1 79.1809344414,48.1580643508&#10;L 134.590467221,119.079032175&#10;A90,90 0 0 0 133.361164806,120.056863469&#10;Z&#10;"><title>virtualenv-clone &#10003;</title></path><path class="success" d="&#10;M 79.1809344414,48.1580643508&#10;A180,180 0 0 1 81.6732958326,46.2456081915&#10;L 135.836647916,118.122804096&#10;A90,90 0 0 0 134.590467221,119.079032175&#10;Z&#10;"><title>openpyxl &#10003;</title></path><path class="default" d="&#10;M 81.6732958326,46.2456081915&#10;A180,180 0 0 1 84.1986545874,44.3769410125&#10;L 137.099327294,117.188470506&#10;A90,90 0 0 0 135.836647916,118.122804096&#10;Z&#10;"><title>marionette_client &#10007;</title></path><path class="success" d="&#10;M 84.1986545874,44.3769410125&#10;A180,180 0 0 1 86.7562414568,42.552632028&#10;L 138.378120728,116.276316014&#10;A90,90 0 0 0 137.099327294,117.188470506&#10;Z&#10;"><title>pylibmc &#10003;</title></path><path class="success" d="&#10;M 86.7562414568,42.552632028&#10;A180,180 0 0 1 89.3452773753,40.7732369401&#10;L 139.672638688,115.38661847&#10;A90,90 0 0 0 138.378120728,116.276316014&#10;Z&#10;"><title>keystonemiddleware &#10003;</title></path><path class="default" d="&#10;M 89.3452773753,40.7732369401&#10;A180,180 0 0 1 91.9649736973,39.0392977698&#10;L 140.982486849,114.519648885&#10;A90,90 0 0 0 139.672638688,115.38661847&#10;Z&#10;"><title>s3cmd &#10007;</title></path><path class="success" d="&#10;M 91.9649736973,39.0392977698&#10;A180,180 0 0 1 94.614532438,37.3513426918&#10;L 142.307266219,113.675671346&#10;A90,90 0 0 0 140.982486849,114.519648885&#10;Z&#10;"><title>filechunkio &#10003;</title></path><path class="success" d="&#10;M 94.614532438,37.3513426918&#10;A180,180 0 0 1 97.2931465162,35.7098858736&#10;L 143.646573258,112.854942937&#10;A90,90 0 0 0 142.307266219,113.675671346&#10;Z&#10;"><title>Flask-Login &#10003;</title></path><path class="success" d="&#10;M 97.2931465162,35.7098858736&#10;A180,180 0 0 1 100.0,34.1154273188&#10;L 145.0,112.057713659&#10;A90,90 0 0 0 143.646573258,112.854942937&#10;Z&#10;"><title>zope.component &#10003;</title></path><path class="success" d="&#10;M 100.0,34.1154273188&#10;A180,180 0 0 1 102.734268356,32.5684527149&#10;L 146.367134178,111.284226357&#10;A90,90 0 0 0 145.0,112.057713659&#10;Z&#10;"><title>posix_ipc &#10003;</title></path><path class="success" d="&#10;M 102.734268356,32.5684527149&#10;A180,180 0 0 1 105.495118699,31.0694332854&#10;L 147.747559349,110.534716643&#10;A90,90 0 0 0 146.367134178,111.284226357&#10;Z&#10;"><title>zope.deprecation &#10003;</title></path><path class="success" d="&#10;M 105.495118699,31.0694332854&#10;A180,180 0 0 1 108.281710047,29.6188256461&#10;L 149.140855023,109.809412823&#10;A90,90 0 0 0 147.747559349,110.534716643&#10;Z&#10;"><title>future &#10003;</title></path><path class="success" d="&#10;M 108.281710047,29.6188256461&#10;A180,180 0 0 1 111.093193578,28.2170716661&#10;L 150.546596789,109.108535833&#10;A90,90 0 0 0 149.140855023,109.809412823&#10;Z&#10;"><title>logilab-astng &#10003;</title></path><path class="success" d="&#10;M 111.093193578,28.2170716661&#10;A180,180 0 0 1 113.928712887,26.8645983334&#10;L 151.964356443,108.432299167&#10;A90,90 0 0 0 150.546596789,109.108535833&#10;Z&#10;"><title>oslosphinx &#10003;</title></path><path class="success" d="&#10;M 113.928712887,26.8645983334&#10;A180,180 0 0 1 116.787404246,25.5618176243&#10;L 153.393702123,107.780908812&#10;A90,90 0 0 0 151.964356443,108.432299167&#10;Z&#10;"><title>fasteners &#10003;</title></path><path class="success" d="&#10;M 116.787404246,25.5618176243&#10;A180,180 0 0 1 119.668396872,24.3091263786&#10;L 154.834198436,107.154563189&#10;A90,90 0 0 0 153.393702123,107.780908812&#10;Z&#10;"><title>robotframework &#10003;</title></path><path class="success" d="&#10;M 119.668396872,24.3091263786&#10;A180,180 0 0 1 122.570813185,23.106906178&#10;L 156.285406593,106.553453089&#10;A90,90 0 0 0 154.834198436,107.154563189&#10;Z&#10;"><title>parse &#10003;</title></path><path class="success" d="&#10;M 122.570813185,23.106906178&#10;A180,180 0 0 1 125.493769082,21.9555232305&#10;L 157.746884541,105.977761615&#10;A90,90 0 0 0 156.285406593,106.553453089&#10;Z&#10;"><title>oslo.rootwrap &#10003;</title></path><path class="success" d="&#10;M 125.493769082,21.9555232305&#10;A180,180 0 0 1 128.436374201,20.8553282585&#10;L 159.218187101,105.427664129&#10;A90,90 0 0 0 157.746884541,105.977761615&#10;Z&#10;"><title>os-client-config &#10003;</title></path><path class="default" d="&#10;M 128.436374201,20.8553282585&#10;A180,180 0 0 1 131.397732198,19.8066563921&#10;L 160.698866099,104.903328196&#10;A90,90 0 0 0 159.218187101,105.427664129&#10;Z&#10;"><title>tendenci &#10007;</title></path><path class="success" d="&#10;M 131.397732198,19.8066563921&#10;A180,180 0 0 1 134.376941013,18.8098270669&#10;L 162.188470506,104.404913533&#10;A90,90 0 0 0 160.698866099,104.903328196&#10;Z&#10;"><title>backports_abc &#10003;</title></path><path class="success" d="&#10;M 134.376941013,18.8098270669&#10;A180,180 0 0 1 137.37309315,17.8651439267&#10;L 163.686546575,103.932571963&#10;A90,90 0 0 0 162.188470506,104.404913533&#10;Z&#10;"><title>flufl.enum &#10003;</title></path><path class="success" d="&#10;M 137.37309315,17.8651439267&#10;A180,180 0 0 1 140.385275953,16.9728947311&#10;L 165.192637976,103.486447366&#10;A90,90 0 0 0 163.686546575,103.932571963&#10;Z&#10;"><title>translationstring &#10003;</title></path><path class="success" d="&#10;M 140.385275953,16.9728947311&#10;A180,180 0 0 1 143.412571882,16.133351268&#10;L 166.706285941,103.066675634&#10;A90,90 0 0 0 165.192637976,103.486447366&#10;Z&#10;"><title>oslo.middleware &#10003;</title></path><path class="success" d="&#10;M 143.412571882,16.133351268&#10;A180,180 0 0 1 146.454058792,15.3467692703&#10;L 168.227029396,102.673384635&#10;A90,90 0 0 0 166.706285941,103.066675634&#10;Z&#10;"><title>dogpile.core &#10003;</title></path><path class="success" d="&#10;M 146.454058792,15.3467692703&#10;A180,180 0 0 1 149.508810218,14.6133883387&#10;L 169.754405109,102.306694169&#10;A90,90 0 0 0 168.227029396,102.673384635&#10;Z&#10;"><title>testresources &#10003;</title></path><path class="success" d="&#10;M 149.508810218,14.6133883387&#10;A180,180 0 0 1 152.575895653,13.9334318679&#10;L 171.287947826,101.966715934&#10;A90,90 0 0 0 169.754405109,102.306694169&#10;Z&#10;"><title>websockify &#10003;</title></path><path class="default" d="&#10;M 152.575895653,13.9334318679&#10;A180,180 0 0 1 155.654380832,13.3071069794&#10;L 172.827190416,101.65355349&#10;A90,90 0 0 0 171.287947826,101.966715934&#10;Z&#10;"><title>pathtools &#10007;</title></path><path class="success" d="&#10;M 155.654380832,13.3071069794&#10;A180,180 0 0 1 158.74332802,12.7346044578&#10;L 174.37166401,101.367302229&#10;A90,90 0 0 0 172.827190416,101.65355349&#10;Z&#10;"><title>tldextract &#10003;</title></path><path class="success" d="&#10;M 158.74332802,12.7346044578&#10;A180,180 0 0 1 161.841796293,12.2160986929&#10;L 175.920898146,101.108049346&#10;A90,90 0 0 0 174.37166401,101.367302229&#10;Z&#10;"><title>Flask-RESTful &#10003;</title></path><path class="success" d="&#10;M 161.841796293,12.2160986929&#10;A180,180 0 0 1 164.948841827,11.7517476265&#10;L 177.474420914,100.875873813&#10;A90,90 0 0 0 175.920898146,101.108049346&#10;Z&#10;"><title>testfixtures &#10003;</title></path><path class="success" d="&#10;M 164.948841827,11.7517476265&#10;A180,180 0 0 1 168.063518187,11.3416927046&#10;L 179.031759094,100.670846352&#10;A90,90 0 0 0 177.474420914,100.875873813&#10;Z&#10;"><title>rfc3986 &#10003;</title></path><path class="success" d="&#10;M 168.063518187,11.3416927046&#10;A180,180 0 0 1 171.184876612,10.9860588337&#10;L 180.592438306,100.493029417&#10;A90,90 0 0 0 179.031759094,100.670846352&#10;Z&#10;"><title>pytest-xdist &#10003;</title></path><path class="success" d="&#10;M 171.184876612,10.9860588337&#10;A180,180 0 0 1 174.311966305,10.6849543435&#10;L 182.155983153,100.342477172&#10;A90,90 0 0 0 180.592438306,100.493029417&#10;Z&#10;"><title>mox &#10003;</title></path><path class="success" d="&#10;M 174.311966305,10.6849543435&#10;A180,180 0 0 1 177.443834726,10.4384709532&#10;L 183.721917363,100.219235477&#10;A90,90 0 0 0 182.155983153,100.342477172&#10;Z&#10;"><title>phonenumbers &#10003;</title></path><path class="success" d="&#10;M 177.443834726,10.4384709532&#10;A180,180 0 0 1 180.579527876,10.2466837442&#10;L 185.289763938,100.123341872&#10;A90,90 0 0 0 183.721917363,100.219235477&#10;Z&#10;"><title>Scrapy &#10003;</title></path><path class="success" d="&#10;M 180.579527876,10.2466837442&#10;A180,180 0 0 1 183.718090594,10.1096511366&#10;L 186.859045297,100.054825568&#10;A90,90 0 0 0 185.289763938,100.123341872&#10;Z&#10;"><title>freezegun &#10003;</title></path><path class="success" d="&#10;M 183.718090594,10.1096511366&#10;A180,180 0 0 1 186.858566841,10.0274148718&#10;L 188.429283421,100.013707436&#10;A90,90 0 0 0 186.859045297,100.054825568&#10;Z&#10;"><title>venusian &#10003;</title></path><path class="success" d="&#10;M 186.858566841,10.0274148718&#10;A180,180 0 0 1 190.0,10.0&#10;L 190.0,100.0&#10;A90,90 0 0 0 188.429283421,100.013707436&#10;Z&#10;"><title>httpagentparser &#10003;</title></path><text dominant-baseline="central" fill="#333333" font-family="&quot;Helvetica Neue&quot;,Helvetica,Arial,sans-serif" font-size="40" text-anchor="middle" x="190" y="170">341</text><line stroke="#333333" stroke-width="2" x1="150" x2="230" y1="190" y2="190" /><text dominant-baseline="central" fill="#333333" font-family="&quot;Helvetica Neue&quot;,Helvetica,Arial,sans-serif" font-size="40" text-anchor="middle" x="190" y="210">360</text></svg>