<?xml version="1.0" standalone="no"?>
<?xml-stylesheet href="wheel.css" type="text/css"?>
<!DOCTYPE svg PUBLIC "-//W3C//DTD SVG 1.1//EN"
"http://www.w3.org/Graphics/SVG/1.1/DTD/svg11.dtd">
<svg version="1.1" viewBox="0 0 380 380" xmlns="http://www.w3.org/2000/svg"><path class="success" d="&#10;M 190.0,10.0&#10;A180,180 0 0 1 193.14143315871104,10.027414871849572&#10;L 191.57071657935552,100.01370743592479&#10;A90,90 0 0 0 190.0,100.0&#10;Z&#10;"><title>urllib3 &#10003;</title></path><path class="success" d="&#10;M 193.14143315871104,10.027414871849572&#10;A180,180 0 0 1 196.28190940645018,10.109651136562775&#10;L 193.1409547032251,100.05482556828139&#10;A90,90 0 0 0 191.57071657935552,100.01370743592479&#10;Z&#10;"><title>pip &#10003;</title></path><path class="success" d="&#10;M 196.28190940645018,10.109651136562775&#10;A180,180 0 0 1 199.42047212372992,10.246683744176721&#10;L 194.71023606186495,100.12334187208836&#10;A90,90 0 0 0 193.1409547032251,100.05482556828139&#10;Z&#10;"><title>six &#10003;</title></path><path class="success" d="&#10;M 199.42047212372992,10.246683744176721&#10;A180,180 0 0 1 202.55616527394258,10.438470953231644&#10;L 196.2780826369713,100.21923547661582&#10;A90,90 0 0 0 194.71023606186495,100.12334187208836&#10;Z&#10;"><title>botocore &#10003;</title></path><path class="success" d="&#10;M 202.55616527394258,10.438470953231644&#10;A180,180 0 0 1 205.68803369457845,10.6849543434858&#10;L 197.84401684728923,100.3424771717429&#10;A90,90 0 0 0 196.2780826369713,100.21923547661582&#10;Z&#10;"><title>python-dateutil &#10003;</title></path><path class="success" d="&#10;M 205.68803369457845,10.6849543434858&#10;A180,180 0 0 1 208.81512338817762,10.986058833710814&#10;L 199.4075616940888,100.4930294168554&#10;A90,90 0 0 0 197.84401684728923,100.3424771717429&#10;Z&#10;"><title>s3transfer &#10003;</title></path><path class="success" d="&#10;M 208.81512338817762,10.986058833710814&#10;A180,180 0 0 1 211.93648181292656,11.341692704562035&#10;L 200.96824090646328,100.67084635228102&#10;A90,90 0 0 0 199.4075616940888,100.4930294168554&#10;Z&#10;"><title>requests &#10003;</title></path><path class="success" d="&#10;M 211.93648181292656,11.341692704562035&#10;A180,180 0 0 1 215.0511581728118,11.751747626517329&#10;L 202.52557908640588,100.87587381325866&#10;A90,90 0 0 0 200.96824090646328,100.67084635228102&#10;Z&#10;"><title>pyyaml &#10003;</title></path><path class="success" d="&#10;M 215.0511581728118,11.751747626517329&#10;A180,180 0 0 1 218.15820370724157,12.216098692875192&#10;L 204.07910185362078,101.1080493464376&#10;A90,90 0 0 0 202.52557908640588,100.87587381325866&#10;Z&#10;"><title>pyasn1 &#10003;</title></path><path class="success" d="&#10;M 218.15820370724157,12.216098692875192&#10;A180,180 0 0 1 221.25667198004749,12.734604457802561&#10;L 205.62833599002374,101.36730222890128&#10;A90,90 0 0 0 204.07910185362078,101.1080493464376&#10;Z&#10;"><title>docutils &#10003;</title></path><path class="success" d="&#10;M 221.25667198004749,12.734604457802561&#10;A180,180 0 0 1 224.34561916777807,13.307106979420496&#10;L 207.17280958388903,101.65355348971025&#10;A90,90 0 0 0 205.62833599002374,101.36730222890128&#10;Z&#10;"><title>certifi &#10003;</title></path><path class="success" d="&#10;M 224.34561916777807,13.307106979420496&#10;A180,180 0 0 1 227.4241043471967,13.933431867915004&#10;L 208.71205217359835,101.9667159339575&#10;A90,90 0 0 0 207.17280958388903,101.65355348971025&#10;Z&#10;"><title>jmespath &#10003;</title></path><path class="success" d="&#10;M 227.4241043471967,13.933431867915004&#10;A180,180 0 0 1 230.49118978189574,14.613388338657643&#10;L 210.24559489094787,102.30669416932882&#10;A90,90 0 0 0 208.71205217359835,101.9667159339575&#10;Z&#10;"><title>idna &#10003;</title></path><path class="success" d="&#10;M 230.49118978189574,14.613388338657643&#10;A180,180 0 0 1 233.5459412079402,15.346769270320635&#10;L 211.7729706039701,102.67338463516032&#10;A90,90 0 0 0 210.24559489094787,102.30669416932882&#10;Z&#10;"><title>rsa &#10003;</title></path><path class="success" d="&#10;M 233.5459412079402,15.346769270320635&#10;A180,180 0 0 1 236.58742811845372,16.133351267967697&#10;L 213.29371405922686,103.06667563398385&#10;A90,90 0 0 0 211.7729706039701,102.67338463516032&#10;Z&#10;"><title>chardet &#10003;</title></path><path class="success" d="&#10;M 236.58742811845372,16.133351267967697&#10;A180,180 0 0 1 239.61472404705984,16.9728947311026&#10;L 214.80736202352992,103.4864473655513&#10;A90,90 0 0 0 213.29371405922686,103.06667563398385&#10;Z&#10;"><title>awscli &#10003;</title></path><path class="success" d="&#10;M 239.61472404705984,16.9728947311026&#10;A180,180 0 0 1 242.6269068500926,17.865143926653616&#10;L 216.3134534250463,103.93257196332681&#10;A90,90 0 0 0 214.80736202352992,103.4864473655513&#10;Z&#10;"><title>setuptools &#10003;</title></path><path class="success" d="&#10;M 242.6269068500926,17.865143926653616&#10;A180,180 0 0 1 245.62305898749054,18.809827066872373&#10;L 217.81152949374527,104.40491353343619&#10;A90,90 0 0 0 216.3134534250463,103.93257196332681&#10;Z&#10;"><title>futures &#10003;</title></path><path class="success" d="&#10;M 245.62305898749054,18.809827066872373&#10;A180,180 0 0 1 248.60226780228822,19.80665639212299&#10;L 219.3011339011441,104.9033281960615&#10;A90,90 0 0 0 217.81152949374527,104.40491353343619&#10;Z&#10;"><title>colorama &#10003;</title></path><path class="success" d="&#10;M 248.60226780228822,19.80665639212299&#10;A180,180 0 0 1 251.5636257986204,20.855328258536503&#10;L 220.78181289931018,105.42766412926825&#10;A90,90 0 0 0 219.3011339011441,104.9033281960615&#10;Z&#10;"><title>simplejson &#10003;</title></path><path class="success" d="&#10;M 251.5636257986204,20.855328258536503&#10;A180,180 0 0 1 254.50623091815407,21.955523230503672&#10;L 222.25311545907704,105.97776161525184&#10;A90,90 0 0 0 220.78181289931018,105.42766412926825&#10;Z&#10;"><title>wheel &#10003;</title></path><path class="success" d="&#10;M 254.50623091815407,21.955523230503672&#10;A180,180 0 0 1 257.4291868148642,23.10690617797829&#10;L 223.7145934074321,106.55345308898914&#10;A90,90 0 0 0 222.25311545907704,105.97776161525184&#10;Z&#10;"><title>pytz &#10003;</title></path><path class="success" d="&#10;M 257.4291868148642,23.10690617797829&#10;A180,180 0 0 1 260.3316031280693,24.309126378560734&#10;L 225.16580156403464,107.15456318928037&#10;A90,90 0 0 0 223.7145934074321,106.55345308898914&#10;Z&#10;"><title>boto3 &#10003;</title></path><path class="success" d="&#10;M 260.3316031280693,24.309126378560734&#10;A180,180 0 0 1 263.212595753644,25.561817624331837&#10;L 226.606297876822,107.78090881216592&#10;A90,90 0 0 0 225.16580156403464,107.15456318928037&#10;Z&#10;"><title>markupsafe &#10003;</title></path><path class="success" d="&#10;M 263.212595753644,25.561817624331837&#10;A180,180 0 0 1 266.07128711332587,26.864598333403023&#10;L 228.03564355666293,108.43229916670151&#10;A90,90 0 0 0 226.606297876822,107.78090881216592&#10;Z&#10;"><title>numpy &#10003;</title></path><path class="success" d="&#10;M 266.07128711332587,26.864598333403023&#10;A180,180 0 0 1 268.9068064220339,28.217071666149934&#10;L 229.45340321101696,109.10853583307497&#10;A90,90 0 0 0 228.03564355666293,108.43229916670151&#10;Z&#10;"><title>cffi &#10003;</title></path><path class="success" d="&#10;M 268.9068064220339,28.217071666149934&#10;A180,180 0 0 1 271.7182899531184,29.618825646093796&#10;L 230.8591449765592,109.8094128230469&#10;A90,90 0 0 0 229.45340321101696,109.10853583307497&#10;Z&#10;"><title>protobuf &#10003;</title></path><path class="success" d="&#10;M 271.7182899531184,29.618825646093796&#10;A180,180 0 0 1 274.5048813014604,31.06943328539316&#10;L 232.2524406507302,110.53471664269658&#10;A90,90 0 0 0 230.8591449765592,109.8094128230469&#10;Z&#10;"><title>cryptography &#10003;</title></path><path class="success" d="&#10;M 274.5048813014604,31.06943328539316&#10;A180,180 0 0 1 277.2657316443407,32.56845271490877&#10;L 233.63286582217034,111.28422635745439&#10;A90,90 0 0 0 232.2524406507302,110.53471664269658&#10;Z&#10;"><title>jinja2 &#10003;</title></path><path class="success" d="&#10;M 277.2657316443407,32.56845271490877&#10;A180,180 0 0 1 280.0,34.11542731880104&#10;L 235.0,112.05771365940052&#10;A90,90 0 0 0 233.63286582217034,111.28422635745439&#10;Z&#10;"><title>enum34 &#10003;</title></path><path class="success" d="&#10;M 280.0,34.11542731880104&#10;A180,180 0 0 1 282.7068534838098,35.70988587361981&#10;L 236.3534267419049,112.8549429368099&#10;A90,90 0 0 0 235.0,112.05771365940052&#10;Z&#10;"><title>awscli-cwlogs &#10003;</title></path><path class="success" d="&#10;M 282.7068534838098,35.70988587361981&#10;A180,180 0 0 1 285.3854675619769,37.351342691843314&#10;L 237.69273378098845,113.67567134592166&#10;A90,90 0 0 0 236.3534267419049,112.8549429368099&#10;Z&#10;"><title>pyasn1-modules &#10003;</title></path><path class="success" d="&#10;M 285.3854675619769,37.351342691843314&#10;A180,180 0 0 1 288.03502630270486,39.03929776982369&#10;L 239.01751315135243,114.51964888491185&#10;A90,90 0 0 0 237.69273378098845,113.67567134592166&#10;Z&#10;"><title>pycparser &#10003;</title></path><path class="success" d="&#10;M 288.03502630270486,39.03929776982369&#10;A180,180 0 0 1 290.65472262473446,40.77323694009252&#10;L 240.32736131236723,115.38661847004626&#10;A90,90 0 0 0 239.01751315135243,114.51964888491185&#10;Z&#10;"><title>attrs &#10003;</title></path><path class="success" d="&#10;M 290.65472262473446,40.77323694009252&#10;A180,180 0 0 1 293.2437585431883,42.5526320279815&#10;L 241.62187927159414,116.27631601399075&#10;A90,90 0 0 0 240.32736131236723,115.38661847004626&#10;Z&#10;"><title>asn1crypto &#10003;</title></path><path class="success" d="&#10;M 293.2437585431883,42.5526320279815&#10;A180,180 0 0 1 295.8013454126452,44.37694101250949&#10;L 242.9006727063226,117.18847050625475&#10;A90,90 0 0 0 241.62187927159414,116.27631601399075&#10;Z&#10;"><title>click &#10003;</title></path><path class="success" d="&#10;M 295.8013454126452,44.37694101250949&#10;A180,180 0 0 1 298.3267041673687,46.24560819148729&#10;L 244.16335208368434,118.12280409574365&#10;A90,90 0 0 0 242.9006727063226,117.18847050625475&#10;Z&#10;"><title>google-api-core &#10003;</title></path><path class="success" d="&#10;M 298.3267041673687,46.24560819148729&#10;A180,180 0 0 1 300.8190655586185,48.158064350790056&#10;L 245.40953277930925,119.07903217539503&#10;A90,90 0 0 0 244.16335208368434,118.12280409574365&#10;Z&#10;"><title>pytest &#10003;</title></path><path class="success" d="&#10;M 300.8190655586185,48.158064350790056&#10;A180,180 0 0 1 303.27767038897076,50.11372693774527&#10;L 246.63883519448538,120.05686346887263&#10;A90,90 0 0 0 245.40953277930925,119.07903217539503&#10;Z&#10;"><title>future &#10003;</title></path><path class="success" d="&#10;M 303.27767038897076,50.11372693774527&#10;A180,180 0 0 1 305.7017697435771,52.11200023858396&#10;L 247.85088487178854,121.05600011929198&#10;A90,90 0 0 0 246.63883519448538,120.05686346887263&#10;Z&#10;"><title>pandas &#10003;</title></path><path class="success" d="&#10;M 305.7017697435771,52.11200023858396&#10;A180,180 0 0 1 308.0906252182913,54.15227555990103&#10;L 249.04531260914564,122.07613777995051&#10;A90,90 0 0 0 247.85088487178854,121.05600011929198&#10;Z&#10;"><title>cachetools &#10003;</title></path><path class="success" d="&#10;M 308.0906252182913,54.15227555990103&#10;A180,180 0 0 1 310.4435091445945,56.23393141406905&#10;L 250.22175457229724,123.11696570703452&#10;A90,90 0 0 0 249.04531260914564,122.07613777995051&#10;Z&#10;"><title>ipaddress &#10003;</title></path><path class="success" d="&#10;M 310.4435091445945,56.23393141406905&#10;A180,180 0 0 1 312.7597048112497,58.35633370854933&#10;L 251.37985240562486,124.17816685427466&#10;A90,90 0 0 0 250.22175457229724,123.11696570703452&#10;Z&#10;"><title>werkzeug &#10003;</title></path><path class="success" d="&#10;M 312.7597048112497,58.35633370854933&#10;A180,180 0 0 1 315.0385066826195,60.518835939042816&#10;L 252.51925334130976,125.25941796952141&#10;A90,90 0 0 0 251.37985240562486,124.17816685427466&#10;Z&#10;"><title>grpcio &#10003;</title></path><path class="success" d="&#10;M 315.0385066826195,60.518835939042816&#10;A180,180 0 0 1 317.27922061357856,62.720779386421455&#10;L 253.63961030678928,126.36038969321072&#10;A90,90 0 0 0 252.51925334130976,125.25941796952141&#10;Z&#10;"><title>decorator &#10003;</title></path><path class="success" d="&#10;M 317.27922061357856,62.720779386421455&#10;A180,180 0 0 1 319.4811640609572,64.96149331738047&#10;L 254.7405820304786,127.48074665869024&#10;A90,90 0 0 0 253.63961030678928,126.36038969321072&#10;Z&#10;"><title>google-cloud-core &#10003;</title></path><path class="success" d="&#10;M 319.4811640609572,64.96149331738047&#10;A180,180 0 0 1 321.6436662914507,67.24029518875028&#10;L 255.82183314572535,128.62014759437514&#10;A90,90 0 0 0 254.7405820304786,127.48074665869024&#10;Z&#10;"><title>google-auth &#10003;</title></path><path class="success" d="&#10;M 321.6436662914507,67.24029518875028&#10;A180,180 0 0 1 323.76606858593095,69.55649085540551&#10;L 256.8830342929655,129.77824542770276&#10;A90,90 0 0 0 255.82183314572535,128.62014759437514&#10;Z&#10;"><title>pyparsing &#10003;</title></path><path class="success" d="&#10;M 323.76606858593095,69.55649085540551&#10;A180,180 0 0 1 325.847724440099,71.90937478170869&#10;L 257.9238622200495,130.95468739085436&#10;A90,90 0 0 0 256.8830342929655,129.77824542770276&#10;Z&#10;"><title>flask &#10003;</title></path><path class="success" d="&#10;M 325.847724440099,71.90937478170869&#10;A180,180 0 0 1 327.88799976141604,74.29823025642294&#10;L 258.943999880708,132.14911512821146&#10;A90,90 0 0 0 257.9238622200495,130.95468739085436&#10;Z&#10;"><title>itsdangerous &#10003;</title></path><path class="success" d="&#10;M 327.88799976141604,74.29823025642294&#10;A180,180 0 0 1 329.88627306225476,76.72232961102925&#10;L 259.9431365311274,133.36116480551462&#10;A90,90 0 0 0 258.943999880708,132.14911512821146&#10;Z&#10;"><title>pbr &#10003;</title></path><path class="success" d="&#10;M 329.88627306225476,76.72232961102925&#10;A180,180 0 0 1 331.84193564921,79.18093444138152&#10;L 260.920967824605,134.59046722069075&#10;A90,90 0 0 0 259.9431365311274,133.36116480551462&#10;Z&#10;"><title>psutil &#10003;</title></path><path class="success" d="&#10;M 331.84193564921,79.18093444138152&#10;A180,180 0 0 1 333.7543918085127,81.67329583263131&#10;L 261.8771959042564,135.83664791631566&#10;A90,90 0 0 0 260.920967824605,134.59046722069075&#10;Z&#10;"><title>virtualenv &#10003;</title></path><path class="success" d="&#10;M 333.7543918085127,81.67329583263131&#10;A180,180 0 0 1 335.62305898749054,84.19865458735484&#10;L 262.8115294937453,137.09932729367742&#10;A90,90 0 0 0 261.8771959042564,135.83664791631566&#10;Z&#10;"><title>pluggy &#10003;</title></path><path class="success" d="&#10;M 335.62305898749054,84.19865458735484&#10;A180,180 0 0 1 337.4473679720185,86.75624145681171&#10;L 263.7236839860093,138.37812072840586&#10;A90,90 0 0 0 262.8115294937453,137.09932729367742&#10;Z&#10;"><title>scipy &#10003;</title></path><path class="success" d="&#10;M 337.4473679720185,86.75624145681171&#10;A180,180 0 0 1 339.2267630599075,89.34527737526558&#10;L 264.61338152995376,139.6726386876328&#10;A90,90 0 0 0 263.7236839860093,138.37812072840586&#10;Z&#10;"><title>googleapis-common-protos &#10003;</title></path><path class="success" d="&#10;M 339.2267630599075,89.34527737526558&#10;A180,180 0 0 1 340.96070223017637,91.96497369729512&#10;L 265.4803511150882,140.98248684864757&#10;A90,90 0 0 0 264.61338152995376,139.6726386876328&#10;Z&#10;"><title>py &#10003;</title></path><path class="success" d="&#10;M 340.96070223017637,91.96497369729512&#10;A180,180 0 0 1 342.64865730815666,94.61453243802312&#10;L 266.32432865407833,142.30726621901155&#10;A90,90 0 0 0 265.4803511150882,140.98248684864757&#10;Z&#10;"><title>coverage &#10003;</title></path><path class="success" d="&#10;M 342.64865730815666,94.61453243802312&#10;A180,180 0 0 1 344.2901141263802,97.29314651619023&#10;L 267.1450570631901,143.64657325809512&#10;A90,90 0 0 0 266.32432865407833,142.30726621901155&#10;Z&#10;"><title>mock &#10003;</title></path><path class="success" d="&#10;M 344.2901141263802,97.29314651619023&#10;A180,180 0 0 1 345.88457268119896,100.0&#10;L 267.9422863405995,145.0&#10;A90,90 0 0 0 267.1450570631901,143.64657325809512&#10;Z&#10;"><title>scikit-learn &#10003;</title></path><path class="success" d="&#10;M 345.88457268119896,100.0&#10;A180,180 0 0 1 347.43154728509126,102.73426835565932&#10;L 268.7157736425456,146.36713417782966&#10;A90,90 0 0 0 267.9422863405995,145.0&#10;Z&#10;"><title>pyopenssl &#10003;</title></path><path class="success" d="&#10;M 347.43154728509126,102.73426835565932&#10;A180,180 0 0 1 348.93056671460687,105.49511869853966&#10;L 269.4652833573034,147.74755934926984&#10;A90,90 0 0 0 268.7157736425456,146.36713417782966&#10;Z&#10;"><title>boto &#10003;</title></path><path class="success" d="&#10;M 348.93056671460687,105.49511869853966&#10;A180,180 0 0 1 350.3811743539062,108.28171004688159&#10;L 270.1905871769531,149.1408550234408&#10;A90,90 0 0 0 269.4652833573034,147.74755934926984&#10;Z&#10;"><title>jsonschema &#10003;</title></path><path class="success" d="&#10;M 350.3811743539062,108.28171004688159&#10;A180,180 0 0 1 351.78292833385007,111.09319357796606&#10;L 270.89146416692506,150.54659678898304&#10;A90,90 0 0 0 270.1905871769531,149.1408550234408&#10;Z&#10;"><title>more-itertools &#10003;</title></path><path class="success" d="&#10;M 351.78292833385007,111.09319357796606&#10;A180,180 0 0 1 353.135401666597,113.9287128866741&#10;L 271.5677008332985,151.96435644333707&#10;A90,90 0 0 0 270.89146416692506,150.54659678898304&#10;Z&#10;"><title>pygments &#10003;</title></path><path class="success" d="&#10;M 353.135401666597,113.9287128866741&#10;A180,180 0 0 1 354.43818237566813,116.78740424635598&#10;L 272.21909118783407,153.393702123178&#10;A90,90 0 0 0 271.5677008332985,151.96435644333707&#10;Z&#10;"><title>websocket-client &#10003;</title></path><path class="success" d="&#10;M 354.43818237566813,116.78740424635598&#10;A180,180 0 0 1 355.6908736214392,119.6683968719307&#10;L 272.8454368107196,154.83419843596533&#10;A90,90 0 0 0 272.21909118783407,153.393702123178&#10;Z&#10;"><title>oauthlib &#10003;</title></path><path class="success" d="&#10;M 355.6908736214392,119.6683968719307&#10;A180,180 0 0 1 356.89309382202174,122.57081318513586&#10;L 273.44654691101084,156.28540659256794&#10;A90,90 0 0 0 272.8454368107196,154.83419843596533&#10;Z&#10;"><title>argparse &#10003;</title></path><path class="success" d="&#10;M 356.89309382202174,122.57081318513586&#10;A180,180 0 0 1 358.0444767694963,125.49376908184594&#10;L 274.02223838474816,157.74688454092296&#10;A90,90 0 0 0 273.44654691101084,156.28540659256794&#10;Z&#10;"><title>matplotlib &#10003;</title></path><path class="success" d="&#10;M 358.0444767694963,125.49376908184594&#10;A180,180 0 0 1 359.1446717414635,128.43637420137964&#10;L 274.57233587073176,159.21818710068982&#10;A90,90 0 0 0 274.02223838474816,157.74688454092296&#10;Z&#10;"><title>pillow &#10003;</title></path><path class="success" d="&#10;M 359.1446717414635,128.43637420137964&#10;A180,180 0 0 1 360.19334360787707,131.3977321977118&#10;L 275.09667180393853,160.6988660988559&#10;A90,90 0 0 0 274.57233587073176,159.21818710068982&#10;Z&#10;"><title>multidict &#10003;</title></path><path class="success" d="&#10;M 360.19334360787707,131.3977321977118&#10;A180,180 0 0 1 361.19017293312766,134.37694101250946&#10;L 275.5950864665638,162.18847050625473&#10;A90,90 0 0 0 275.09667180393853,160.6988660988559&#10;Z&#10;"><title>httplib2 &#10003;</title></path><path class="success" d="&#10;M 361.19017293312766,134.37694101250946&#10;A180,180 0 0 1 362.1348560733464,137.3730931499074&#10;L 276.06742803667316,163.6865465749537&#10;A90,90 0 0 0 275.5950864665638,162.18847050625473&#10;Z&#10;"><title>pyjwt &#10003;</title></path><path class="success" d="&#10;M 362.1348560733464,137.3730931499074&#10;A180,180 0 0 1 363.0271052688974,140.38527595294016&#10;L 276.51355263444873,165.19263797647008&#10;A90,90 0 0 0 276.06742803667316,163.6865465749537&#10;Z&#10;"><title>prompt-toolkit &#10003;</title></path><path class="success" d="&#10;M 363.0271052688974,140.38527595294016&#10;A180,180 0 0 1 363.86664873203233,143.41257188154628&#10;L 276.93332436601617,166.70628594077314&#10;A90,90 0 0 0 276.51355263444873,165.19263797647008&#10;Z&#10;"><title>ipython &#10003;</title></path><path class="success" d="&#10;M 363.86664873203233,143.41257188154628&#10;A180,180 0 0 1 364.65323072967936,146.45405879205978&#10;L 277.32661536483965,168.2270293960299&#10;A90,90 0 0 0 276.93332436601617,166.70628594077314&#10;Z&#10;"><title>requests-oauthlib &#10003;</title></path><path class="success" d="&#10;M 364.65323072967936,146.45405879205978&#10;A180,180 0 0 1 365.3866116613424,149.50881021810432&#10;L 277.6933058306712,169.75440510905216&#10;A90,90 0 0 0 277.32661536483965,168.2270293960299&#10;Z&#10;"><title>psycopg2 &#10003;</title></path><path class="success" d="&#10;M 365.3866116613424,149.50881021810432&#10;A180,180 0 0 1 366.06656813208497,152.5758956528033&#10;L 278.0332840660425,171.28794782640165&#10;A90,90 0 0 0 277.6933058306712,169.75440510905216&#10;Z&#10;"><title>google-api-python-client &#10003;</title></path><path class="success" d="&#10;M 366.06656813208497,152.5758956528033&#10;A180,180 0 0 1 366.6928930205795,155.65438083222193&#10;L 278.34644651028975,172.82719041611097&#10;A90,90 0 0 0 278.0332840660425,171.28794782640165&#10;Z&#10;"><title>docker &#10003;</title></path><path class="success" d="&#10;M 366.6928930205795,155.65438083222193&#10;A180,180 0 0 1 367.26539554219744,158.74332801995254&#10;L 278.6326977710987,174.37166400997626&#10;A90,90 0 0 0 278.34644651028975,172.82719041611097&#10;Z&#10;"><title>oauth2client &#10003;</title></path><path class="success" d="&#10;M 367.26539554219744,158.74332801995254&#10;A180,180 0 0 1 367.7839013071248,161.84179629275843&#10;L 278.8919506535624,175.92089814637922&#10;A90,90 0 0 0 278.6326977710987,174.37166400997626&#10;Z&#10;"><title>google-cloud-storage &#10003;</title></path><path class="success" d="&#10;M 367.7839013071248,161.84179629275843&#10;A180,180 0 0 1 368.2482523734826,164.94884182718818&#10;L 279.1241261867413,177.4744209135941&#10;A90,90 0 0 0 278.8919506535624,175.92089814637922&#10;Z&#10;"><title>lxml &#10003;</title></path><path class="success" d="&#10;M 368.2482523734826,164.94884182718818&#10;A180,180 0 0 1 368.65830729543796,168.06351818707347&#10;L 279.32915364771895,179.03175909353672&#10;A90,90 0 0 0 279.1241261867413,177.4744209135941&#10;Z&#10;"><title>paramiko &#10003;</title></path><path class="success" d="&#10;M 368.65830729543796,168.06351818707347&#10;A180,180 0 0 1 369.0139411662892,171.1848766118224&#10;L 279.5069705831446,180.5924383059112&#10;A90,90 0 0 0 279.32915364771895,179.03175909353672&#10;Z&#10;"><title>wrapt &#10003;</title></path><path class="success" d="&#10;M 369.0139411662892,171.1848766118224&#10;A180,180 0 0 1 369.3150456565142,174.31196630542155&#10;L 279.65752282825713,182.15598315271077&#10;A90,90 0 0 0 279.5069705831446,180.5924383059112&#10;Z&#10;"><title>tornado &#10003;</title></path><path class="success" d="&#10;M 369.3150456565142,174.31196630542155&#10;A180,180 0 0 1 369.5615290467683,177.44383472605742&#10;L 279.78076452338416,183.72191736302872&#10;A90,90 0 0 0 279.65752282825713,182.15598315271077&#10;Z&#10;"><title>google-resumable-media &#10003;</title></path><path class="success" d="&#10;M 369.5615290467683,177.44383472605742&#10;A180,180 0 0 1 369.7533162558233,180.5795278762701&#10;L 279.87665812791164,185.28976393813505&#10;A90,90 0 0 0 279.78076452338416,183.72191736302872&#10;Z&#10;"><title>aiohttp &#10003;</title></path><path class="success" d="&#10;M 369.7533162558233,180.5795278762701&#10;A180,180 0 0 1 369.8903488634372,183.71809059354982&#10;L 279.9451744317186,186.8590452967749&#10;A90,90 0 0 0 279.87665812791164,185.28976393813505&#10;Z&#10;"><title>funcsigs &#10003;</title></path><path class="success" d="&#10;M 369.8903488634372,183.71809059354982&#10;A180,180 0 0 1 369.9725851281504,186.858566841289&#10;L 279.9862925640752,188.4292834206445&#10;A90,90 0 0 0 279.9451744317186,186.8590452967749&#10;Z&#10;"><title>docopt &#10003;</title></path><path class="success" d="&#10;M 369.9725851281504,186.858566841289&#10;A180,180 0 0 1 370.0,190.0&#10;L 280.0,190.0&#10;A90,90 0 0 0 279.9862925640752,188.4292834206445&#10;Z&#10;"><title>mccabe &#10003;</title></path><path class="success" d="&#10;M 370.0,190.0&#10;A180,180 0 0 1 369.9725851281504,193.14143315871104&#10;L 279.9862925640752,191.57071657935552&#10;A90,90 0 0 0 280.0,190.0&#10;Z&#10;"><title>atomicwrites &#10003;</title></path><path class="success" d="&#10;M 369.9725851281504,193.14143315871104&#10;A180,180 0 0 1 369.8903488634372,196.28190940645015&#10;L 279.9451744317186,193.14095470322508&#10;A90,90 0 0 0 279.9862925640752,191.57071657935552&#10;Z&#10;"><title>sqlalchemy &#10003;</title></path><path class="success" d="&#10;M 369.8903488634372,196.28190940645015&#10;A180,180 0 0 1 369.7533162558233,199.42047212372987&#10;L 279.87665812791164,194.71023606186492&#10;A90,90 0 0 0 279.9451744317186,193.14095470322508&#10;Z&#10;"><title>wcwidth &#10003;</title></path><path class="success" d="&#10;M 369.7533162558233,199.42047212372987&#10;A180,180 0 0 1 369.5615290467683,202.55616527394258&#10;L 279.78076452338416,196.27808263697128&#10;A90,90 0 0 0 279.87665812791164,194.71023606186492&#10;Z&#10;"><title>bcrypt &#10003;</title></path><path class="success" d="&#10;M 369.5615290467683,202.55616527394258&#10;A180,180 0 0 1 369.3150456565142,205.68803369457848&#10;L 279.65752282825713,197.84401684728925&#10;A90,90 0 0 0 279.78076452338416,196.27808263697128&#10;Z&#10;"><title>markdown &#10003;</title></path><path class="success" d="&#10;M 369.3150456565142,205.68803369457848&#10;A180,180 0 0 1 369.0139411662892,208.8151233881776&#10;L 279.5069705831446,199.4075616940888&#10;A90,90 0 0 0 279.65752282825713,197.84401684728925&#10;Z&#10;"><title>tqdm &#10003;</title></path><path class="success" d="&#10;M 369.0139411662892,208.8151233881776&#10;A180,180 0 0 1 368.65830729543796,211.93648181292653&#10;L 279.32915364771895,200.96824090646328&#10;A90,90 0 0 0 279.5069705831446,199.4075616940888&#10;Z&#10;"><title>docker-pycreds &#10003;</title></path><path class="success" d="&#10;M 368.65830729543796,211.93648181292653&#10;A180,180 0 0 1 368.24825237348267,215.05115817281177&#10;L 279.12412618674136,202.52557908640588&#10;A90,90 0 0 0 279.32915364771895,200.96824090646328&#10;Z&#10;"><title>backports-functools-lru-cache &#10003;</title></path><path class="success" d="&#10;M 368.24825237348267,215.05115817281177&#10;A180,180 0 0 1 367.7839013071248,218.1582037072416&#10;L 278.8919506535624,204.07910185362078&#10;A90,90 0 0 0 279.12412618674136,202.52557908640588&#10;Z&#10;"><title>uritemplate &#10003;</title></path><path class="success" d="&#10;M 367.7839013071248,218.1582037072416&#10;A180,180 0 0 1 367.26539554219744,221.25667198004746&#10;L 278.6326977710987,205.62833599002374&#10;A90,90 0 0 0 278.8919506535624,204.07910185362078&#10;Z&#10;"><title>google-cloud-bigquery &#10003;</title></path><path class="success" d="&#10;M 367.26539554219744,221.25667198004746&#10;A180,180 0 0 1 366.6928930205795,224.34561916777807&#10;L 278.34644651028975,207.17280958388903&#10;A90,90 0 0 0 278.6326977710987,205.62833599002374&#10;Z&#10;"><title>pynacl &#10003;</title></path><path class="success" d="&#10;M 366.6928930205795,224.34561916777807&#10;A180,180 0 0 1 366.066568132085,227.42410434719665&#10;L 278.0332840660425,208.71205217359832&#10;A90,90 0 0 0 278.34644651028975,207.17280958388903&#10;Z&#10;"><title>ptyprocess &#10003;</title></path><path class="success" d="&#10;M 366.066568132085,227.42410434719665&#10;A180,180 0 0 1 365.3866116613424,230.49118978189568&#10;L 277.6933058306712,210.24559489094784&#10;A90,90 0 0 0 278.0332840660425,208.71205217359832&#10;Z&#10;"><title>pycodestyle &#10003;</title></path><path class="success" d="&#10;M 365.3866116613424,230.49118978189568&#10;A180,180 0 0 1 364.65323072967936,233.54594120794022&#10;L 277.32661536483965,211.7729706039701&#10;A90,90 0 0 0 277.6933058306712,210.24559489094784&#10;Z&#10;"><title>pexpect &#10003;</title></path><path class="success" d="&#10;M 364.65323072967936,233.54594120794022&#10;A180,180 0 0 1 363.8666487320323,236.58742811845377&#10;L 276.9333243660161,213.2937140592269&#10;A90,90 0 0 0 277.32661536483965,211.7729706039701&#10;Z&#10;"><title>absl-py &#10003;</title></path><path class="success" d="&#10;M 363.8666487320323,236.58742811845377&#10;A180,180 0 0 1 363.0271052688974,239.61472404705984&#10;L 276.51355263444873,214.80736202352992&#10;A90,90 0 0 0 276.9333243660161,213.2937140592269&#10;Z&#10;"><title>redis &#10003;</title></path><path class="success" d="&#10;M 363.0271052688974,239.61472404705984&#10;A180,180 0 0 1 362.1348560733464,242.6269068500926&#10;L 276.06742803667316,216.3134534250463&#10;A90,90 0 0 0 276.51355263444873,214.80736202352992&#10;Z&#10;"><title>beautifulsoup4 &#10003;</title></path><path class="success" d="&#10;M 362.1348560733464,242.6269068500926&#10;A180,180 0 0 1 361.19017293312766,245.62305898749054&#10;L 275.5950864665638,217.81152949374527&#10;A90,90 0 0 0 276.06742803667316,216.3134534250463&#10;Z&#10;"><title>typing &#10003;</title></path><path class="success" d="&#10;M 361.19017293312766,245.62305898749054&#10;A180,180 0 0 1 360.19334360787707,248.60226780228817&#10;L 275.09667180393853,219.30113390114408&#10;A90,90 0 0 0 275.5950864665638,217.81152949374527&#10;Z&#10;"><title>kiwisolver &#10003;</title></path><path class="success" d="&#10;M 360.19334360787707,248.60226780228817&#10;A180,180 0 0 1 359.1446717414635,251.56362579862036&#10;L 274.57233587073176,220.78181289931018&#10;A90,90 0 0 0 275.09667180393853,219.30113390114408&#10;Z&#10;"><title>configparser &#10003;</title></path><path class="success" d="&#10;M 359.1446717414635,251.56362579862036&#10;A180,180 0 0 1 358.0444767694963,254.50623091815407&#10;L 274.02223838474816,222.25311545907704&#10;A90,90 0 0 0 274.57233587073176,220.78181289931018&#10;Z&#10;"><title>packaging &#10003;</title></path><path class="success" d="&#10;M 358.0444767694963,254.50623091815407&#10;A180,180 0 0 1 356.89309382202174,257.4291868148642&#10;L 273.44654691101084,223.7145934074321&#10;A90,90 0 0 0 274.02223838474816,222.25311545907704&#10;Z&#10;"><title>gunicorn &#10003;</title></path><path class="success" d="&#10;M 356.89309382202174,257.4291868148642&#10;A180,180 0 0 1 355.69087362143927,260.3316031280693&#10;L 272.84543681071966,225.16580156403464&#10;A90,90 0 0 0 273.44654691101084,223.7145934074321&#10;Z&#10;"><title>pathlib2 &#10003;</title></path><path class="success" d="&#10;M 355.69087362143927,260.3316031280693&#10;A180,180 0 0 1 354.43818237566813,263.212595753644&#10;L 272.21909118783407,226.606297876822&#10;A90,90 0 0 0 272.84543681071966,225.16580156403464&#10;Z&#10;"><title>functools32 &#10003;</title></path><path class="success" d="&#10;M 354.43818237566813,263.212595753644&#10;A180,180 0 0 1 353.135401666597,266.07128711332587&#10;L 271.5677008332985,228.03564355666293&#10;A90,90 0 0 0 272.21909118783407,226.606297876822&#10;Z&#10;"><title>ipython-genutils &#10003;</title></path><path class="success" d="&#10;M 353.135401666597,266.07128711332587&#10;A180,180 0 0 1 351.78292833385,268.906806422034&#10;L 270.891464166925,229.453403211017&#10;A90,90 0 0 0 271.5677008332985,228.03564355666293&#10;Z&#10;"><title>lazy-object-proxy &#10003;</title></path><path class="success" d="&#10;M 351.78292833385,268.906806422034&#10;A180,180 0 0 1 350.3811743539062,271.7182899531184&#10;L 270.1905871769531,230.8591449765592&#10;A90,90 0 0 0 270.891464166925,229.453403211017&#10;Z&#10;"><title>traitlets &#10003;</title></path><path class="success" d="&#10;M 350.3811743539062,271.7182899531184&#10;A180,180 0 0 1 348.93056671460687,274.5048813014603&#10;L 269.4652833573034,232.25244065073014&#10;A90,90 0 0 0 270.1905871769531,230.8591449765592&#10;Z&#10;"><title>elasticsearch &#10003;</title></path><path class="success" d="&#10;M 348.93056671460687,274.5048813014603&#10;A180,180 0 0 1 347.43154728509126,277.2657316443407&#10;L 268.7157736425456,233.63286582217034&#10;A90,90 0 0 0 269.4652833573034,232.25244065073014&#10;Z&#10;"><title>pyflakes &#10003;</title></path><path class="success" d="&#10;M 347.43154728509126,277.2657316443407&#10;A180,180 0 0 1 345.88457268119896,280.0&#10;L 267.9422863405995,235.0&#10;A90,90 0 0 0 268.7157736425456,233.63286582217034&#10;Z&#10;"><title>gevent &#10003;</title></path><path class="success" d="&#10;M 345.88457268119896,280.0&#10;A180,180 0 0 1 344.2901141263802,282.70685348380977&#10;L 267.1450570631901,236.35342674190488&#10;A90,90 0 0 0 267.9422863405995,235.0&#10;Z&#10;"><title>async-timeout &#10003;</title></path><path class="success" d="&#10;M 344.2901141263802,282.70685348380977&#10;A180,180 0 0 1 342.64865730815666,285.3854675619769&#10;L 266.32432865407833,237.69273378098845&#10;A90,90 0 0 0 267.1450570631901,236.35342674190488&#10;Z&#10;"><title>networkx &#10003;</title></path><path class="success" d="&#10;M 342.64865730815666,285.3854675619769&#10;A180,180 0 0 1 340.9607022301763,288.03502630270486&#10;L 265.4803511150882,239.01751315135243&#10;A90,90 0 0 0 266.32432865407833,237.69273378098845&#10;Z&#10;"><title>termcolor &#10003;</title></path><path class="success" d="&#10;M 340.9607022301763,288.03502630270486&#10;A180,180 0 0 1 339.2267630599075,290.6547226247344&#10;L 264.61338152995376,240.3273613123672&#10;A90,90 0 0 0 265.4803511150882,239.01751315135243&#10;Z&#10;"><title>requests-toolbelt &#10003;</title></path><path class="success" d="&#10;M 339.2267630599075,290.6547226247344&#10;A180,180 0 0 1 337.4473679720186,293.2437585431883&#10;L 263.7236839860093,241.62187927159414&#10;A90,90 0 0 0 264.61338152995376,240.3273613123672&#10;Z&#10;"><title>cycler &#10003;</title></path><path class="success" d="&#10;M 337.4473679720186,293.2437585431883&#10;A180,180 0 0 1 335.62305898749054,295.80134541264516&#10;L 262.8115294937453,242.90067270632258&#10;A90,90 0 0 0 263.7236839860093,241.62187927159414&#10;Z&#10;"><title>pickleshare &#10003;</title></path><path class="success" d="&#10;M 335.62305898749054,295.80134541264516&#10;A180,180 0 0 1 333.75439180851265,298.32670416736875&#10;L 261.8771959042563,244.16335208368437&#10;A90,90 0 0 0 262.8115294937453,242.90067270632258&#10;Z&#10;"><title>greenlet &#10003;</title></path><path class="success" d="&#10;M 333.75439180851265,298.32670416736875&#10;A180,180 0 0 1 331.84193564921,300.8190655586185&#10;L 260.920967824605,245.40953277930925&#10;A90,90 0 0 0 261.8771959042563,244.16335208368437&#10;Z&#10;"><title>sklearn &#10003;</title></path><path class="success" d="&#10;M 331.84193564921,300.8190655586185&#10;A180,180 0 0 1 329.88627306225476,303.2776703889707&#10;L 259.9431365311274,246.63883519448535&#10;A90,90 0 0 0 260.920967824605,245.40953277930925&#10;Z&#10;"><title>toolz &#10003;</title></path><path class="success" d="&#10;M 329.88627306225476,303.2776703889707&#10;A180,180 0 0 1 327.88799976141604,305.7017697435771&#10;L 258.943999880708,247.85088487178854&#10;A90,90 0 0 0 259.9431365311274,246.63883519448535&#10;Z&#10;"><title>scikit-image &#10003;</title></path><path class="success" d="&#10;M 327.88799976141604,305.7017697435771&#10;A180,180 0 0 1 325.8477244400989,308.09062521829134&#10;L 257.92386222004944,249.04531260914567&#10;A90,90 0 0 0 258.943999880708,247.85088487178854&#10;Z&#10;"><title>google-auth-httplib2 &#10003;</title></path><path class="success" d="&#10;M 325.8477244400989,308.09062521829134&#10;A180,180 0 0 1 323.76606858593095,310.4435091445945&#10;L 256.8830342929655,250.22175457229724&#10;A90,90 0 0 0 257.92386222004944,249.04531260914567&#10;Z&#10;"><title>babel &#10003;</title></path><path class="success" d="&#10;M 323.76606858593095,310.4435091445945&#10;A180,180 0 0 1 321.6436662914507,312.7597048112497&#10;L 255.82183314572535,251.37985240562486&#10;A90,90 0 0 0 256.8830342929655,250.22175457229724&#10;Z&#10;"><title>scandir &#10003;</title></path><path class="success" d="&#10;M 321.6436662914507,312.7597048112497&#10;A180,180 0 0 1 319.4811640609572,315.03850668261947&#10;L 254.7405820304786,252.51925334130974&#10;A90,90 0 0 0 255.82183314572535,251.37985240562486&#10;Z&#10;"><title>opencv-python &#10003;</title></path><path class="success" d="&#10;M 319.4811640609572,315.03850668261947&#10;A180,180 0 0 1 317.27922061357856,317.27922061357856&#10;L 253.63961030678928,253.63961030678928&#10;A90,90 0 0 0 254.7405820304786,252.51925334130974&#10;Z&#10;"><title>django &#10003;</title></path><path class="success" d="&#10;M 317.27922061357856,317.27922061357856&#10;A180,180 0 0 1 315.03850668261947,319.4811640609572&#10;L 252.51925334130974,254.7405820304786&#10;A90,90 0 0 0 253.63961030678928,253.63961030678928&#10;Z&#10;"><title>tabulate &#10003;</title></path><path class="success" d="&#10;M 315.03850668261947,319.4811640609572&#10;A180,180 0 0 1 312.7597048112497,321.6436662914507&#10;L 251.37985240562486,255.82183314572535&#10;A90,90 0 0 0 252.51925334130974,254.7405820304786&#10;Z&#10;"><title>h5py &#10003;</title></path><path class="success" d="&#10;M 312.7597048112497,321.6436662914507&#10;A180,180 0 0 1 310.4435091445945,323.76606858593095&#10;L 250.22175457229724,256.8830342929655&#10;A90,90 0 0 0 251.37985240562486,255.82183314572535&#10;Z&#10;"><title>flake8 &#10003;</title></path><path class="success" d="&#10;M 310.4435091445945,323.76606858593095&#10;A180,180 0 0 1 308.0906252182913,325.847724440099&#10;L 249.04531260914564,257.9238622200495&#10;A90,90 0 0 0 250.22175457229724,256.8830342929655&#10;Z&#10;"><title>pymysql &#10003;</title></path><path class="success" d="&#10;M 308.0906252182913,325.847724440099&#10;A180,180 0 0 1 305.7017697435771,327.88799976141604&#10;L 247.85088487178854,258.943999880708&#10;A90,90 0 0 0 249.04531260914564,257.9238622200495&#10;Z&#10;"><title>azure-common &#10003;</title></path><path class="success" d="&#10;M 305.7017697435771,327.88799976141604&#10;A180,180 0 0 1 303.2776703889708,329.88627306225476&#10;L 246.6388351944854,259.9431365311274&#10;A90,90 0 0 0 247.85088487178854,258.943999880708&#10;Z&#10;"><title>isort &#10003;</title></path><path class="success" d="&#10;M 303.2776703889708,329.88627306225476&#10;A180,180 0 0 1 300.8190655586185,331.84193564921&#10;L 245.40953277930925,260.920967824605&#10;A90,90 0 0 0 246.6388351944854,259.9431365311274&#10;Z&#10;"><title>defusedxml &#10003;</title></path><path class="success" d="&#10;M 300.8190655586185,331.84193564921&#10;A180,180 0 0 1 298.3267041673687,333.75439180851276&#10;L 244.16335208368434,261.8771959042564&#10;A90,90 0 0 0 245.40953277930925,260.920967824605&#10;Z&#10;"><title>ujson &#10003;</title></path><path class="success" d="&#10;M 298.3267041673687,333.75439180851276&#10;A180,180 0 0 1 295.8013454126452,335.6230589874905&#10;L 242.9006727063226,262.81152949374524&#10;A90,90 0 0 0 244.16335208368434,261.8771959042564&#10;Z&#10;"><title>tensorflow &#10003;</title></path><path class="success" d="&#10;M 295.8013454126452,335.6230589874905&#10;A180,180 0 0 1 293.24375854318833,337.44736797201847&#10;L 241.62187927159417,263.72368398600923&#10;A90,90 0 0 0 242.9006727063226,262.81152949374524&#10;Z&#10;"><title>tensorboard &#10003;</title></path><path class="success" d="&#10;M 293.24375854318833,337.44736797201847&#10;A180,180 0 0 1 290.65472262473446,339.2267630599075&#10;L 240.32736131236723,264.61338152995376&#10;A90,90 0 0 0 241.62187927159417,263.72368398600923&#10;Z&#10;"><title>isodate &#10003;</title></path><path class="success" d="&#10;M 290.65472262473446,339.2267630599075&#10;A180,180 0 0 1 288.03502630270486,340.96070223017637&#10;L 239.01751315135243,265.4803511150882&#10;A90,90 0 0 0 240.32736131236723,264.61338152995376&#10;Z&#10;"><title>pymongo &#10003;</title></path><path class="success" d="&#10;M 288.03502630270486,340.96070223017637&#10;A180,180 0 0 1 285.3854675619769,342.64865730815666&#10;L 237.69273378098845,266.32432865407833&#10;A90,90 0 0 0 239.01751315135243,265.4803511150882&#10;Z&#10;"><title>webencodings &#10003;</title></path><path class="success" d="&#10;M 285.3854675619769,342.64865730815666&#10;A180,180 0 0 1 282.7068534838098,344.2901141263802&#10;L 236.3534267419049,267.1450570631901&#10;A90,90 0 0 0 237.69273378098845,266.32432865407833&#10;Z&#10;"><title>pylint &#10003;</title></path><path class="success" d="&#10;M 282.7068534838098,344.2901141263802&#10;A180,180 0 0 1 280.0,345.88457268119896&#10;L 235.0,267.9422863405995&#10;A90,90 0 0 0 236.3534267419049,267.1450570631901&#10;Z&#10;"><title>bleach &#10003;</title></path><path class="success" d="&#10;M 280.0,345.88457268119896&#10;A180,180 0 0 1 277.2657316443407,347.43154728509126&#10;L 233.63286582217034,268.7157736425456&#10;A90,90 0 0 0 235.0,267.9422863405995&#10;Z&#10;"><title>entrypoints &#10003;</title></path><path class="success" d="&#10;M 277.2657316443407,347.43154728509126&#10;A180,180 0 0 1 274.5048813014604,348.9305667146068&#10;L 232.2524406507302,269.4652833573034&#10;A90,90 0 0 0 233.63286582217034,268.7157736425456&#10;Z&#10;"><title>pycryptodome &#10003;</title></path><path class="success" d="&#10;M 274.5048813014604,348.9305667146068&#10;A180,180 0 0 1 271.7182899531184,350.3811743539062&#10;L 230.8591449765592,270.1905871769531&#10;A90,90 0 0 0 232.2524406507302,269.4652833573034&#10;Z&#10;"><title>astroid &#10003;</title></path><path class="success" d="&#10;M 271.7182899531184,350.3811743539062&#10;A180,180 0 0 1 268.9068064220339,351.78292833385007&#10;L 229.45340321101696,270.89146416692506&#10;A90,90 0 0 0 230.8591449765592,270.1905871769531&#10;Z&#10;"><title>subprocess32 &#10003;</title></path><path class="success" d="&#10;M 268.9068064220339,351.78292833385007&#10;A180,180 0 0 1 266.07128711332587,353.135401666597&#10;L 228.03564355666293,271.5677008332985&#10;A90,90 0 0 0 229.45340321101696,270.89146416692506&#10;Z&#10;"><title>websockets &#10003;</title></path><path class="success" d="&#10;M 266.07128711332587,353.135401666597&#10;A180,180 0 0 1 263.21259575364405,354.43818237566813&#10;L 226.60629787682203,272.21909118783407&#10;A90,90 0 0 0 228.03564355666293,271.5677008332985&#10;Z&#10;"><title>datadog &#10003;</title></path><path class="success" d="&#10;M 263.21259575364405,354.43818237566813&#10;A180,180 0 0 1 260.33160312806933,355.6908736214392&#10;L 225.16580156403467,272.8454368107196&#10;A90,90 0 0 0 226.60629787682203,272.21909118783407&#10;Z&#10;"><title>dask &#10003;</title></path><path class="success" d="&#10;M 260.33160312806933,355.6908736214392&#10;A180,180 0 0 1 257.4291868148642,356.8930938220217&#10;L 223.7145934074321,273.44654691101084&#10;A90,90 0 0 0 225.16580156403467,272.8454368107196&#10;Z&#10;"><title>dill &#10003;</title></path><path class="success" d="&#10;M 257.4291868148642,356.8930938220217&#10;A180,180 0 0 1 254.50623091815402,358.0444767694963&#10;L 222.253115459077,274.02223838474816&#10;A90,90 0 0 0 223.7145934074321,273.44654691101084&#10;Z&#10;"><title>zope-interface &#10003;</title></path><path class="success" d="&#10;M 254.50623091815402,358.0444767694963&#10;A180,180 0 0 1 251.5636257986204,359.1446717414635&#10;L 220.78181289931018,274.57233587073176&#10;A90,90 0 0 0 222.253115459077,274.02223838474816&#10;Z&#10;"><title>retrying &#10003;</title></path><path class="success" d="&#10;M 251.5636257986204,359.1446717414635&#10;A180,180 0 0 1 248.60226780228825,360.193343607877&#10;L 219.3011339011441,275.09667180393853&#10;A90,90 0 0 0 220.78181289931018,274.57233587073176&#10;Z&#10;"><title>gitpython &#10003;</title></path><path class="success" d="&#10;M 248.60226780228825,360.193343607877&#10;A180,180 0 0 1 245.62305898749054,361.19017293312766&#10;L 217.81152949374527,275.5950864665638&#10;A90,90 0 0 0 219.3011339011441,275.09667180393853&#10;Z&#10;"><title>pytest-cov &#10003;</title></path><path class="success" d="&#10;M 245.62305898749054,361.19017293312766&#10;A180,180 0 0 1 242.62690685009264,362.1348560733464&#10;L 216.31345342504633,276.06742803667316&#10;A90,90 0 0 0 217.81152949374527,275.5950864665638&#10;Z&#10;"><title>psycopg2-binary &#10003;</title></path><path class="success" d="&#10;M 242.62690685009264,362.1348560733464&#10;A180,180 0 0 1 239.61472404705992,363.02710526889734&#10;L 214.80736202352998,276.5135526344487&#10;A90,90 0 0 0 216.31345342504633,276.06742803667316&#10;Z&#10;"><title>pyzmq &#10003;</title></path><path class="success" d="&#10;M 239.61472404705992,363.02710526889734&#10;A180,180 0 0 1 236.58742811845377,363.8666487320323&#10;L 213.2937140592269,276.9333243660161&#10;A90,90 0 0 0 214.80736202352998,276.5135526344487&#10;Z&#10;"><title>cached-property &#10003;</title></path><path class="success" d="&#10;M 236.58742811845377,363.8666487320323&#10;A180,180 0 0 1 233.5459412079402,364.65323072967936&#10;L 211.7729706039701,277.32661536483965&#10;A90,90 0 0 0 213.2937140592269,276.9333243660161&#10;Z&#10;"><title>astor &#10003;</title></path><path class="success" d="&#10;M 233.5459412079402,364.65323072967936&#10;A180,180 0 0 1 230.49118978189566,365.3866116613424&#10;L 210.2455948909478,277.6933058306712&#10;A90,90 0 0 0 211.7729706039701,277.32661536483965&#10;Z&#10;"><title>docker-compose &#10003;</title></path><path class="success" d="&#10;M 230.49118978189566,365.3866116613424&#10;A180,180 0 0 1 227.42410434719665,366.066568132085&#10;L 208.71205217359832,278.0332840660425&#10;A90,90 0 0 0 210.2455948909478,277.6933058306712&#10;Z&#10;"><title>yarl &#10003;</title></path><path class="success" d="&#10;M 227.42410434719665,366.066568132085&#10;A180,180 0 0 1 224.34561916777807,366.6928930205795&#10;L 207.17280958388903,278.34644651028975&#10;A90,90 0 0 0 208.71205217359832,278.0332840660425&#10;Z&#10;"><title>html5lib &#10003;</title></path><path class="success" d="&#10;M 224.34561916777807,366.6928930205795&#10;A180,180 0 0 1 221.25667198004743,367.26539554219744&#10;L 205.62833599002371,278.6326977710987&#10;A90,90 0 0 0 207.17280958388903,278.34644651028975&#10;Z&#10;"><title>keras-applications &#10003;</title></path><path class="success" d="&#10;M 221.25667198004743,367.26539554219744&#10;A180,180 0 0 1 218.15820370724157,367.7839013071248&#10;L 204.07910185362078,278.8919506535624&#10;A90,90 0 0 0 205.62833599002371,278.6326977710987&#10;Z&#10;"><title>gast &#10003;</title></path><path class="success" d="&#10;M 218.15820370724157,367.7839013071248&#10;A180,180 0 0 1 215.05115817281182,368.2482523734826&#10;L 202.5255790864059,279.1241261867413&#10;A90,90 0 0 0 204.07910185362078,278.8919506535624&#10;Z&#10;"><title>keras-preprocessing &#10003;</title></path><path class="success" d="&#10;M 215.05115817281182,368.2482523734826&#10;A180,180 0 0 1 211.93648181292656,368.65830729543796&#10;L 200.96824090646328,279.32915364771895&#10;A90,90 0 0 0 202.5255790864059,279.1241261867413&#10;Z&#10;"><title>typed-ast &#10003;</title></path><path class="success" d="&#10;M 211.93648181292656,368.65830729543796&#10;A180,180 0 0 1 208.81512338817765,369.0139411662892&#10;L 199.40756169408883,279.5069705831446&#10;A90,90 0 0 0 200.96824090646328,279.32915364771895&#10;Z&#10;"><title>selenium &#10003;</title></path><path class="success" d="&#10;M 208.81512338817765,369.0139411662892&#10;A180,180 0 0 1 205.68803369457854,369.3150456565142&#10;L 197.84401684728928,279.65752282825713&#10;A90,90 0 0 0 199.40756169408883,279.5069705831446&#10;Z&#10;"><title>pymemcache &#10003;</title></path><path class="success" d="&#10;M 205.68803369457854,369.3150456565142&#10;A180,180 0 0 1 202.55616527394258,369.5615290467683&#10;L 196.2780826369713,279.78076452338416&#10;A90,90 0 0 0 197.84401684728928,279.65752282825713&#10;Z&#10;"><title>gitdb2 &#10003;</title></path><path class="success" d="&#10;M 202.55616527394258,369.5615290467683&#10;A180,180 0 0 1 199.42047212372987,369.7533162558233&#10;L 194.71023606186495,279.87665812791164&#10;A90,90 0 0 0 196.2780826369713,279.78076452338416&#10;Z&#10;"><title>smmap2 &#10003;</title></path><path class="success" d="&#10;M 199.42047212372987,369.7533162558233&#10;A180,180 0 0 1 196.28190940645013,369.8903488634372&#10;L 193.14095470322505,279.9451744317186&#10;A90,90 0 0 0 194.71023606186495,279.87665812791164&#10;Z&#10;"><title>pywavelets &#10003;</title></path><path class="success" d="&#10;M 196.28190940645013,369.8903488634372&#10;A180,180 0 0 1 193.141433158711,369.9725851281504&#10;L 191.5707165793555,279.9862925640752&#10;A90,90 0 0 0 193.14095470322505,279.9451744317186&#10;Z&#10;"><title>nose &#10003;</title></path><path class="success" d="&#10;M 193.141433158711,369.9725851281504&#10;A180,180 0 0 1 190.0,370.0&#10;L 190.0,280.0&#10;A90,90 0 0 0 191.5707165793555,279.9862925640752&#10;Z&#10;"><title>singledispatch &#10003;</title></path><path class="success" d="&#10;M 190.0,370.0&#10;A180,180 0 0 1 186.85856684128902,369.9725851281504&#10;L 188.4292834206445,279.9862925640752&#10;A90,90 0 0 0 190.0,280.0&#10;Z&#10;"><title>contextlib2 &#10003;</title></path><path class="success" d="&#10;M 186.85856684128902,369.9725851281504&#10;A180,180 0 0 1 183.71809059354982,369.8903488634372&#10;L 186.85904529677492,279.9451744317186&#10;A90,90 0 0 0 188.4292834206445,279.9862925640752&#10;Z&#10;"><title>jsonpickle &#10003;</title></path><path class="success" d="&#10;M 183.71809059354982,369.8903488634372&#10;A180,180 0 0 1 180.57952787627016,369.7533162558233&#10;L 185.28976393813508,279.87665812791164&#10;A90,90 0 0 0 186.85904529677492,279.9451744317186&#10;Z&#10;"><title>backports-ssl-match-hostname &#10003;</title></path><path class="success" d="&#10;M 180.57952787627016,369.7533162558233&#10;A180,180 0 0 1 177.44383472605753,369.5615290467684&#10;L 183.72191736302875,279.78076452338416&#10;A90,90 0 0 0 185.28976393813508,279.87665812791164&#10;Z&#10;"><title>discord-py &#10003;</title></path><path class="success" d="&#10;M 177.44383472605753,369.5615290467684&#10;A180,180 0 0 1 174.31196630542155,369.3150456565142&#10;L 182.15598315271077,279.65752282825713&#10;A90,90 0 0 0 183.72191736302875,279.78076452338416&#10;Z&#10;"><title>apache-beam &#10003;</title></path><path class="success" d="&#10;M 174.31196630542155,369.3150456565142&#10;A180,180 0 0 1 171.18487661182243,369.0139411662892&#10;L 180.59243830591123,279.5069705831446&#10;A90,90 0 0 0 182.15598315271077,279.65752282825713&#10;Z&#10;"><title>azure-nspkg &#10003;</title></path><path class="success" d="&#10;M 171.18487661182243,369.0139411662892&#10;A180,180 0 0 1 168.06351818707338,368.65830729543796&#10;L 179.0317590935367,279.32915364771895&#10;A90,90 0 0 0 180.59243830591123,279.5069705831446&#10;Z&#10;"><title>simplegeneric &#10003;</title></path><path class="success" d="&#10;M 168.06351818707338,368.65830729543796&#10;A180,180 0 0 1 164.9488418271882,368.2482523734826&#10;L 177.4744209135941,279.1241261867413&#10;A90,90 0 0 0 179.0317590935367,279.32915364771895&#10;Z&#10;"><title>ordereddict &#10003;</title></path><path class="success" d="&#10;M 164.9488418271882,368.2482523734826&#10;A180,180 0 0 1 161.84179629275846,367.7839013071248&#10;L 175.92089814637922,278.8919506535624&#10;A90,90 0 0 0 177.4744209135941,279.1241261867413&#10;Z&#10;"><title>xmltodict &#10003;</title></path><path class="success" d="&#10;M 161.84179629275846,367.7839013071248&#10;A180,180 0 0 1 158.74332801995251,367.26539554219744&#10;L 174.37166400997626,278.6326977710987&#10;A90,90 0 0 0 175.92089814637922,278.8919506535624&#10;Z&#10;"><title>parso &#10003;</title></path><path class="success" d="&#10;M 158.74332801995251,367.26539554219744&#10;A180,180 0 0 1 155.65438083222193,366.6928930205795&#10;L 172.82719041611097,278.34644651028975&#10;A90,90 0 0 0 174.37166400997626,278.6326977710987&#10;Z&#10;"><title>jedi &#10003;</title></path><path class="success" d="&#10;M 155.65438083222193,366.6928930205795&#10;A180,180 0 0 1 152.57589565280335,366.066568132085&#10;L 171.28794782640168,278.0332840660425&#10;A90,90 0 0 0 172.82719041611097,278.34644651028975&#10;Z&#10;"><title>trueskill &#10003;</title></path><path class="success" d="&#10;M 152.57589565280335,366.066568132085&#10;A180,180 0 0 1 149.5088102181043,365.3866116613424&#10;L 169.75440510905216,277.6933058306712&#10;A90,90 0 0 0 171.28794782640168,278.0332840660425&#10;Z&#10;"><title>jupyter-core &#10003;</title></path><path class="success" d="&#10;M 149.5088102181043,365.3866116613424&#10;A180,180 0 0 1 146.45405879205984,364.65323072967936&#10;L 168.22702939602993,277.32661536483965&#10;A90,90 0 0 0 169.75440510905216,277.6933058306712&#10;Z&#10;"><title>nbformat &#10003;</title></path><path class="success" d="&#10;M 146.45405879205984,364.65323072967936&#10;A180,180 0 0 1 143.41257188154634,363.86664873203233&#10;L 166.70628594077317,276.93332436601617&#10;A90,90 0 0 0 168.22702939602993,277.32661536483965&#10;Z&#10;"><title>appdirs &#10003;</title></path><path class="success" d="&#10;M 143.41257188154634,363.86664873203233&#10;A180,180 0 0 1 140.38527595294016,363.0271052688974&#10;L 165.19263797647008,276.51355263444873&#10;A90,90 0 0 0 166.70628594077317,276.93332436601617&#10;Z&#10;"><title>pykube &#10003;</title></path><path class="success" d="&#10;M 140.38527595294016,363.0271052688974&#10;A180,180 0 0 1 137.37309314990745,362.1348560733464&#10;L 163.68654657495372,276.06742803667316&#10;A90,90 0 0 0 165.19263797647008,276.51355263444873&#10;Z&#10;"><title>sortedcontainers &#10003;</title></path><path class="success" d="&#10;M 137.37309314990745,362.1348560733464&#10;A180,180 0 0 1 134.3769410125094,361.19017293312766&#10;L 162.1884705062547,275.5950864665638&#10;A90,90 0 0 0 163.68654657495372,276.06742803667316&#10;Z&#10;"><title>monotonic &#10003;</title></path><path class="success" d="&#10;M 134.3769410125094,361.19017293312766&#10;A180,180 0 0 1 131.39773219771178,360.193343607877&#10;L 160.6988660988559,275.09667180393853&#10;A90,90 0 0 0 162.1884705062547,275.5950864665638&#10;Z&#10;"><title>xlrd &#10003;</title></path><path class="success" d="&#10;M 131.39773219771178,360.193343607877&#10;A180,180 0 0 1 128.43637420137964,359.1446717414635&#10;L 159.21818710068982,274.57233587073176&#10;A90,90 0 0 0 160.6988660988559,275.09667180393853&#10;Z&#10;"><title>tzlocal &#10003;</title></path><path class="success" d="&#10;M 128.43637420137964,359.1446717414635&#10;A180,180 0 0 1 125.49376908184591,358.0444767694963&#10;L 157.74688454092296,274.02223838474816&#10;A90,90 0 0 0 159.21818710068982,274.57233587073176&#10;Z&#10;"><title>hdfs &#10003;</title></path><path class="success" d="&#10;M 125.49376908184591,358.0444767694963&#10;A180,180 0 0 1 122.57081318513583,356.89309382202174&#10;L 156.2854065925679,273.44654691101084&#10;A90,90 0 0 0 157.74688454092296,274.02223838474816&#10;Z&#10;"><title>grpc-google-iam-v1 &#10003;</title></path><path class="success" d="&#10;M 122.57081318513583,356.89309382202174&#10;A180,180 0 0 1 119.66839687193075,355.69087362143927&#10;L 154.8341984359654,272.84543681071966&#10;A90,90 0 0 0 156.2854065925679,273.44654691101084&#10;Z&#10;"><title>azure-storage-common &#10003;</title></path><path class="success" d="&#10;M 119.66839687193075,355.69087362143927&#10;A180,180 0 0 1 116.78740424635602,354.4381823756682&#10;L 153.393702123178,272.2190911878341&#10;A90,90 0 0 0 154.8341984359654,272.84543681071966&#10;Z&#10;"><title>unidecode &#10003;</title></path><path class="success" d="&#10;M 116.78740424635602,354.4381823756682&#10;A180,180 0 0 1 113.92871288667412,353.135401666597&#10;L 151.96435644333707,271.5677008332985&#10;A90,90 0 0 0 153.393702123178,272.2190911878341&#10;Z&#10;"><title>cython &#10003;</title></path><path class="success" d="&#10;M 113.92871288667412,353.135401666597&#10;A180,180 0 0 1 111.09319357796612,351.7829283338501&#10;L 150.54659678898307,270.89146416692506&#10;A90,90 0 0 0 151.96435644333707,271.5677008332985&#10;Z&#10;"><title>amqp &#10003;</title></path><path class="success" d="&#10;M 111.09319357796612,351.7829283338501&#10;A180,180 0 0 1 108.28171004688167,350.38117435390626&#10;L 149.14085502344085,270.19058717695316&#10;A90,90 0 0 0 150.54659678898307,270.89146416692506&#10;Z&#10;"><title>pyrsistent &#10003;</title></path><path class="success" d="&#10;M 108.28171004688167,350.38117435390626&#10;A180,180 0 0 1 105.49511869853964,348.9305667146068&#10;L 147.7475593492698,269.4652833573034&#10;A90,90 0 0 0 149.14085502344085,270.19058717695316&#10;Z&#10;"><title>google-cloud-firestore &#10003;</title></path><path class="success" d="&#10;M 105.49511869853964,348.9305667146068&#10;A180,180 0 0 1 102.73426835565935,347.43154728509126&#10;L 146.36713417782968,268.7157736425456&#10;A90,90 0 0 0 147.7475593492698,269.4652833573034&#10;Z&#10;"><title>soupsieve &#10003;</title></path><path class="success" d="&#10;M 102.73426835565935,347.43154728509126&#10;A180,180 0 0 1 99.99999999999999,345.88457268119896&#10;L 145.0,267.9422863405995&#10;A90,90 0 0 0 146.36713417782968,268.7157736425456&#10;Z&#10;"><title>raven &#10003;</title></path><path class="success" d="&#10;M 99.99999999999999,345.88457268119896&#10;A180,180 0 0 1 97.29314651619025,344.2901141263802&#10;L 143.64657325809512,267.1450570631901&#10;A90,90 0 0 0 145.0,267.9422863405995&#10;Z&#10;"><title>kombu &#10003;</title></path><path class="success" d="&#10;M 97.29314651619025,344.2901141263802&#10;A180,180 0 0 1 94.61453243802313,342.64865730815666&#10;L 142.30726621901158,266.32432865407833&#10;A90,90 0 0 0 143.64657325809512,267.1450570631901&#10;Z&#10;"><title>ansible &#10003;</title></path><path class="success" d="&#10;M 94.61453243802313,342.64865730815666&#10;A180,180 0 0 1 91.96497369729512,340.96070223017637&#10;L 140.98248684864757,265.4803511150882&#10;A90,90 0 0 0 142.30726621901158,266.32432865407833&#10;Z&#10;"><title>msgpack &#10003;</title></path><path class="success" d="&#10;M 91.96497369729512,340.96070223017637&#10;A180,180 0 0 1 89.3452773752656,339.2267630599075&#10;L 139.6726386876328,264.61338152995376&#10;A90,90 0 0 0 140.98248684864757,265.4803511150882&#10;Z&#10;"><title>azure-storage-blob &#10003;</title></path><path class="success" d="&#10;M 89.3452773752656,339.2267630599075&#10;A180,180 0 0 1 86.75624145681175,337.4473679720186&#10;L 138.37812072840586,263.7236839860093&#10;A90,90 0 0 0 139.6726386876328,264.61338152995376&#10;Z&#10;"><title>msrest &#10003;</title></path><path class="success" d="&#10;M 86.75624145681175,337.4473679720186&#10;A180,180 0 0 1 84.19865458735485,335.62305898749054&#10;L 137.09932729367742,262.8115294937453&#10;A90,90 0 0 0 138.37812072840586,263.7236839860093&#10;Z&#10;"><title>dnspython &#10003;</title></path><path class="success" d="&#10;M 84.19865458735485,335.62305898749054&#10;A180,180 0 0 1 81.67329583263135,333.75439180851276&#10;L 135.83664791631568,261.8771959042564&#10;A90,90 0 0 0 137.09932729367742,262.8115294937453&#10;Z&#10;"><title>hiredis &#10003;</title></path><path class="success" d="&#10;M 81.67329583263135,333.75439180851276&#10;A180,180 0 0 1 79.18093444138158,331.84193564921&#10;L 134.59046722069078,260.920967824605&#10;A90,90 0 0 0 135.83664791631568,261.8771959042564&#10;Z&#10;"><title>elasticsearch-dsl &#10003;</title></path><path class="success" d="&#10;M 79.18093444138158,331.84193564921&#10;A180,180 0 0 1 76.72232961102922,329.88627306225476&#10;L 133.36116480551462,259.9431365311274&#10;A90,90 0 0 0 134.59046722069078,260.920967824605&#10;Z&#10;"><title>toml &#10003;</title></path><path class="success" d="&#10;M 76.72232961102922,329.88627306225476&#10;A180,180 0 0 1 74.29823025642294,327.88799976141604&#10;L 132.14911512821146,258.943999880708&#10;A90,90 0 0 0 133.36116480551462,259.9431365311274&#10;Z&#10;"><title>backports-weakref &#10003;</title></path><path class="success" d="&#10;M 74.29823025642294,327.88799976141604&#10;A180,180 0 0 1 71.90937478170865,325.84772444009894&#10;L 130.95468739085433,257.9238622200495&#10;A90,90 0 0 0 132.14911512821146,258.943999880708&#10;Z&#10;"><title>prettytable &#10003;</title></path><path class="success" d="&#10;M 71.90937478170865,325.84772444009894&#10;A180,180 0 0 1 69.55649085540551,323.76606858593095&#10;L 129.77824542770276,256.8830342929655&#10;A90,90 0 0 0 130.95468739085433,257.9238622200495&#10;Z&#10;"><title>mako &#10003;</title></path><path class="success" d="&#10;M 69.55649085540551,323.76606858593095&#10;A180,180 0 0 1 67.2402951887503,321.6436662914507&#10;L 128.62014759437514,255.82183314572535&#10;A90,90 0 0 0 129.77824542770276,256.8830342929655&#10;Z&#10;"><title>adal &#10003;</title></path><path class="success" d="&#10;M 67.2402951887503,321.6436662914507&#10;A180,180 0 0 1 64.96149331738047,319.4811640609572&#10;L 127.48074665869024,254.7405820304786&#10;A90,90 0 0 0 128.62014759437514,255.82183314572535&#10;Z&#10;"><title>snowballstemmer &#10003;</title></path><path class="success" d="&#10;M 64.96149331738047,319.4811640609572&#10;A180,180 0 0 1 62.720779386421455,317.27922061357856&#10;L 126.36038969321072,253.63961030678928&#10;A90,90 0 0 0 127.48074665869024,254.7405820304786&#10;Z&#10;"><title>keras &#10003;</title></path><path class="success" d="&#10;M 62.720779386421455,317.27922061357856&#10;A180,180 0 0 1 60.518835939042816,315.0385066826195&#10;L 125.25941796952141,252.51925334130976&#10;A90,90 0 0 0 126.36038969321072,253.63961030678928&#10;Z&#10;"><title>prometheus-client &#10003;</title></path><path class="success" d="&#10;M 60.518835939042816,315.0385066826195&#10;A180,180 0 0 1 58.35633370854936,312.7597048112498&#10;L 124.17816685427468,251.3798524056249&#10;A90,90 0 0 0 125.25941796952141,252.51925334130976&#10;Z&#10;"><title>croniter &#10003;</title></path><path class="success" d="&#10;M 58.35633370854936,312.7597048112498&#10;A180,180 0 0 1 56.233931414069076,310.4435091445945&#10;L 123.11696570703454,250.22175457229724&#10;A90,90 0 0 0 124.17816685427468,251.3798524056249&#10;Z&#10;"><title>arrow &#10003;</title></path><path class="success" d="&#10;M 56.233931414069076,310.4435091445945&#10;A180,180 0 0 1 54.152275559901085,308.0906252182914&#10;L 122.07613777995054,249.0453126091457&#10;A90,90 0 0 0 123.11696570703454,250.22175457229724&#10;Z&#10;"><title>py4j &#10003;</title></path><path class="success" d="&#10;M 54.152275559901085,308.0906252182914&#10;A180,180 0 0 1 52.11200023858399,305.7017697435771&#10;L 121.056000119292,247.85088487178854&#10;A90,90 0 0 0 122.07613777995054,249.0453126091457&#10;Z&#10;"><title>lockfile &#10003;</title></path><path class="success" d="&#10;M 52.11200023858399,305.7017697435771&#10;A180,180 0 0 1 50.113726937745184,303.2776703889707&#10;L 120.05686346887259,246.63883519448535&#10;A90,90 0 0 0 121.056000119292,247.85088487178854&#10;Z&#10;"><title>celery &#10003;</title></path><path class="success" d="&#10;M 50.113726937745184,303.2776703889707&#10;A180,180 0 0 1 48.15806435079003,300.81906555861843&#10;L 119.07903217539501,245.40953277930922&#10;A90,90 0 0 0 120.05686346887259,246.63883519448535&#10;Z&#10;"><title>pycrypto &#10003;</title></path><path class="success" d="&#10;M 48.15806435079003,300.81906555861843&#10;A180,180 0 0 1 46.245608191487264,298.3267041673687&#10;L 118.12280409574363,244.16335208368434&#10;A90,90 0 0 0 119.07903217539501,245.40953277930922&#10;Z&#10;"><title>dockerpty &#10003;</title></path><path class="success" d="&#10;M 46.245608191487264,298.3267041673687&#10;A180,180 0 0 1 44.37694101250949,295.8013454126452&#10;L 117.18847050625475,242.9006727063226&#10;A90,90 0 0 0 118.12280409574363,244.16335208368434&#10;Z&#10;"><title>texttable &#10003;</title></path><path class="success" d="&#10;M 44.37694101250949,295.8013454126452&#10;A180,180 0 0 1 42.5526320279815,293.24375854318833&#10;L 116.27631601399075,241.62187927159417&#10;A90,90 0 0 0 117.18847050625475,242.9006727063226&#10;Z&#10;"><title>importlib-metadata &#10003;</title></path><path class="success" d="&#10;M 42.5526320279815,293.24375854318833&#10;A180,180 0 0 1 40.773236940092545,290.6547226247345&#10;L 115.38661847004627,240.32736131236726&#10;A90,90 0 0 0 116.27631601399075,241.62187927159417&#10;Z&#10;"><title>alabaster &#10003;</title></path><path class="success" d="&#10;M 40.773236940092545,290.6547226247345&#10;A180,180 0 0 1 39.03929776982366,288.03502630270486&#10;L 114.51964888491183,239.01751315135243&#10;A90,90 0 0 0 115.38661847004627,240.32736131236726&#10;Z&#10;"><title>ply &#10003;</title></path><path class="success" d="&#10;M 39.03929776982366,288.03502630270486&#10;A180,180 0 0 1 37.351342691843314,285.3854675619769&#10;L 113.67567134592166,237.69273378098845&#10;A90,90 0 0 0 114.51964888491183,239.01751315135243&#10;Z&#10;"><title>billiard &#10003;</title></path><path class="success" d="&#10;M 37.351342691843314,285.3854675619769&#10;A180,180 0 0 1 35.70988587361981,282.7068534838098&#10;L 112.8549429368099,236.3534267419049&#10;A90,90 0 0 0 113.67567134592166,237.69273378098845&#10;Z&#10;"><title>sqlparse &#10003;</title></path><path class="success" d="&#10;M 35.70988587361981,282.7068534838098&#10;A180,180 0 0 1 34.11542731880107,280.00000000000006&#10;L 112.05771365940053,235.00000000000003&#10;A90,90 0 0 0 112.8549429368099,236.3534267419049&#10;Z&#10;"><title>pycryptodomex &#10003;</title></path><path class="success" d="&#10;M 34.11542731880107,280.00000000000006&#10;A180,180 0 0 1 32.568452714908716,277.26573164434063&#10;L 111.28422635745436,233.63286582217032&#10;A90,90 0 0 0 112.05771365940053,235.00000000000003&#10;Z&#10;"><title>sphinx &#10003;</title></path><path class="success" d="&#10;M 32.568452714908716,277.26573164434063&#10;A180,180 0 0 1 31.06943328539313,274.50488130146033&#10;L 110.53471664269657,232.25244065073016&#10;A90,90 0 0 0 111.28422635745436,233.63286582217032&#10;Z&#10;"><title>thrift &#10003;</title></path><path class="success" d="&#10;M 31.06943328539313,274.50488130146033&#10;A180,180 0 0 1 29.618825646093796,271.7182899531184&#10;L 109.8094128230469,230.8591449765592&#10;A90,90 0 0 0 110.53471664269657,232.25244065073016&#10;Z&#10;"><title>zipp &#10003;</title></path><path class="success" d="&#10;M 29.618825646093796,271.7182899531184&#10;A180,180 0 0 1 28.217071666149963,268.906806422034&#10;L 109.10853583307498,229.453403211017&#10;A90,90 0 0 0 109.8094128230469,230.8591449765592&#10;Z&#10;"><title>nvidia-ml-py3 &#10003;</title></path><path class="success" d="&#10;M 28.217071666149963,268.906806422034&#10;A180,180 0 0 1 26.864598333403052,266.071287113326&#10;L 108.43229916670153,228.035643556663&#10;A90,90 0 0 0 109.10853583307498,229.453403211017&#10;Z&#10;"><title>backcall &#10003;</title></path><path class="success" d="&#10;M 26.864598333403052,266.071287113326&#10;A180,180 0 0 1 25.561817624331837,263.212595753644&#10;L 107.78090881216592,226.606297876822&#10;A90,90 0 0 0 108.43229916670153,228.035643556663&#10;Z&#10;"><title>regex &#10003;</title></path><path class="success" d="&#10;M 25.561817624331837,263.212595753644&#10;A180,180 0 0 1 24.309126378560734,260.3316031280693&#10;L 107.15456318928037,225.16580156403464&#10;A90,90 0 0 0 107.78090881216592,226.606297876822&#10;Z&#10;"><title>nltk &#10003;</title></path><path class="success" d="&#10;M 24.309126378560734,260.3316031280693&#10;A180,180 0 0 1 23.10690617797829,257.42918681486424&#10;L 106.55345308898914,223.71459340743212&#10;A90,90 0 0 0 107.15456318928037,225.16580156403464&#10;Z&#10;"><title>netaddr &#10003;</title></path><path class="success" d="&#10;M 23.10690617797829,257.42918681486424&#10;A180,180 0 0 1 21.9555232305037,254.50623091815413&#10;L 105.97776161525185,222.25311545907707&#10;A90,90 0 0 0 106.55345308898914,223.71459340743212&#10;Z&#10;"><title>unicodecsv &#10003;</title></path><path class="success" d="&#10;M 21.9555232305037,254.50623091815413&#10;A180,180 0 0 1 20.85532825853653,251.56362579862048&#10;L 105.42766412926827,220.78181289931024&#10;A90,90 0 0 0 105.97776161525185,222.25311545907707&#10;Z&#10;"><title>ruamel-yaml &#10003;</title></path><path class="success" d="&#10;M 20.85532825853653,251.56362579862048&#10;A180,180 0 0 1 19.80665639212296,248.6022678022882&#10;L 104.90332819606148,219.30113390114408&#10;A90,90 0 0 0 105.42766412926827,220.78181289931024&#10;Z&#10;"><title>ecdsa &#10003;</title></path><path class="success" d="&#10;M 19.80665639212296,248.6022678022882&#10;A180,180 0 0 1 18.809827066872373,245.62305898749054&#10;L 104.40491353343619,217.81152949374527&#10;A90,90 0 0 0 104.90332819606148,219.30113390114408&#10;Z&#10;"><title>slackclient &#10003;</title></path><path class="success" d="&#10;M 18.809827066872373,245.62305898749054&#10;A180,180 0 0 1 17.865143926653616,242.62690685009267&#10;L 103.93257196332681,216.31345342504633&#10;A90,90 0 0 0 104.40491353343619,217.81152949374527&#10;Z&#10;"><title>imagesize &#10003;</title></path><path class="success" d="&#10;M 17.865143926653616,242.62690685009267&#10;A180,180 0 0 1 16.97289473110257,239.61472404705978&#10;L 103.48644736555129,214.8073620235299&#10;A90,90 0 0 0 103.93257196332681,216.31345342504633&#10;Z&#10;"><title>alembic &#10003;</title></path><path class="success" d="&#10;M 16.97289473110257,239.61472404705978&#10;A180,180 0 0 1 16.133351267967697,236.58742811845372&#10;L 103.06667563398385,213.29371405922686&#10;A90,90 0 0 0 103.48644736555129,214.8073620235299&#10;Z&#10;"><title>backports-shutil-get-terminal-size &#10003;</title></path><path class="success" d="&#10;M 16.133351267967697,236.58742811845372&#10;A180,180 0 0 1 15.346769270320635,233.5459412079402&#10;L 102.67338463516032,211.7729706039701&#10;A90,90 0 0 0 103.06667563398385,213.29371405922686&#10;Z&#10;"><title>mistune &#10003;</title></path><path class="success" d="&#10;M 15.346769270320635,233.5459412079402&#10;A180,180 0 0 1 14.613388338657671,230.49118978189574&#10;L 102.30669416932884,210.24559489094787&#10;A90,90 0 0 0 102.67338463516032,211.7729706039701&#10;Z&#10;"><title>ipykernel &#10003;</title></path><path class="success" d="&#10;M 14.613388338657671,230.49118978189574&#10;A180,180 0 0 1 13.933431867915004,227.42410434719676&#10;L 101.9667159339575,208.71205217359838&#10;A90,90 0 0 0 102.30669416932884,210.24559489094787&#10;Z&#10;"><title>jupyter-client &#10003;</title></path><path class="success" d="&#10;M 13.933431867915004,227.42410434719676&#10;A180,180 0 0 1 13.307106979420496,224.34561916777818&#10;L 101.65355348971025,207.1728095838891&#10;A90,90 0 0 0 101.9667159339575,208.71205217359838&#10;Z&#10;"><title>python-editor &#10003;</title></path><path class="success" d="&#10;M 13.307106979420496,224.34561916777818&#10;A180,180 0 0 1 12.734604457802533,221.25667198004743&#10;L 101.36730222890127,205.62833599002371&#10;A90,90 0 0 0 101.65355348971025,207.1728095838891&#10;Z&#10;"><title>djangorestframework &#10003;</title></path><path class="success" d="&#10;M 12.734604457802533,221.25667198004743&#10;A180,180 0 0 1 12.21609869287522,218.15820370724157&#10;L 101.10804934643761,204.07910185362078&#10;A90,90 0 0 0 101.36730222890127,205.62833599002371&#10;Z&#10;"><title>backports-abc &#10003;</title></path><path class="success" d="&#10;M 12.21609869287522,218.15820370724157&#10;A180,180 0 0 1 11.751747626517329,215.05115817281168&#10;L 100.87587381325866,202.52557908640583&#10;A90,90 0 0 0 101.10804934643761,204.07910185362078&#10;Z&#10;"><title>vine &#10003;</title></path><path class="success" d="&#10;M 11.751747626517329,215.05115817281168&#10;A180,180 0 0 1 11.341692704562035,211.93648181292647&#10;L 100.67084635228102,200.96824090646325&#10;A90,90 0 0 0 100.87587381325866,202.52557908640583&#10;Z&#10;"><title>google-cloud-datastore &#10003;</title></path><path class="success" d="&#10;M 11.341692704562035,211.93648181292647&#10;A180,180 0 0 1 10.986058833710786,208.8151233881776&#10;L 100.49302941685539,199.4075616940888&#10;A90,90 0 0 0 100.67084635228102,200.96824090646325&#10;Z&#10;"><title>openpyxl &#10003;</title></path><path class="success" d="&#10;M 10.986058833710786,208.8151233881776&#10;A180,180 0 0 1 10.6849543434858,205.68803369457848&#10;L 100.3424771717429,197.84401684728923&#10;A90,90 0 0 0 100.49302941685539,199.4075616940888&#10;Z&#10;"><title>tox &#10003;</title></path><path class="success" d="&#10;M 10.6849543434858,205.68803369457848&#10;A180,180 0 0 1 10.438470953231644,202.55616527394258&#10;L 100.21923547661582,196.2780826369713&#10;A90,90 0 0 0 100.3424771717429,197.84401684728923&#10;Z&#10;"><title>manhole &#10003;</title></path><path class="success" d="&#10;M 10.438470953231644,202.55616527394258&#10;A180,180 0 0 1 10.246683744176721,199.42047212372995&#10;L 100.12334187208836,194.71023606186498&#10;A90,90 0 0 0 100.21923547661582,196.2780826369713&#10;Z&#10;"><title>notebook &#10003;</title></path><path class="success" d="&#10;M 10.246683744176721,199.42047212372995&#10;A180,180 0 0 1 10.109651136562775,196.2819094064503&#10;L 100.05482556828139,193.14095470322513&#10;A90,90 0 0 0 100.12334187208836,194.71023606186498&#10;Z&#10;"><title>typing-extensions &#10003;</title></path><path class="success" d="&#10;M 10.109651136562775,196.2819094064503&#10;A180,180 0 0 1 10.027414871849572,193.141433158711&#10;L 100.01370743592479,191.57071657935552&#10;A90,90 0 0 0 100.05482556828139,193.14095470322513&#10;Z&#10;"><title>google-cloud-logging &#10003;</title></path><path class="success" d="&#10;M 10.027414871849572,193.141433158711&#10;A180,180 0 0 1 10.0,190.00000000000003&#10;L 100.0,190.0&#10;A90,90 0 0 0 100.01370743592479,191.57071657935552&#10;Z&#10;"><title>gym &#10003;</title></path><path class="success" d="&#10;M 10.0,190.00000000000003&#10;A180,180 0 0 1 10.027414871849572,186.85856684128902&#10;L 100.01370743592479,188.4292834206445&#10;A90,90 0 0 0 100.0,190.0&#10;Z&#10;"><title>nbconvert &#10003;</title></path><path class="success" d="&#10;M 10.027414871849572,186.85856684128902&#10;A180,180 0 0 1 10.109651136562775,183.71809059354976&#10;L 100.05482556828139,186.85904529677487&#10;A90,90 0 0 0 100.01370743592479,188.4292834206445&#10;Z&#10;"><title>xlsxwriter &#10003;</title></path><path class="success" d="&#10;M 10.109651136562775,183.71809059354976&#10;A180,180 0 0 1 10.246683744176721,180.57952787627008&#10;L 100.12334187208836,185.28976393813505&#10;A90,90 0 0 0 100.05482556828139,186.85904529677487&#10;Z&#10;"><title>joblib &#10003;</title></path><path class="success" d="&#10;M 10.246683744176721,180.57952787627008&#10;A180,180 0 0 1 10.438470953231644,177.44383472605745&#10;L 100.21923547661582,183.72191736302872&#10;A90,90 0 0 0 100.12334187208836,185.28976393813505&#10;Z&#10;"><title>statsd &#10003;</title></path><path class="success" d="&#10;M 10.438470953231644,177.44383472605745&#10;A180,180 0 0 1 10.6849543434858,174.31196630542158&#10;L 100.3424771717429,182.15598315271077&#10;A90,90 0 0 0 100.21923547661582,183.72191736302872&#10;Z&#10;"><title>mysqlclient &#10003;</title></path><path class="success" d="&#10;M 10.6849543434858,174.31196630542158&#10;A180,180 0 0 1 10.986058833710786,171.18487661182246&#10;L 100.49302941685539,180.59243830591123&#10;A90,90 0 0 0 100.3424771717429,182.15598315271077&#10;Z&#10;"><title>cloudpickle &#10003;</title></path><path class="success" d="&#10;M 10.986058833710786,171.18487661182246&#10;A180,180 0 0 1 11.341692704562035,168.0635181870734&#10;L 100.67084635228102,179.0317590935367&#10;A90,90 0 0 0 100.49302941685539,180.59243830591123&#10;Z&#10;"><title>testpath &#10003;</title></path><path class="success" d="&#10;M 11.341692704562035,168.0635181870734&#10;A180,180 0 0 1 11.751747626517357,164.9488418271882&#10;L 100.87587381325868,177.47442091359412&#10;A90,90 0 0 0 100.67084635228102,179.0317590935367&#10;Z&#10;"><title>terminado &#10003;</title></path><path class="success" d="&#10;M 11.751747626517357,164.9488418271882&#10;A180,180 0 0 1 12.216098692875192,161.84179629275846&#10;L 101.1080493464376,175.92089814637924&#10;A90,90 0 0 0 100.87587381325868,177.47442091359412&#10;Z&#10;"><title>ijson &#10003;</title></path><path class="success" d="&#10;M 12.216098692875192,161.84179629275846&#10;A180,180 0 0 1 12.734604457802533,158.7433280199526&#10;L 101.36730222890127,174.37166400997629&#10;A90,90 0 0 0 101.1080493464376,175.92089814637924&#10;Z&#10;"><title>pypng &#10003;</title></path><path class="success" d="&#10;M 12.734604457802533,158.7433280199526&#10;A180,180 0 0 1 13.307106979420467,155.65438083222202&#10;L 101.65355348971023,172.82719041611102&#10;A90,90 0 0 0 101.36730222890127,174.37166400997629&#10;Z&#10;"><title>pyserial &#10003;</title></path><path class="success" d="&#10;M 13.307106979420467,155.65438083222202&#10;A180,180 0 0 1 13.933431867914948,152.57589565280344&#10;L 101.96671593395747,171.28794782640173&#10;A90,90 0 0 0 101.65355348971023,172.82719041611102&#10;Z&#10;"><title>msrestazure &#10003;</title></path><path class="success" d="&#10;M 13.933431867914948,152.57589565280344&#10;A180,180 0 0 1 14.613388338657643,149.50881021810432&#10;L 102.30669416932882,169.75440510905216&#10;A90,90 0 0 0 101.96671593395747,171.28794782640173&#10;Z&#10;"><title>jdcal &#10003;</title></path><path class="success" d="&#10;M 14.613388338657643,149.50881021810432&#10;A180,180 0 0 1 15.346769270320635,146.45405879205984&#10;L 102.67338463516032,168.22702939602993&#10;A90,90 0 0 0 102.30669416932882,169.75440510905216&#10;Z&#10;"><title>send2trash &#10003;</title></path><path class="success" d="&#10;M 15.346769270320635,146.45405879205984&#10;A180,180 0 0 1 16.133351267967726,143.41257188154617&#10;L 103.06667563398386,166.70628594077309&#10;A90,90 0 0 0 102.67338463516032,168.22702939602993&#10;Z&#10;"><title>pandocfilters &#10003;</title></path><path class="success" d="&#10;M 16.133351267967726,143.41257188154617&#10;A180,180 0 0 1 16.972894731102627,140.3852759529401&#10;L 103.48644736555131,165.19263797647005&#10;A90,90 0 0 0 103.06667563398386,166.70628594077309&#10;Z&#10;"><title>pyhamcrest &#10003;</title></path><path class="success" d="&#10;M 16.972894731102627,140.3852759529401&#10;A180,180 0 0 1 17.865143926653616,137.37309314990736&#10;L 103.93257196332681,163.6865465749537&#10;A90,90 0 0 0 103.48644736555131,165.19263797647005&#10;Z&#10;"><title>smart-open &#10003;</title></path><path class="success" d="&#10;M 17.865143926653616,137.37309314990736&#10;A180,180 0 0 1 18.809827066872344,134.3769410125095&#10;L 104.40491353343617,162.18847050625476&#10;A90,90 0 0 0 103.93257196332681,163.6865465749537&#10;Z&#10;"><title>sphinxcontrib-websupport &#10003;</title></path><path class="success" d="&#10;M 18.809827066872344,134.3769410125095&#10;A180,180 0 0 1 19.80665639212296,131.39773219771186&#10;L 104.90332819606148,160.69886609885592&#10;A90,90 0 0 0 104.40491353343617,162.18847050625476&#10;Z&#10;"><title>google-auth-oauthlib &#10003;</title></path><path class="success" d="&#10;M 19.80665639212296,131.39773219771186&#10;A180,180 0 0 1 20.855328258536474,128.43637420137972&#10;L 105.42766412926824,159.21818710068985&#10;A90,90 0 0 0 104.90332819606148,160.69886609885592&#10;Z&#10;"><title>idna-ssl &#10003;</title></path><path class="success" d="&#10;M 20.855328258536474,128.43637420137972&#10;A180,180 0 0 1 21.955523230503644,125.49376908184607&#10;L 105.97776161525182,157.74688454092302&#10;A90,90 0 0 0 105.42766412926824,159.21818710068985&#10;Z&#10;"><title>ipywidgets &#10003;</title></path><path class="success" d="&#10;M 21.955523230503644,125.49376908184607&#10;A180,180 0 0 1 23.10690617797826,122.57081318513583&#10;L 106.55345308898913,156.2854065925679&#10;A90,90 0 0 0 105.97776161525182,157.74688454092302&#10;Z&#10;"><title>widgetsnbextension &#10003;</title></path><path class="success" d="&#10;M 23.10690617797826,122.57081318513583&#10;A180,180 0 0 1 24.309126378560734,119.66839687193077&#10;L 107.15456318928037,154.8341984359654&#10;A90,90 0 0 0 106.55345308898913,156.2854065925679&#10;Z&#10;"><title>iso8601 &#10003;</title></path><path class="success" d="&#10;M 24.309126378560734,119.66839687193077&#10;A180,180 0 0 1 25.561817624331866,116.78740424635588&#10;L 107.78090881216593,153.39370212317795&#10;A90,90 0 0 0 107.15456318928037,154.8341984359654&#10;Z&#10;"><title>uvloop &#10003;</title></path><path class="success" d="&#10;M 25.561817624331866,116.78740424635588&#10;A180,180 0 0 1 26.864598333403023,113.92871288667406&#10;L 108.43229916670151,151.96435644333704&#10;A90,90 0 0 0 107.78090881216593,153.39370212317795&#10;Z&#10;"><title>statsmodels &#10003;</title></path><path class="success" d="&#10;M 26.864598333403023,113.92871288667406&#10;A180,180 0 0 1 28.217071666149963,111.09319357796606&#10;L 109.10853583307498,150.54659678898304&#10;A90,90 0 0 0 108.43229916670151,151.96435644333704&#10;Z&#10;"><title>pyarrow &#10003;</title></path><path class="success" d="&#10;M 28.217071666149963,111.09319357796606&#10;A180,180 0 0 1 29.618825646093768,108.2817100468816&#10;L 109.80941282304688,149.1408550234408&#10;A90,90 0 0 0 109.10853583307498,150.54659678898304&#10;Z&#10;"><title>et-xmlfile &#10003;</title></path><path class="success" d="&#10;M 29.618825646093768,108.2817100468816&#10;A180,180 0 0 1 31.06943328539313,105.49511869853971&#10;L 110.53471664269657,147.74755934926986&#10;A90,90 0 0 0 109.80941282304688,149.1408550234408&#10;Z&#10;"><title>xgboost &#10003;</title></path><path class="success" d="&#10;M 31.06943328539313,105.49511869853971&#10;A180,180 0 0 1 32.568452714908716,102.73426835565942&#10;L 111.28422635745436,146.3671341778297&#10;A90,90 0 0 0 110.53471664269657,147.74755934926986&#10;Z&#10;"><title>linecache2 &#10003;</title></path><path class="success" d="&#10;M 32.568452714908716,102.73426835565942&#10;A180,180 0 0 1 34.11542731880104,99.99999999999999&#10;L 112.05771365940052,145.0&#10;A90,90 0 0 0 111.28422635745436,146.3671341778297&#10;Z&#10;"><title>bz2file &#10003;</title></path><path class="success" d="&#10;M 34.11542731880104,99.99999999999999&#10;A180,180 0 0 1 35.70988587361978,97.29314651619025&#10;L 112.85494293680989,143.64657325809512&#10;A90,90 0 0 0 112.05771365940052,145.0&#10;Z&#10;"><title>s3fs &#10003;</title></path><path class="success" d="&#10;M 35.70988587361978,97.29314651619025&#10;A180,180 0 0 1 37.351342691843314,94.61453243802313&#10;L 113.67567134592166,142.30726621901158&#10;A90,90 0 0 0 112.85494293680989,143.64657325809512&#10;Z&#10;"><title>traceback2 &#10003;</title></path><path class="success" d="&#10;M 37.351342691843314,94.61453243802313&#10;A180,180 0 0 1 39.039297769823634,91.96497369729518&#10;L 114.51964888491182,140.9824868486476&#10;A90,90 0 0 0 113.67567134592166,142.30726621901158&#10;Z&#10;"><title>ndg-httpsclient &#10003;</title></path><path class="success" d="&#10;M 39.039297769823634,91.96497369729518&#10;A180,180 0 0 1 40.77323694009243,89.34527737526565&#10;L 115.38661847004622,139.67263868763283&#10;A90,90 0 0 0 114.51964888491182,140.9824868486476&#10;Z&#10;"><title>snowflake-connector-python &#10003;</title></path><path class="success" d="&#10;M 40.77323694009243,89.34527737526565&#10;A180,180 0 0 1 42.5526320279815,86.7562414568117&#10;L 116.27631601399075,138.37812072840586&#10;A90,90 0 0 0 115.38661847004622,139.67263868763283&#10;Z&#10;"><title>twisted &#10003;</title></path><path class="success" d="&#10;M 42.5526320279815,86.7562414568117&#10;A180,180 0 0 1 44.37694101250946,84.19865458735485&#10;L 117.18847050625473,137.09932729367742&#10;A90,90 0 0 0 116.27631601399075,138.37812072840586&#10;Z&#10;"><title>unittest2 &#10003;</title></path><path class="success" d="&#10;M 44.37694101250946,84.19865458735485&#10;A180,180 0 0 1 46.245608191487264,81.67329583263135&#10;L 118.12280409574363,135.83664791631568&#10;A90,90 0 0 0 117.18847050625473,137.09932729367742&#10;Z&#10;"><title>google-cloud-pubsub &#10003;</title></path><path class="success" d="&#10;M 46.245608191487264,81.67329583263135&#10;A180,180 0 0 1 48.158064350790085,79.18093444138147&#10;L 119.07903217539504,134.59046722069073&#10;A90,90 0 0 0 118.12280409574363,135.83664791631568&#10;Z&#10;"><title>filelock &#10003;</title></path><path class="success" d="&#10;M 48.158064350790085,79.18093444138147&#10;A180,180 0 0 1 50.11372693774527,76.72232961102922&#10;L 120.05686346887263,133.36116480551462&#10;A90,90 0 0 0 119.07903217539504,134.59046722069073&#10;Z&#10;"><title>aniso8601 &#10003;</title></path><path class="success" d="&#10;M 50.11372693774527,76.72232961102922&#10;A180,180 0 0 1 52.11200023858393,74.29823025642294&#10;L 121.05600011929197,132.14911512821146&#10;A90,90 0 0 0 120.05686346887263,133.36116480551462&#10;Z&#10;"><title>plotly &#10003;</title></path><path class="success" d="&#10;M 52.11200023858393,74.29823025642294&#10;A180,180 0 0 1 54.15227555990103,71.9093747817087&#10;L 122.07613777995051,130.95468739085436&#10;A90,90 0 0 0 121.05600011929197,132.14911512821146&#10;Z&#10;"><title>stevedore &#10003;</title></path><path class="success" d="&#10;M 54.15227555990103,71.9093747817087&#10;A180,180 0 0 1 56.23393141406899,69.55649085540557&#10;L 123.1169657070345,129.77824542770279&#10;A90,90 0 0 0 122.07613777995051,130.95468739085436&#10;Z&#10;"><title>qtconsole &#10003;</title></path><path class="success" d="&#10;M 56.23393141406899,69.55649085540557&#10;A180,180 0 0 1 58.35633370854924,67.24029518875035&#10;L 124.17816685427462,128.62014759437517&#10;A90,90 0 0 0 123.1169657070345,129.77824542770279&#10;Z&#10;"><title>virtualenv-clone &#10003;</title></path><path class="success" d="&#10;M 58.35633370854924,67.24029518875035&#10;A180,180 0 0 1 60.518835939042674,64.9614933173806&#10;L 125.25941796952134,127.4807466586903&#10;A90,90 0 0 0 124.17816685427462,128.62014759437517&#10;Z&#10;"><title>flask-cors &#10003;</title></path><path class="success" d="&#10;M 60.518835939042674,64.9614933173806&#10;A180,180 0 0 1 62.72077938642141,62.720779386421455&#10;L 126.3603896932107,126.36038969321072&#10;A90,90 0 0 0 125.25941796952134,127.4807466586903&#10;Z&#10;"><title>text-unidecode &#10003;</title></path><path class="success" d="&#10;M 62.72077938642141,62.720779386421455&#10;A180,180 0 0 1 64.96149331738043,60.518835939042845&#10;L 127.48074665869021,125.25941796952142&#10;A90,90 0 0 0 126.3603896932107,126.36038969321072&#10;Z&#10;"><title>incremental &#10003;</title></path><path class="success" d="&#10;M 64.96149331738043,60.518835939042845&#10;A180,180 0 0 1 67.24029518875031,58.35633370854927&#10;L 128.62014759437517,124.17816685427464&#10;A90,90 0 0 0 127.48074665869021,125.25941796952142&#10;Z&#10;"><title>azure-storage-nspkg &#10003;</title></path><path class="success" d="&#10;M 67.24029518875031,58.35633370854927&#10;A180,180 0 0 1 69.55649085540554,56.23393141406905&#10;L 129.77824542770276,123.11696570703452&#10;A90,90 0 0 0 128.62014759437517,124.17816685427464&#10;Z&#10;"><title>jupyter-console &#10003;</title></path><path class="success" d="&#10;M 69.55649085540554,56.23393141406905&#10;A180,180 0 0 1 71.90937478170866,54.15227555990106&#10;L 130.95468739085433,122.07613777995053&#10;A90,90 0 0 0 129.77824542770276,123.11696570703452&#10;Z&#10;"><title>python-jose &#10003;</title></path><path class="success" d="&#10;M 71.90937478170866,54.15227555990106&#10;A180,180 0 0 1 74.29823025642287,52.11200023858399&#10;L 132.14911512821143,121.056000119292&#10;A90,90 0 0 0 130.95468739085433,122.07613777995053&#10;Z&#10;"><title>constantly &#10003;</title></path><path class="success" d="&#10;M 74.29823025642287,52.11200023858399&#10;A180,180 0 0 1 76.7223296110292,50.1137269377453&#10;L 133.3611648055146,120.05686346887265&#10;A90,90 0 0 0 132.14911512821143,121.056000119292&#10;Z&#10;"><title>automat &#10003;</title></path><path class="success" d="&#10;M 76.7223296110292,50.1137269377453&#10;A180,180 0 0 1 79.18093444138141,48.15806435079011&#10;L 134.5904672206907,119.07903217539506&#10;A90,90 0 0 0 133.3611648055146,120.05686346887265&#10;Z&#10;"><title>patsy &#10003;</title></path><path class="success" d="&#10;M 79.18093444138141,48.15806435079011&#10;A180,180 0 0 1 81.67329583263131,46.24560819148729&#10;L 135.83664791631566,118.12280409574365&#10;A90,90 0 0 0 134.5904672206907,119.07903217539506&#10;Z&#10;"><title>jupyter &#10003;</title></path><path class="success" d="&#10;M 81.67329583263131,46.24560819148729&#10;A180,180 0 0 1 84.19865458735481,44.37694101250949&#10;L 137.0993272936774,117.18847050625475&#10;A90,90 0 0 0 135.83664791631566,118.12280409574365&#10;Z&#10;"><title>flask-sqlalchemy &#10003;</title></path><path class="success" d="&#10;M 84.19865458735481,44.37694101250949&#10;A180,180 0 0 1 86.75624145681165,42.5526320279815&#10;L 138.37812072840583,116.27631601399075&#10;A90,90 0 0 0 137.0993272936774,117.18847050625475&#10;Z&#10;"><title>hyperlink &#10003;</title></path><path class="success" d="&#10;M 86.75624145681165,42.5526320279815&#10;A180,180 0 0 1 89.34527737526548,40.773236940092545&#10;L 139.67263868763274,115.38661847004627&#10;A90,90 0 0 0 138.37812072840583,116.27631601399075&#10;Z&#10;"><title>inflection &#10003;</title></path><path class="success" d="&#10;M 89.34527737526548,40.773236940092545&#10;A180,180 0 0 1 91.96497369729515,39.03929776982366&#10;L 140.98248684864757,114.51964888491183&#10;A90,90 0 0 0 139.67263868763274,115.38661847004627&#10;Z&#10;"><title>faker &#10003;</title></path><path class="success" d="&#10;M 91.96497369729515,39.03929776982366&#10;A180,180 0 0 1 94.61453243802296,37.35134269184343&#10;L 142.30726621901147,113.67567134592171&#10;A90,90 0 0 0 140.98248684864757,114.51964888491183&#10;Z&#10;"><title>python-magic &#10003;</title></path><path class="success" d="&#10;M 94.61453243802296,37.35134269184343&#10;A180,180 0 0 1 97.29314651619019,35.70988587361981&#10;L 143.6465732580951,112.8549429368099&#10;A90,90 0 0 0 142.30726621901147,113.67567134592171&#10;Z&#10;"><title>azure-mgmt-resource &#10003;</title></path><path class="success" d="&#10;M 97.29314651619019,35.70988587361981&#10;A180,180 0 0 1 99.99999999999991,34.115427318801096&#10;L 144.99999999999994,112.05771365940055&#10;A90,90 0 0 0 143.6465732580951,112.8549429368099&#10;Z&#10;"><title>configobj &#10003;</title></path><path class="success" d="&#10;M 99.99999999999991,34.115427318801096&#10;A180,180 0 0 1 102.73426835565937,32.568452714908744&#10;L 146.36713417782968,111.28422635745437&#10;A90,90 0 0 0 144.99999999999994,112.05771365940055&#10;Z&#10;"><title>python-daemon &#10003;</title></path><path class="success" d="&#10;M 102.73426835565937,32.568452714908744&#10;A180,180 0 0 1 105.49511869853967,31.06943328539313&#10;L 147.74755934926984,110.53471664269657&#10;A90,90 0 0 0 146.36713417782968,111.28422635745437&#10;Z&#10;"><title>marshmallow &#10003;</title></path><path class="success" d="&#10;M 105.49511869853967,31.06943328539313&#10;A180,180 0 0 1 108.28171004688156,29.618825646093796&#10;L 149.1408550234408,109.8094128230469&#10;A90,90 0 0 0 147.74755934926984,110.53471664269657&#10;Z&#10;"><title>netifaces &#10003;</title></path><path class="success" d="&#10;M 108.28171004688156,29.618825646093796&#10;A180,180 0 0 1 111.09319357796615,28.217071666149906&#10;L 150.54659678898307,109.10853583307495&#10;A90,90 0 0 0 149.1408550234408,109.8094128230469&#10;Z&#10;"><title>uwsgi &#10003;</title></path><path class="success" d="&#10;M 111.09319357796615,28.217071666149906&#10;A180,180 0 0 1 113.928712886674,26.864598333403052&#10;L 151.964356443337,108.43229916670153&#10;A90,90 0 0 0 150.54659678898307,109.10853583307495&#10;Z&#10;"><title>tensorflow-estimator &#10003;</title></path><path class="success" d="&#10;M 113.928712886674,26.864598333403052&#10;A180,180 0 0 1 116.78740424635598,25.561817624331837&#10;L 153.393702123178,107.78090881216592&#10;A90,90 0 0 0 151.964356443337,108.43229916670153&#10;Z&#10;"><title>shapely &#10003;</title></path><path class="success" d="&#10;M 116.78740424635598,25.561817624331837&#10;A180,180 0 0 1 119.66839687193057,24.30912637856082&#10;L 154.83419843596528,107.15456318928041&#10;A90,90 0 0 0 153.393702123178,107.78090881216592&#10;Z&#10;"><title>ua-parser &#10003;</title></path><path class="success" d="&#10;M 119.66839687193057,24.30912637856082&#10;A180,180 0 0 1 122.57081318513579,23.10690617797829&#10;L 156.28540659256788,106.55345308898914&#10;A90,90 0 0 0 154.83419843596528,107.15456318928041&#10;Z&#10;"><title>humanfriendly &#10003;</title></path><path class="success" d="&#10;M 122.57081318513579,23.10690617797829&#10;A180,180 0 0 1 125.49376908184587,21.9555232305037&#10;L 157.74688454092293,105.97776161525185&#10;A90,90 0 0 0 156.28540659256788,106.55345308898914&#10;Z&#10;"><title>libtmux &#10003;</title></path><path class="success" d="&#10;M 125.49376908184587,21.9555232305037&#10;A180,180 0 0 1 128.43637420137966,20.855328258536474&#10;L 159.21818710068985,105.42766412926824&#10;A90,90 0 0 0 157.74688454092293,105.97776161525185&#10;Z&#10;"><title>bs4 &#10003;</title></path><path class="success" d="&#10;M 128.43637420137966,20.855328258536474&#10;A180,180 0 0 1 131.39773219771166,19.806656392123017&#10;L 160.69886609885583,104.90332819606151&#10;A90,90 0 0 0 159.21818710068985,105.42766412926824&#10;Z&#10;"><title>pycurl &#10003;</title></path><path class="success" d="&#10;M 131.39773219771166,19.806656392123017&#10;A180,180 0 0 1 134.37694101250943,18.809827066872373&#10;L 162.18847050625473,104.40491353343619&#10;A90,90 0 0 0 160.69886609885583,104.90332819606151&#10;Z&#10;"><title>pipenv &#10003;</title></path><path class="success" d="&#10;M 134.37694101250943,18.809827066872373&#10;A180,180 0 0 1 137.37309314990748,17.865143926653587&#10;L 163.68654657495375,103.9325719633268&#10;A90,90 0 0 0 162.18847050625473,104.40491353343619&#10;Z&#10;"><title>apipkg &#10003;</title></path><path class="success" d="&#10;M 137.37309314990748,17.865143926653587&#10;A180,180 0 0 1 140.38527595294005,16.972894731102627&#10;L 165.19263797647002,103.48644736555131&#10;A90,90 0 0 0 163.68654657495375,103.9325719633268&#10;Z&#10;"><title>azure-mgmt-storage &#10003;</title></path><path class="success" d="&#10;M 140.38527595294005,16.972894731102627&#10;A180,180 0 0 1 143.41257188154628,16.133351267967697&#10;L 166.70628594077314,103.06667563398385&#10;A90,90 0 0 0 165.19263797647002,103.48644736555131&#10;Z&#10;"><title>argcomplete &#10003;</title></path><path class="success" d="&#10;M 143.41257188154628,16.133351267967697&#10;A180,180 0 0 1 146.4540587920598,15.346769270320635&#10;L 168.2270293960299,102.67338463516032&#10;A90,90 0 0 0 166.70628594077314,103.06667563398385&#10;Z&#10;"><title>newrelic &#10003;</title></path><path class="success" d="&#10;M 146.4540587920598,15.346769270320635&#10;A180,180 0 0 1 149.50881021810426,14.613388338657671&#10;L 169.75440510905213,102.30669416932884&#10;A90,90 0 0 0 168.2270293960299,102.67338463516032&#10;Z&#10;"><title>fuzzywuzzy &#10003;</title></path><path class="success" d="&#10;M 149.50881021810426,14.613388338657671&#10;A180,180 0 0 1 152.57589565280324,13.933431867915004&#10;L 171.28794782640162,101.9667159339575&#10;A90,90 0 0 0 169.75440510905213,102.30669416932884&#10;Z&#10;"><title>execnet &#10003;</title></path><path class="success" d="&#10;M 152.57589565280324,13.933431867915004&#10;A180,180 0 0 1 155.65438083222196,13.307106979420496&#10;L 172.827190416111,101.65355348971025&#10;A90,90 0 0 0 171.28794782640162,101.9667159339575&#10;Z&#10;"><title>azure-mgmt-nspkg &#10003;</title></path><path class="success" d="&#10;M 155.65438083222196,13.307106979420496&#10;A180,180 0 0 1 158.74332801995237,12.73460445780259&#10;L 174.3716640099762,101.3673022289013&#10;A90,90 0 0 0 172.827190416111,101.65355348971025&#10;Z&#10;"><title>cherrypy &#10003;</title></path><path class="success" d="&#10;M 158.74332801995237,12.73460445780259&#10;A180,180 0 0 1 161.8417962927584,12.21609869287522&#10;L 175.92089814637922,101.10804934643761&#10;A90,90 0 0 0 174.3716640099762,101.3673022289013&#10;Z&#10;"><title>applicationinsights &#10003;</title></path><path class="success" d="&#10;M 161.8417962927584,12.21609869287522&#10;A180,180 0 0 1 164.94884182718815,11.751747626517357&#10;L 177.4744209135941,100.87587381325868&#10;A90,90 0 0 0 175.92089814637922,101.10804934643761&#10;Z&#10;"><title>webob &#10003;</title></path><path class="success" d="&#10;M 164.94884182718815,11.751747626517357&#10;A180,180 0 0 1 168.06351818707336,11.341692704562035&#10;L 179.03175909353666,100.67084635228102&#10;A90,90 0 0 0 177.4744209135941,100.87587381325868&#10;Z&#10;"><title>fasteners &#10003;</title></path><path class="success" d="&#10;M 168.06351818707336,11.341692704562035&#10;A180,180 0 0 1 171.1848766118224,10.986058833710786&#10;L 180.5924383059112,100.49302941685539&#10;A90,90 0 0 0 179.03175909353666,100.67084635228102&#10;Z&#10;"><title>seaborn &#10003;</title></path><path class="success" d="&#10;M 171.1848766118224,10.986058833710786&#10;A180,180 0 0 1 174.31196630542152,10.6849543434858&#10;L 182.15598315271075,100.3424771717429&#10;A90,90 0 0 0 180.5924383059112,100.49302941685539&#10;Z&#10;"><title>autopep8 &#10003;</title></path><path class="success" d="&#10;M 174.31196630542152,10.6849543434858&#10;A180,180 0 0 1 177.44383472605756,10.438470953231615&#10;L 183.72191736302878,100.21923547661581&#10;A90,90 0 0 0 182.15598315271075,100.3424771717429&#10;Z&#10;"><title>pathspec &#10003;</title></path><path class="success" d="&#10;M 177.44383472605756,10.438470953231615&#10;A180,180 0 0 1 180.57952787627002,10.246683744176721&#10;L 185.28976393813502,100.12334187208836&#10;A90,90 0 0 0 183.72191736302878,100.21923547661581&#10;Z&#10;"><title>service-identity &#10003;</title></path><path class="success" d="&#10;M 180.57952787627002,10.246683744176721&#10;A180,180 0 0 1 183.71809059354987,10.109651136562775&#10;L 186.85904529677492,100.05482556828139&#10;A90,90 0 0 0 185.28976393813502,100.12334187208836&#10;Z&#10;"><title>wtforms &#10003;</title></path><path class="success" d="&#10;M 183.71809059354987,10.109651136562775&#10;A180,180 0 0 1 186.85856684128882,10.027414871849572&#10;L 188.4292834206444,100.01370743592479&#10;A90,90 0 0 0 186.85904529677492,100.05482556828139&#10;Z&#10;"><title>pep8 &#10003;</title></path><path class="success" d="&#10;M 186.85856684128882,10.027414871849572&#10;A180,180 0 0 1 189.99999999999997,10.0&#10;L 189.99999999999997,100.0&#10;A90,90 0 0 0 188.4292834206444,100.01370743592479&#10;Z&#10;"><title>pydot &#10003;</title></path><text dominant-baseline="central" fill="#333333" font-family="&quot;Helvetica Neue&quot;,Helvetica,Arial,sans-serif" font-size="40" text-anchor="middle" x="190" y="170">360</text><line stroke="#333333" stroke-width="2" x1="150" x2="230" y1="190" y2="190" /><text dominant-baseline="central" fill="#333333" font-family="&quot;Helvetica Neue&quot;,Helvetica,Arial,sans-serif" font-size="40" text-anchor="middle" x="190" y="210">360</text></svg>